<?xml version="1.0" encoding="utf-8"?>
<!-- Generator: Adobe Illustrator 27.5.0, SVG Export Plug-In . SVG Version: 6.00 Build 0)  -->
<svg version="1.1" xmlns="http://www.w3.org/2000/svg" xmlns:xlink="http://www.w3.org/1999/xlink" x="0px" y="0px"
	 viewBox="0 0 500 500" style="enable-background:new 0 0 500 500;" xml:space="preserve">
<g id="BACKGROUND">
	<rect style="fill:#FFFFFF;" width="500" height="500"/>
</g>
<g id="OBJECT">
	<g>
		
			<ellipse transform="matrix(0.7071 -0.7071 0.7071 0.7071 -80.3741 243.9619)" style="fill:#E9EFFF;" cx="254.301" cy="219.001" rx="135.021" ry="135.021"/>
		
			<ellipse transform="matrix(0.7071 -0.7071 0.7071 0.7071 -147.9884 201.2006)" style="fill:#DAE3F7;" cx="168.876" cy="279.238" rx="93.524" ry="93.524"/>
		<circle style="fill:#DAE3F7;" cx="272.686" cy="79.984" r="22.2"/>
		<ellipse style="fill:#DAE3F7;" cx="255.94" cy="427.952" rx="162.98" ry="24.877"/>
		<path style="fill:#99B6FF;" d="M284.758,360.914h-56.245c-2.557,0-4.63-2.073-4.63-4.63v-30.899c0-2.557,2.073-4.63,4.63-4.63
			h56.245c2.557,0,4.63,2.073,4.63,4.63v30.899C289.388,358.841,287.315,360.914,284.758,360.914z"/>
		<g>
			<path style="fill:#A09C08;" d="M41.792,205.031c0,0,10.56,6.193,32.488,6.924c23.966,0.799,36.749-3.728,36.749-3.728v33.819
				c0,0-20.505,4.793-42.341,3.196c-21.836-1.598-26.896-5.859-26.896-5.859V205.031z"/>
			<path style="fill:#C4C405;" d="M38.463,200.238c0,0,10.56,6.193,32.488,6.924c23.967,0.799,36.749-3.728,36.749-3.728v33.819
				c0,0-20.505,4.793-42.341,3.195c-21.836-1.598-26.896-5.859-26.896-5.859V200.238z"/>
			<path style="fill:#E6F200;" d="M33.714,195.667c0,0,10.56,6.193,32.488,6.924c23.966,0.799,36.749-3.728,36.749-3.728v33.819
				c0,0-20.505,4.793-42.341,3.196c-21.836-1.598-26.896-5.859-26.896-5.859V195.667z"/>
			<ellipse style="fill:#C4C405;" cx="69.242" cy="218.834" rx="10.452" ry="9.986"/>
			<path style="fill:#C4C405;" d="M47.073,204.454c0,0-7.057-2.264-9.52-3.395v9.587L47.073,204.454z"/>
			<path style="fill:#C4C405;" d="M90.257,230.995c0,0,3.906-0.533,8.61-1.42v-9.068L90.257,230.995z"/>
		</g>
		<rect x="228.757" y="334.107" style="fill:#FFFFFF;" width="10.493" height="6.727"/>
		<rect x="253.471" y="346.25" style="fill:#FFFFFF;" width="29.857" height="1.286"/>
		<rect x="253.471" y="349.964" style="fill:#FFFFFF;" width="29.857" height="1.286"/>
		<g>
			<path style="fill:#99B6FF;" d="M425.052,193.495c4.289-4.433,32.399-34.524,29.109-58.436
				c-3.538-25.71-25.345-27.641-29.109-27.782v-0.012c0,0-0.099-0.001-0.282,0.003c-0.182-0.004-0.282-0.003-0.282-0.003v0.012
				c-3.764,0.142-25.571,2.073-29.109,27.782c-3.29,23.912,24.82,54.002,29.109,58.436v0.577c0,0,0.11-0.111,0.282-0.286
				c0.172,0.175,0.282,0.286,0.282,0.286V193.495z"/>
			
				<ellipse transform="matrix(0.7071 -0.7071 0.7071 0.7071 28.2247 340.1999)" style="fill:#FFFFFF;" cx="424.77" cy="136.03" rx="14.639" ry="14.639"/>
		</g>
		<circle style="fill:#E9EFFF;" cx="411.383" cy="224.405" r="6.24"/>
		<circle style="fill:#E9EFFF;" cx="209.892" cy="285.824" r="6.24"/>
		
			<ellipse transform="matrix(0.7347 -0.6783 0.6783 0.7347 -85.5809 113.5022)" style="fill:#E9EFFF;" cx="102.342" cy="166.181" rx="9.514" ry="9.514"/>
		<g>
			<path style="fill:#FFFFFF;" d="M87.776,296.012c-0.295,0-0.591-0.087-0.85-0.265l-13.039-8.971
				c-0.683-0.469-0.855-1.403-0.386-2.086c0.47-0.682,1.403-0.853,2.086-0.385l11.975,8.238l17.118-18.313
				c0.566-0.604,1.515-0.637,2.12-0.071c0.605,0.565,0.637,1.515,0.071,2.12l-18,19.256C88.58,295.85,88.18,296.012,87.776,296.012z
				"/>
		</g>
		
			<ellipse transform="matrix(0.7071 -0.7071 0.7071 0.7071 -76.729 386.7485)" style="fill:#A09C08;" cx="428.482" cy="285.994" rx="22.179" ry="22.179"/>
		<circle style="fill:#C4C405;" cx="442.723" cy="295.932" r="23.563"/>
		
			<ellipse transform="matrix(0.161 -0.9869 0.9869 0.161 79.3595 685.2213)" style="fill:#E6F200;" cx="442.723" cy="295.932" rx="17.024" ry="17.024"/>
		<g>
			<g>
				<path style="fill:#A09C08;" d="M440.779,303.325c-0.723-0.196-1.399-0.489-2.03-0.877c-0.631-0.389-1.222-0.875-1.773-1.46
					l1.717-2.081c0.602,0.728,1.268,1.272,1.999,1.636c0.73,0.363,1.526,0.545,2.387,0.545c1.187,0,2.072-0.231,2.657-0.695
					s0.877-1.167,0.877-2.111v-0.013c0-0.602-0.142-1.078-0.426-1.429s-0.651-0.614-1.103-0.789
					c-0.451-0.176-1.028-0.33-1.729-0.464c-0.025-0.009-0.049-0.013-0.069-0.013s-0.044-0.004-0.068-0.013
					c-0.042-0.008-0.086-0.017-0.132-0.025c-0.046-0.008-0.09-0.017-0.132-0.024c-1.119-0.209-2.026-0.443-2.72-0.702
					s-1.286-0.729-1.779-1.41c-0.493-0.681-0.739-1.647-0.739-2.9v-0.013c0-1.22,0.222-2.232,0.664-3.039
					c0.443-0.807,1.104-1.412,1.986-1.817s1.986-0.607,3.314-0.607c0.585,0,1.164,0.061,1.736,0.182s1.138,0.305,1.698,0.551
					c0.56,0.247,1.115,0.554,1.666,0.922l-1.541,2.117c-0.618-0.417-1.222-0.729-1.811-0.934c-0.59-0.204-1.172-0.307-1.749-0.307
					c-1.103,0-1.93,0.228-2.48,0.683c-0.552,0.456-0.827,1.139-0.827,2.05v0.012c0,0.627,0.158,1.118,0.476,1.473
					c0.317,0.355,0.717,0.616,1.197,0.783s1.138,0.343,1.974,0.526c0.033,0.009,0.066,0.017,0.101,0.025
					c0.033,0.008,0.07,0.017,0.112,0.025c0.042,0.008,0.081,0.017,0.119,0.024c0.037,0.009,0.077,0.017,0.119,0.025
					c0.985,0.217,1.811,0.482,2.475,0.796s1.218,0.816,1.661,1.51c0.442,0.693,0.664,1.638,0.664,2.832v0.025
					c0,1.178-0.23,2.157-0.689,2.938c-0.46,0.781-1.146,1.366-2.062,1.755s-2.062,0.582-3.44,0.582
					C442.269,303.619,441.502,303.521,440.779,303.325z M442.038,282.992h2.557v2.857h-2.557V282.992z M442.038,302.63h2.557v3.02
					h-2.557V302.63z"/>
			</g>
		</g>
		
			<line style="fill:none;stroke:#FFFFFF;stroke-width:3;stroke-linecap:round;stroke-linejoin:round;stroke-miterlimit:10;" x1="295.263" y1="270.709" x2="295.263" y2="281.241"/>
		
			<line style="fill:none;stroke:#FFFFFF;stroke-width:3;stroke-linecap:round;stroke-linejoin:round;stroke-miterlimit:10;" x1="295.263" y1="290.408" x2="295.263" y2="300.94"/>
		
			<line style="fill:none;stroke:#FFFFFF;stroke-width:3;stroke-linecap:round;stroke-linejoin:round;stroke-miterlimit:10;" x1="310.378" y1="285.824" x2="299.846" y2="285.824"/>
		
			<line style="fill:none;stroke:#FFFFFF;stroke-width:3;stroke-linecap:round;stroke-linejoin:round;stroke-miterlimit:10;" x1="290.679" y1="285.824" x2="280.147" y2="285.824"/>
		
			<line style="fill:none;stroke:#FFFFFF;stroke-width:3;stroke-linecap:round;stroke-linejoin:round;stroke-miterlimit:10;" x1="299.254" y1="281.241" x2="303.245" y2="277.263"/>
		
			<line style="fill:none;stroke:#FFFFFF;stroke-width:3;stroke-linecap:round;stroke-linejoin:round;stroke-miterlimit:10;" x1="290.679" y1="281.241" x2="286.688" y2="277.263"/>
		
			<line style="fill:none;stroke:#FFFFFF;stroke-width:3;stroke-linecap:round;stroke-linejoin:round;stroke-miterlimit:10;" x1="290.679" y1="289.706" x2="286.688" y2="293.685"/>
		
			<line style="fill:none;stroke:#FFFFFF;stroke-width:3;stroke-linecap:round;stroke-linejoin:round;stroke-miterlimit:10;" x1="299.254" y1="289.706" x2="303.245" y2="293.685"/>
		<g>
			<g>
				<path style="fill:#DAE3F7;" d="M210.476,60.702c-0.829,0-1.5-0.671-1.5-1.5V48.67c0-0.829,0.671-1.5,1.5-1.5s1.5,0.671,1.5,1.5
					v10.532C211.976,60.031,211.305,60.702,210.476,60.702z"/>
			</g>
			<g>
				<path style="fill:#DAE3F7;" d="M210.476,80.401c-0.829,0-1.5-0.671-1.5-1.5V68.369c0-0.829,0.671-1.5,1.5-1.5s1.5,0.671,1.5,1.5
					v10.532C211.976,79.73,211.305,80.401,210.476,80.401z"/>
			</g>
			<g>
				<path style="fill:#DAE3F7;" d="M225.591,65.286H215.06c-0.829,0-1.5-0.671-1.5-1.5s0.671-1.5,1.5-1.5h10.532
					c0.829,0,1.5,0.671,1.5,1.5S226.42,65.286,225.591,65.286z"/>
			</g>
			<g>
				<path style="fill:#DAE3F7;" d="M205.893,65.286h-10.532c-0.829,0-1.5-0.671-1.5-1.5s0.671-1.5,1.5-1.5h10.532
					c0.829,0,1.5,0.671,1.5,1.5S206.721,65.286,205.893,65.286z"/>
			</g>
			<g>
				<path style="fill:#DAE3F7;" d="M214.467,60.702c-0.385,0-0.769-0.147-1.063-0.441c-0.585-0.587-0.583-1.537,0.003-2.122
					l3.991-3.979c0.587-0.584,1.536-0.583,2.122,0.003c0.585,0.587,0.583,1.537-0.003,2.122l-3.991,3.979
					C215.233,60.556,214.85,60.702,214.467,60.702z"/>
			</g>
			<g>
				<path style="fill:#DAE3F7;" d="M205.893,60.702c-0.383,0-0.766-0.146-1.059-0.438l-3.991-3.979
					c-0.586-0.585-0.588-1.535-0.003-2.122c0.584-0.587,1.534-0.588,2.122-0.003l3.991,3.979c0.586,0.585,0.588,1.535,0.003,2.122
					C206.662,60.555,206.277,60.702,205.893,60.702z"/>
			</g>
			<g>
				<path style="fill:#DAE3F7;" d="M201.901,73.146c-0.385,0-0.769-0.147-1.062-0.441c-0.585-0.587-0.583-1.537,0.003-2.122
					l3.991-3.979c0.587-0.584,1.536-0.583,2.122,0.003c0.584,0.587,0.583,1.537-0.003,2.122l-3.991,3.979
					C202.668,73,202.284,73.146,201.901,73.146z"/>
			</g>
			<g>
				<path style="fill:#DAE3F7;" d="M218.459,73.146c-0.383,0-0.766-0.146-1.059-0.438l-3.991-3.979
					c-0.586-0.585-0.588-1.535-0.003-2.122c0.584-0.587,1.534-0.588,2.122-0.003l3.991,3.979c0.586,0.585,0.588,1.535,0.003,2.122
					C219.228,72.999,218.843,73.146,218.459,73.146z"/>
			</g>
		</g>
	</g>
	<g>
		<path style="fill:#B25F4F;" d="M342.57,188.691l-8.803,16.477c-2.087,3.889-6.641,5.753-10.851,4.438l-43.546-14.354l-4.541-1.494
			c0,0-15.668-0.828-16.741-1.721c-1.074-0.882-1.479-2.876-1.479-2.876s-1.012-0.874-1.283-1.588
			c-0.283-0.705-0.158-1.659-0.158-1.659s-0.657-1.276-0.694-2.105c-0.038-0.819,0.6-2.822,0.6-2.822s-0.344-0.797-0.608-1.645
			c-0.228-0.729-0.78-2.638-0.077-3.068c0.125-0.077,0.286-0.109,0.491-0.082c1.395,0.183,4.264,6.143,4.264,6.143l8.735-0.563
			l0.221-1.682c0,0-6.755-1.483-7.391-1.723c-0.648-0.231-1.539-1.392-1.021-1.919c0.518-0.527,6.093-0.389,8.691,0.245
			c2.597,0.644,8.517,4.907,8.517,4.907l5.153,1.126l37.865,8.275l2.457-6.543l1.025-2.714L342.57,188.691z"/>
		<path style="fill:#3D4566;" d="M359.944,102.034c0,0,4.582-3.178,9.902,0c5.321,3.178,6.872,16.627,7.39,23.056
			c0.517,6.429-3.251,3.178-4.212-0.813c0,0,0.961,9.089-2.734,10.124c-3.695,1.035-3.325-17.965-4.803-22.986
			c-1.478-5.021-5.244-3.913-5.244-3.913L359.944,102.034z"/>
		<path style="fill:#FF8D6A;" d="M420.983,390.795l-10.025-10.48c0,0-6.478,3.443-13.654,13.203l10.377,8.549
			c-0.273,3.683-1.295,13.604-4.604,18.511c-4.111,6.096-4.154,7.968-3.332,9.619c0.822,1.651,9.035-1.869,15.517-5.94
			c6.482-4.071,14.53-12.183,14.53-12.183s5.896-4.013,6.486-5.921C436.869,404.246,420.983,390.795,420.983,390.795z"/>
		<path style="fill:#234B7A;" d="M404.424,415.103c0,0-1.688,4.041-6.126,10.186s-3.267,7.663-2.223,9.326
			c1.043,1.664,11.412-1.624,20.498-8.566c9.086-6.942,12.435-9.965,15.145-12.258c2.709-2.293,6.244-4.998,6.446-6.963
			c0.202-1.965-6.907-8.539-8.391-9.377c-1.484-0.838-1.775,0.611-3.088,4.077c-1.314,3.467-5.337,7.523-7.642,8.443
			c-2.304,0.92-9.853-2.081-12.191-0.952C404.514,410.149,404.424,415.103,404.424,415.103z"/>
		<polygon style="fill:#2F5791;" points="389.978,264.082 394.945,319.024 421.783,386.927 399.348,401.874 355.51,342.201 		"/>
		<path style="fill:#FF8D6A;" d="M378.653,414.165l-2.836-14.223c0,0-7.314-0.571-18.606,3.815l4.169,12.782
			c-2.206,2.961-8.392,10.784-13.819,13.15c-6.74,2.938-7.781,4.494-7.973,6.329c-0.192,1.834,8.627,3.271,16.281,3.314
			c7.654,0.043,18.798-2.483,18.798-2.483s7.129-0.222,8.651-1.515C384.84,434.04,378.653,414.165,378.653,414.165z"/>
		<path style="fill:#2F5791;" d="M351.637,425.791c0,0-3.593,2.504-10.635,5.308c-7.042,2.804-6.868,4.713-6.881,6.677
			c-0.013,1.964,10.501,4.754,21.894,3.771c11.393-0.982,15.84-1.735,19.357-2.217c3.517-0.481,7.951-0.867,9.176-2.416
			c1.225-1.55-1.246-10.911-2.049-12.415c-0.803-1.503-1.825-0.437-4.794,1.784c-2.969,2.221-8.541,3.484-10.979,3.024
			c-2.438-0.46-7.197-7.043-9.777-7.345C354.371,421.659,351.637,425.791,351.637,425.791z"/>
		<path style="fill:#99B6FF;" d="M352.302,144.642c0,0,12.334,5.057,18.369,19.068c6.035,14.011,16.807,50.35,16.807,50.35
			l-42.866,21.41l-11.704-32.111c0,0-6.632-6.701-7.553-17.072s7.675-27.604,7.675-27.604L352.302,144.642z"/>
		<path style="fill:#FF8D6A;" d="M355.655,115.891c-2.092-1.308-4.175-0.499-5.664,0.534c1.458-7.004,1.502-14.996-3.04-19.895
			c-7.884-8.501-26.586-5.666-30.437,18.145l-5.976,3.361c-0.794,0.72-0.786,1.971,0.017,2.681l3.535,3.125
			c0,0-1.069,10.953,7,14.539c8.069,3.586,21.479-3.949,24.651-9.736c0.212-0.387,0.437-0.831,0.668-1.319
			c0.939,0.637,2.446,1.322,4.348,1.016C354.058,127.808,360.784,119.098,355.655,115.891z"/>
		<path style="fill:#2F374F;" d="M322.41,108.43c-1.043-0.667,1.688-2.995,4.439-1.53c2.38,1.267,3.756,4.514,3.756,4.514
			S323.744,109.283,322.41,108.43z"/>
		<path style="fill:#2F374F;" d="M324.023,114.957c-0.046,1.214-0.746,2.174-1.564,2.143c-0.818-0.031-1.444-1.04-1.398-2.255
			c0.046-1.214,0.746-2.174,1.564-2.143C323.443,112.733,324.068,113.743,324.023,114.957z"/>
		<path style="fill:#FF8D6A;" d="M333.823,137.629l3.007,11.927l13.131-6.643c0,0-3.843-11.037-3.552-15.589L333.823,137.629z"/>
		<path style="fill:#2F374F;" d="M322.61,113.087c0,0-1.096-1.217-1.261-1.907c-0.165-0.69-0.639,0.32-0.195,1.196
			c0.444,0.876,0.964,0.912,0.964,0.912L322.61,113.087z"/>
		<g>
			<polygon style="fill:#9C897A;" points="312.24,159.27 305.732,227.034 303.932,245.739 230.064,238.952 236.82,151.387 
				236.841,151.128 			"/>
			<path style="fill:#8E7B6E;" d="M305.732,227.034l-1.8,18.705l-73.868-6.787l6.756-87.566
				c2.379,10.739,12.88,52.628,34.327,67.526C285.155,228.638,297.601,228.751,305.732,227.034z"/>
			<polygon style="fill:#BF7B21;" points="233.788,190.679 308.643,196.721 308.239,208.416 233.039,200.394 			"/>
			<polygon style="fill:#DC911B;" points="267.954,154.186 261.69,241.858 272.442,242.846 278.054,155.578 			"/>
			<polygon style="fill:#B5A091;" points="286.751,159.504 286.182,165.468 292.239,165.994 292.643,160.079 			"/>
			<polygon style="fill:#B5A091;" points="294.004,160.411 293.436,166.374 299.492,166.901 299.897,160.985 			"/>
			<polygon style="fill:#B5A091;" points="301.258,161.318 300.69,167.281 306.746,167.808 307.15,161.892 			"/>
		</g>
		<path style="fill:#B25F4F;" d="M354.768,117.662c-1.413-0.787-4.49,0.487-5.502,3.402c0,0,0.682,0.395,0.521,1.414
			c-0.161,1.019-1.516,1.05-1.832,1.818c-0.316,0.768,1.407,1.858,2.517,0.71c1.11-1.148-0.143-3.82,0.701-4.445
			c0.844-0.625,1.702-2.171,2.558-2.016c0.856,0.155,0.262,3.394,0.907,2.598C355.282,120.348,355.2,117.903,354.768,117.662z"/>
		<path style="fill:#B25F4F;" d="M333.823,137.629c0,0,6.186-3.049,8.37-5.345s-0.901,5.538-7.504,8.779L333.823,137.629z"/>
		<path style="fill:#FF8D6A;" d="M336.83,149.556c0,0-5.459,10.815-4.709,12.593c0.749,1.779,20.181-17.507,20.181-17.507
			l-2.341-1.729C349.961,142.913,340.176,142.233,336.83,149.556z"/>
		<polygon style="fill:#3D4566;" points="387.478,214.061 343.882,233.467 345.51,239.224 389.611,219.884 		"/>
		<path style="fill:#4570B4;" d="M345.51,239.224l2.013,11.889c0,0-13.36,32.312-22.082,63.487
			c-8.723,31.174,29.592,93.222,29.592,93.222l28.526-2.358l-16.764-80.555c0,0,36.467-63.819,32.207-81.372
			c-4.261-17.553-9.391-23.653-9.391-23.653L345.51,239.224z"/>
		<path style="fill:#B6CEFF;" d="M342.926,166.107l-11.519,35.445l28.935,6.369l6.268-35.931
			c1.166-6.683-3.329-13.038-10.019-14.165l0,0C350.614,156.819,344.8,160.342,342.926,166.107z"/>
		<path style="fill:#FF8D6A;" d="M355.033,206.752l-6.58,17.484c-1.562,4.128-5.835,6.57-10.18,5.814l-45.045-8.556l-4.697-0.89
			c0,0-15.643,1.221-16.822,0.476c-1.179-0.735-1.842-2.659-1.842-2.659s-1.117-0.734-1.479-1.407
			c-0.372-0.662-0.372-1.624-0.372-1.624s-0.817-1.18-0.962-1.997c-0.145-0.807,0.228-2.876,0.228-2.876s-0.445-0.745-0.817-1.552
			c-0.321-0.693-1.117-2.514-0.476-3.031c0.114-0.093,0.269-0.145,0.476-0.145c1.407,0,5.028,5.535,5.028,5.535l8.587-1.697v-1.697
			c0,0-6.89-0.59-7.552-0.745c-0.672-0.145-1.707-1.179-1.262-1.769c0.445-0.59,5.99-1.179,8.649-0.89
			c2.659,0.3,9.083,3.755,9.083,3.755l5.256,0.445l38.62,3.269l1.583-6.807l0.662-2.824L355.033,206.752z"/>
		<path style="fill:#4570B4;" d="M293.611,219.798c-1.831-0.352-2.907-0.559-2.907-0.559c-0.745-0.962,0.186-4.293-0.745-4.138
			c-0.921,0.145-0.693,4.5-1.986,4.169c-1.293-0.331-9.797,1.697-13.118,1.293c-3.331-0.404-3.29-1.769-4.842-3.435
			c-1.552-1.666-1.003-6.952-2.111-7.687c-0.807-0.548-1.748-2.286-1.914-3.507c0.114-0.093,0.269-0.145,0.476-0.145
			c1.407,0,5.028,5.535,5.028,5.535l8.587-1.697v-1.697c0,0-6.89-0.59-7.552-0.745c-0.672-0.145-1.707-1.179-1.262-1.769
			c0.445-0.59,5.99-1.179,8.649-0.89c2.659,0.3,9.083,3.755,9.083,3.755l5.256,0.445
			C294.345,210.818,294.418,215.598,293.611,219.798z"/>
		<path style="fill:#B25F4F;" d="M333.082,214.061c0,0,4.212,8.426,5.099,8.204C339.068,222.043,336.519,214.392,333.082,214.061z"
			/>
		<path style="fill:#2F5791;" d="M267.572,211.07c0,0,1.626,2.697,2.549,3.178c0.924,0.48-1.626,0.554-2.143-0.776
			S267.572,211.07,267.572,211.07z"/>
		<path style="fill:#2F5791;" d="M293.611,219.798c-0.114,0.579-0.238,1.148-0.383,1.697l-4.697-0.89c0,0-15.643,1.221-16.822,0.476
			c-1.179-0.735-1.842-2.659-1.842-2.659s-1.117-0.734-1.479-1.407c-0.372-0.662-0.372-1.624-0.372-1.624s-0.817-1.18-0.962-1.997
			c-0.145-0.807,0.228-2.876,0.228-2.876s-0.445-0.745-0.817-1.552c-0.321-0.693-1.117-2.514-0.476-3.031
			c0.165,1.221,1.107,2.959,1.914,3.507c1.107,0.734,0.559,6.021,2.111,7.687c1.552,1.666,1.51,3.031,4.842,3.435
			c3.321,0.403,11.825-1.624,13.118-1.293c1.293,0.331,1.066-4.025,1.986-4.169c0.931-0.155,0,3.176,0.745,4.138
			C290.703,219.24,291.779,219.447,293.611,219.798z"/>
		<path style="fill:#B25F4F;" d="M355.033,206.752l-6.58,17.484c-1.562,4.128-5.835,6.57-10.18,5.814l-45.045-8.556
			c0.145-0.548,0.269-1.117,0.383-1.697c10.066,1.924,43.059,8.101,47.559,7.345c5.328-0.89,9.311-16.522,8.876-17.846
			c-0.445-1.334-15.591-4.107-15.591-4.107l0.662-2.824L355.033,206.752z"/>
		<path style="fill:#2F5791;" d="M271.161,205.695c0,0,1.205,0.608,4.696,0.996c3.492,0.388,5.127,0.305,5.653,0.443
			c0.527,0.138-1.432,2.494-1.432,2.494v-1.697C280.078,207.932,270.816,208.523,271.161,205.695z"/>
		<path style="fill:#3D4566;" d="M334.967,105.1c0,0,1.225,7.126,3.993,10.214c2.768,3.088,5.096,3.088,5.096,3.088
			s-0.443,4.323,0.554,4.988c0.998,0.665,4.568-7.95,7.827-8.076c3.258-0.127,4.691,2.09,5.083,3.642c0,0,2.831-5.764,2.72-11.971
			c-0.111-6.207-3.834-11.895-12.323-15.408c-8.489-3.513-19.817-2.492-25.307,5.405L334.967,105.1z"/>
		<path style="fill:#99B6FF;" d="M358.494,117.432c0,0-7.13-1.81-14.71-5.27c-7.59-3.46-21.6-14.69-21.6-14.69s3.24-8.96,16.81-9.44
			c0.57-0.02,1.13-0.03,1.67-0.01c12.31,0.17,16.86,7.38,19.58,12.53C363.074,105.932,358.494,117.432,358.494,117.432z"/>
		<path style="fill:#4570B4;" d="M339.068,110.951c0,0-35.803-11.06-40.681-17.822c-4.877-6.762,22.317,3.325,23.795,3.658
			c1.478,0.333,18.659,13.697,20.1,14.164C343.724,111.419,342.263,111.65,339.068,110.951z"/>
		<path style="fill:#FFFFFF;" d="M339.548,132.738c-4.982,1.727-10.069,1.574-11.05,1.525c0.749-3.489,0.739-7.416,0.666-9.449
			l17.868-4.206l1.239-1.809c0,0-14.433,4.024-19.382,4.576l-18.712-4.881c-0.845,3.306,2.619,5.895,2.619,5.895
			s-0.222,7.981,3.769,12.078c3.991,4.097,9.827,2.844,9.827,2.844c0.827-1.023,1.415-2.409,1.833-3.937
			c1.098,0.055,6.729,0.232,12.083-1.526c5.963-1.958,6.977-6.019,6.977-6.019l-0.878-0.503
			C346.408,127.325,345.091,130.817,339.548,132.738z"/>
		<polygon style="fill:#2F5791;" points="324.13,169.576 333.734,172.236 329.197,186.572 320.926,184.651 		"/>
		<path style="fill:none;stroke:#2F5791;stroke-miterlimit:10;" d="M329.197,171.608c0,0,19.463-21.364,20.764-28.695"/>
		<line style="fill:none;stroke:#2F5791;stroke-miterlimit:10;" x1="336.83" y1="149.556" x2="328.02" y2="170.976"/>
		<path style="fill:#2F5791;" d="M350.637,249.636c0,0,15.568-10.027,17.547-12.401C370.163,234.86,353.54,241.061,350.637,249.636z
			"/>
		<path style="fill:#2F5791;" d="M363.756,323.913c0,0-15.436-6.167-17.019-3.182c-1.583,2.984,13.457,3.96,13.457,3.96
			s-12.591,3.51-9.424,4.895C353.936,330.971,367.111,325.156,363.756,323.913z"/>
		<path style="fill:#2F5791;" d="M354.2,401.874c0,0,22.824-0.36,24.803-1.956C380.981,398.322,348.254,396.349,354.2,401.874z"/>
		<path style="fill:#99B6FF;" d="M335.721,198.563c0,0,20.56,4.836,21.989,4.836C359.138,203.399,342.732,194.727,335.721,198.563z"
			/>
		<path style="fill:#B6CEFF;" d="M343.784,112.162c-7.59-3.46-21.6-14.69-21.6-14.69s3.24-8.96,16.81-9.44
			c0.57-0.02,1.13-0.03,1.67-0.01C343.404,91.662,347.204,99.432,343.784,112.162z"/>
	</g>
	<g>
		<path style="fill:#FF8D6A;" d="M125.997,406.01c0,0-2.496,25.223-2.385,26.293c0.111,1.07,4.966,1.626,15.137,2.669
			c10.171,1.043,20.848,5.177,29.426,2.487c8.578-2.689-5.25-10.23-12.921-13.534c-7.672-3.304-9.881-6.094-9.881-6.094
			l0.327-10.013L125.997,406.01z"/>
		<path style="fill:#2D344C;" d="M154.767,422.874c0,0,3.606,2.486,10.661,5.254c7.056,2.768,6.892,4.679,6.914,6.642
			c0.023,1.964-10.477,4.807-21.875,3.882c-11.397-0.925-15.849-1.656-19.368-2.119c-3.519-0.464-7.955-0.827-9.188-2.37
			c-1.233-1.544,1.191-10.918,1.986-12.425c0.795-1.508,1.823-0.446,4.803,1.759c2.98,2.206,8.558,3.441,10.994,2.968
			c2.436-0.473,7.162-7.079,9.74-7.394S154.767,422.874,154.767,422.874z"/>
		<path style="fill:#025056;" d="M132.339,291.655l-4.877,66.951l-8.269,42.746c-0.729,3.771,1.827,7.391,5.625,7.965l23.774,3.594
			c3.957,0.598,7.564-2.355,7.76-6.352l2.842-58.151L132.339,291.655z"/>
		<path style="fill:#FF8D6A;" d="M164.263,413.734c0,0,1.921,25.273,2.217,26.308c0.296,1.035,5.173,0.739,15.371,0
			c10.198-0.739,21.43,1.478,29.411-2.66c7.981-4.138-6.946-9.163-15.075-11.085c-8.129-1.921-10.789-4.286-10.789-4.286
			l-1.182-8.276H164.263z"/>
		<path style="fill:#3D4566;" d="M195.524,425.346c0,0,3.983,1.822,11.412,3.323c7.429,1.501,7.6,3.411,7.963,5.341
			c0.363,1.93-9.483,6.553-20.868,7.621c-11.385,1.068-15.896,1.122-19.442,1.276s-7.978,0.567-9.46-0.739
			c-1.482-1.306-0.723-10.959-0.201-12.581c0.521-1.622,1.718-0.756,5.035,0.899s9.025,1.902,11.342,1.014
			c2.316-0.888,5.824-8.215,8.308-8.973C192.096,421.768,195.524,425.346,195.524,425.346z"/>
		<path style="fill:#FF8D6A;" d="M223.435,128.107c0.435-2.488,4.97-5.97,6.123-6.638c1.153-0.667,2.161-1.308,2.379-0.146
			c0.167,0.888-2.089,3.805-3.165,5.136l2.526-1.436l10.813,6.238l-7.351,7.502l-4.743,5.978l-8.009-7.42
			C222.007,137.323,223,130.595,223.435,128.107z"/>
		<path style="fill:#FF8D6A;" d="M231.647,142.455l-21.284,35.015c-3.52,5.329-9.856,8.075-16.152,7l-22.367-3.819l-1.045-22.533
			l23.661,7.359l28.687-30.094L231.647,142.455z"/>
		<polygon style="fill:#9DB0F4;" points="155.068,148.44 189.879,161.266 183.266,183.922 172.805,180.72 		"/>
		<path style="fill:#B25F4F;" d="M230.982,127.113c0,0-1.279,4.3-4.057,6.626s2.759-5.198,3.059-8.525L230.982,127.113z"/>
		<path style="fill:#C4C405;" d="M227.805,128.471c0,0,4.96-16.858,13.166-23.308c0,0,5.602,2.376,9.042,2.935
			c0,0-9.54,11.363-11.315,16.22L227.805,128.471z"/>
		<path style="fill:#A09C08;" d="M227.349,127.458c0,0-0.645-17.561,5.092-26.281c0,0,6.066,0.477,9.506-0.085
			c0,0-5.442,13.803-5.585,18.972L227.349,127.458z"/>
		<path style="fill:none;stroke:#F7EA3A;stroke-width:0.5;stroke-linecap:round;stroke-linejoin:round;stroke-miterlimit:10;" d="
			M228.222,123.251c0,0,1.266-13.294,4.931-18.891c0,0,4.847,0.025,6.707-0.412c0,0-4.65,10.873-5.414,15.87L228.222,123.251z"/>
		<path style="fill:#F7EA3A;" d="M234.775,111.902c0.533,0.74,0.15,1.926-0.855,2.649c-1.005,0.723-2.251,0.71-2.784-0.03
			c-0.533-0.74-0.15-1.926,0.855-2.649C232.997,111.149,234.243,111.162,234.775,111.902z"/>
		<path style="fill:#F7EA3A;" d="M234.523,103.906c0.354,0.492,0.1,1.28-0.568,1.761c-0.668,0.481-1.496,0.472-1.85-0.02
			c-0.354-0.492-0.1-1.28,0.568-1.761C233.341,103.406,234.169,103.414,234.523,103.906z"/>
		<path style="fill:#F7EA3A;" d="M239.923,103.566c0.354,0.492,0.1,1.28-0.568,1.761c-0.668,0.481-1.496,0.472-1.85-0.02
			c-0.354-0.492-0.099-1.28,0.568-1.761C238.74,103.065,239.569,103.074,239.923,103.566z"/>
		<path style="fill:#A09C08;" d="M227.536,127.979c0,0,8.714-15.26,18.187-19.643c0,0,4.903,3.604,8.121,4.941
			c0,0-11.903,8.857-14.751,13.173L227.536,127.979z"/>
		<path style="fill:none;stroke:#F7EA3A;stroke-width:0.5;stroke-linecap:round;stroke-linejoin:round;stroke-miterlimit:10;" d="
			M231.487,125.341c0,0,7.327-11.165,13.181-14.403c0,0,4.275,2.285,6.123,2.768c0,0-9.189,7.444-12.198,11.506L231.487,125.341z"/>
		<path style="fill:#F7EA3A;" d="M242.581,118.366c0.126,0.903-0.767,1.773-1.993,1.944c-1.226,0.17-2.322-0.424-2.447-1.326
			c-0.125-0.903,0.767-1.773,1.993-1.944C241.36,116.869,242.456,117.463,242.581,118.366z"/>
		<path style="fill:#F7EA3A;" d="M246.092,111.177c0.083,0.6-0.51,1.179-1.325,1.292c-0.815,0.113-1.543-0.282-1.627-0.882
			c-0.083-0.6,0.51-1.179,1.325-1.292C245.28,110.182,246.008,110.577,246.092,111.177z"/>
		<path style="fill:#F7EA3A;" d="M251.026,113.397c0.083,0.6-0.51,1.178-1.325,1.292c-0.815,0.113-1.543-0.282-1.627-0.882
			c-0.083-0.6,0.51-1.179,1.325-1.292C250.214,112.402,250.942,112.797,251.026,113.397z"/>
		<path style="fill:#DB765E;" d="M238.883,122.281c0,0-0.427-1.875-2.338-2.042c-1.911-0.168-6.745,1.717-7.549,3.447
			c-0.803,1.73,2.157,1.475,4.458,0.517C235.756,123.244,238.883,122.281,238.883,122.281z"/>
		<path style="fill:#DB765E;" d="M240.502,124.496c0,0,0.526-1.603-1.473-2.242c-2-0.64-7.156,2.132-8.073,3.056
			c-0.917,0.924-1.74,3.146-1.91,4.644c-0.17,1.498,0.593,1.956,2.022,0.56c1.43-1.396,2.401-3.233,2.401-3.233L240.502,124.496z"/>
		<path style="fill:#DB765E;" d="M241.966,127.492c0,0,0.097-1.484-0.443-2.36c-0.54-0.876-1.021-0.635-1.021-0.635
			s-6.278,2.005-7.034,2.786c-0.756,0.781-2.961,3.451-2.764,5.105c0.198,1.655,2.946-0.327,3.681-1.217
			c0.735-0.89,1.082-1.444,1.082-1.444L241.966,127.492z"/>
		<path style="fill:#DB765E;" d="M242.11,131.262c0,0,1.026-1.546,0.583-2.703c-0.443-1.157-0.876-1.264-1.811-1.239
			c-0.935,0.025-4.92,1.525-5.833,2.223c-0.913,0.698-1.77,3.34-1.606,4.211c0.163,0.871,1.9,0.508,2.687-0.504
			c0.787-1.012,1.148-1.494,1.148-1.494L242.11,131.262z"/>
		<path style="fill:#B25F4F;" d="M231.745,124.711c0,0,3.619-2.164,6.732-2.547c0,0-1.001-0.521-2.96,0.006
			C233.557,122.698,231.745,124.711,231.745,124.711z"/>
		<path style="fill:#B25F4F;" d="M231.298,130.242c0,0,1.732-2.815,2.509-3.204c0.777-0.389,6.248-2.467,6.248-2.467
			s-4.224,0.181-6.76,1.841C230.76,128.072,231.298,130.242,231.298,130.242z"/>
		<path style="fill:#B25F4F;" d="M232.817,134.228c0,0-1.134,0.269-2.904,1.955c-1.77,1.686-1.763,2.925-1.484,3.211
			c0.279,0.286,1.522-1.808,2.72-2.935C232.347,135.331,232.817,134.228,232.817,134.228z"/>
		<path style="fill:#8897E2;" d="M172.463,190.567l-1.45,35.629l-0.249,6.049l-42.269-2.059c0,0-3.62-50.082-3.713-65.339
			c-0.092-15.257,13.215-24.187,13.215-24.187l4.313,1.967l12.754,5.809c0,0,13.64,12.301,16.956,22.174
			C175.335,180.482,172.463,190.567,172.463,190.567z"/>
		<path style="fill:#B25F4F;" d="M234.434,131.393c0,0,0.368-1.421,1.107-1.922c0.738-0.501,5.507-2.089,5.507-2.089
			s-3.29,0.136-5.173,1.041C233.992,129.328,234.434,131.393,234.434,131.393z"/>
		<path style="fill:#BF7B21;" d="M121.911,95.432c0,0-1.593,12.149-6.692,16.761c-5.099,4.612-7.18,4.062-7.18,4.062l5.372,3.911
			c0,0,3.121-1.568,6.715-6.713c3.594-5.145,4.657-16.468,4.657-16.468L121.911,95.432z"/>
		<path style="fill:#3D4566;" d="M132.993,83.972c0,0,0.181-10.707-9.496-12.072c-9.676-1.364-17.374,10.742-13.771,19.094
			c3.603,8.352,13.763,5.861,13.763,5.861L132.993,83.972z"/>
		<path style="fill:#DC911B;" d="M134.194,83.638c0,0-3.586,0.512-6.991,4.545c-3.405,4.033-2.313,9.313-2.313,9.313L134.194,83.638
			z"/>
		<path style="fill:#FF8D6A;" d="M134.251,111.955c2.074-1.337,4.168-0.556,5.671,0.457c-1.553-6.983-1.706-14.974,2.77-19.934
			c7.767-8.607,26.507-6.026,30.68,17.73l6.021,3.279c0.803,0.709,0.812,1.96,0.019,2.681l-3.492,3.173
			c0,0,1.218,10.937-6.802,14.632c-8.019,3.695-21.531-3.657-24.781-9.4c-0.217-0.384-0.448-0.825-0.686-1.31
			c-0.93,0.649-2.428,1.355-4.333,1.075C136.011,123.85,129.167,115.232,134.251,111.955z"/>
		<path style="fill:#3D4566;" d="M164.966,94.619l-14.34,6.372c0,0,5.702,13.006-4.476,15.17c0,0,1.173,3.661-0.546,4.297
			c0,0-3.318-6.987-5.683-8.045c-2.365-1.058-5.2-1.415-6.314,0.35c-1.113,1.765-0.219,5.859,2.746,8.717
			c2.965,2.858,7.298,1.783,7.298,1.783l2.389,3.55l-3.574,9.289c0,0-17.438-13.494-19.258-27.629
			c-1.82-14.135,5.377-16.803,5.377-16.803s3.907-13.444,17.662-14.15c13.755-0.706,21.749,5.78,21.749,5.78
			s6.033-4.469,11.166-2.324c5.133,2.145,4.537,9.727,2.639,11.138c0,0,5.106,1.72,3.197,6.841
			C182.69,105.147,169.19,106.551,164.966,94.619z"/>
		<path style="fill:#DC911B;" d="M126.202,92.667c0,0-5.187-0.309-9.052,2.763c-3.865,3.071-9.663,14.861-14.809,12.17l2.397,5.131
			c0,0,7.301-1.688,10.96-8.771c3.659-7.083,8.191-6.413,8.191-6.413L126.202,92.667z"/>
		<path style="fill:#2F374F;" d="M167.393,104.044c1.034-0.681-1.728-2.972-4.459-1.469c-2.363,1.299-3.694,4.565-3.694,4.565
			S166.07,104.915,167.393,104.044z"/>
		<path style="fill:#2F374F;" d="M165.868,110.592c0.062,1.214,0.775,2.164,1.593,2.122c0.818-0.042,1.43-1.06,1.368-2.273
			c-0.062-1.214-0.775-2.164-1.593-2.122C166.418,108.361,165.806,109.379,165.868,110.592z"/>
		<path style="fill:#FF8D6A;" d="M156.376,133.395l-2.845,11.967l-13.219-6.464c0,0,3.693-11.088,3.34-15.636L156.376,133.395z"/>
		<path style="fill:#2F374F;" d="M167.255,108.703c0,0,1.079-1.232,1.235-1.924c0.156-0.692,0.643,0.311,0.212,1.193
			c-0.432,0.882-0.951,0.924-0.951,0.924L167.255,108.703z"/>
		<path style="fill:#B25F4F;" d="M135.162,113.715c1.402-0.807,4.496,0.426,5.548,3.327c0,0-0.677,0.404-0.502,1.421
			c0.175,1.017,1.531,1.03,1.857,1.793c0.327,0.763-1.381,1.877-2.507,0.744c-1.125-1.133,0.091-3.822-0.761-4.435
			c-0.852-0.613-1.732-2.148-2.585-1.981c-0.853,0.167-0.216,3.397-0.872,2.61C134.685,116.407,134.734,113.961,135.162,113.715z"/>
		<path style="fill:#B25F4F;" d="M156.376,133.395c0,0-6.227-2.964-8.441-5.231c-2.215-2.267,0.976,5.525,7.622,8.677
			L156.376,133.395z"/>
		<path style="fill:#FF8D6A;" d="M153.532,145.362c0,0,5.605,10.74,4.88,12.528c-0.725,1.788-20.417-17.231-20.417-17.231
			l2.318-1.761C140.312,138.898,150.087,138.085,153.532,145.362z"/>
		<path style="fill:#6E82CC;" d="M171.013,226.196l-0.249,6.049l-42.269-2.059c0,0-3.62-50.082-3.713-65.339
			c-0.092-15.257,13.215-24.187,13.215-24.187l4.11,3.906c0,0-10.362,19.385-7.914,48.512
			C136.252,217.488,162.554,224.552,171.013,226.196z"/>
		<path style="fill:#FFFFFF;" d="M179.869,114.438l-18.712,4.881c-4.948-0.552-18.916-4.612-18.916-4.612l1.239,1.809l17.402,4.242
			c-0.073,2.033-0.083,5.961,0.666,9.449c-0.98,0.049-6.068,0.202-11.05-1.525c-5.542-1.921-6.86-5.413-6.86-5.413l-0.878,0.503
			c0,0,1.013,4.06,6.977,6.019c5.354,1.758,10.984,1.581,12.083,1.526c0.418,1.528,1.006,2.914,1.833,3.937
			c0,0,5.837,1.253,9.827-2.844c3.99-4.097,3.769-12.078,3.769-12.078S180.715,117.744,179.869,114.438z"/>
		<path style="fill:#FF8D6A;" d="M149.202,204.16l11.372,11.262c2.515,2.49,5.976,3.784,9.508,3.553l54.148-6.44l1.367-12.217
			l-50.694,2.051l-8.572-9.293L149.202,204.16z"/>
		<path style="fill:#FF8D6A;" d="M249.244,205.452c-1.74,1.61-2.74,1.94-2.74,1.94s-0.53,2.61-1.2,2.98
			c-0.67,0.36-2.34,0.9-2.34,0.9s-1.22,2.38-2.41,2.67c-5.92,1.46-17.19-1.18-17.19-1.18l1.46-12.14c0,0,4.09-2.93,5.9-3.46
			c1.8-0.54,8.42-2.88,9.63-2.41c0.23,0.09,0.36,0.23,0.42,0.4c0.25,0.71-0.85,1.99-1.83,2.48c-1.2,0.6-4.88,1.6-4.88,1.6
			l-0.47,1.47c0,0,6.42-0.4,8.16-0.8c1.39-0.32,4.11-2.57,5.93-3.04c0.45-0.12,0.85-0.13,1.16,0.03c1.54,0.8-1.4,3.95-2.67,4.68
			c-1.27,0.74-3.61,1.81-3.61,1.81s0.09,0.01,0.24,0.02c0.78,0.07,3.23,0.26,3.57-0.02c0.35-0.29,2.63-3.07,3.9-3.56
			c0.2-0.09,0.37-0.11,0.51-0.05C251.784,200.172,250.984,203.852,249.244,205.452z"/>
		<path style="fill:#00697F;" d="M187.331,413.392l-24.177,2.106c-4.1,0.351-7.758-2.567-8.312-6.64l-7.61-55.568
			c0,0-20.659-57.646-22.783-74.934c-2.115-17.297,4.045-48.17,4.045-48.17l42.269,2.059l-0.166,22.607
			c0,0,8.367,42.445,12.588,64.849c1.339,7.102,2.253,12.19,2.364,13.28c0.092,0.979,0.6,5.218,1.33,11.276
			c1.995,16.448,5.68,46.305,7.443,60.518C194.858,409.107,191.681,413.013,187.331,413.392z"/>
		<path style="fill:#9DB0F4;" d="M147.505,162.112l24.77,27.848l-23.95,17.441l-20.155-30.399
			c-3.749-5.654-2.18-13.279,3.496-16.995l0,0C136.737,156.686,143.476,157.582,147.505,162.112z"/>
		<path style="fill:#025056;" d="M167.254,252.011c0,0-8.312-8.18-12.929-10.027S158.019,248.713,167.254,252.011z"/>
		<path style="fill:#025056;" d="M148.784,352.322c0,0,8.444-8.751,11.61-7.564c3.166,1.187-7.124,7.564-7.124,7.564
			s10.85-0.58,9.103,2.067C159.194,359.206,148.784,352.322,148.784,352.322z"/>
		<path style="fill:#025056;" d="M130.182,235.652c0,0,35.885,1.847,37.864,0.923C170.025,235.652,125.564,232.485,130.182,235.652z
			"/>
		<path style="fill:#025056;" d="M186.879,344.258c-1.708-0.443-3.971-1.681-6.936-4.285c-10.316-9.069-0.896-23.319,3.232-20.28
			c0,0,0.009,0,0.009,0.009c1.339,7.102,2.253,12.19,2.364,13.28C185.641,333.961,186.149,338.2,186.879,344.258z"/>
		<path style="fill:#8298D8;" d="M150.499,200.163c0,0,18.602-9.499,18.206-11.214C168.31,187.233,155.645,192.906,150.499,200.163z
			"/>
		<path style="fill:#B25F4F;" d="M162.924,215.042l9.55,0.429c0,0-2.621,2.786-5.693,1.857
			C163.709,216.399,162.924,215.042,162.924,215.042z"/>
		<path style="fill:#B25F4F;" d="M245.674,207.524l-5.571,0.75c0,0,1.232,0.984,2.786,0.572
			C244.442,208.435,245.674,207.524,245.674,207.524z"/>
		<path style="fill:#B25F4F;" d="M242.084,211.167l-3.536,0.375c0,0,0.643,1.018,1.554,0.857
			C241.013,212.238,242.084,211.167,242.084,211.167z"/>
		<path style="fill:#B25F4F;" d="M194.281,166.181l1.214,9.146C195.495,175.327,199.675,167.697,194.281,166.181z"/>
		<path style="fill:#B25F4F;" d="M250.274,199.822c-0.08,0.2-1.36,3.19-2.71,4.26c-1.39,1.1-6.93,0.42-6.96,0.28
			c0-0.15,2.11-0.93,2.11-0.93s0.03-0.01,0.09-0.03c0.78,0.07,3.23,0.26,3.57-0.02C246.724,203.092,249.004,200.312,250.274,199.822
			z"/>
		<path style="fill:#B25F4F;" d="M247.684,196.862c-0.71,0.94-2.27,2.86-3.62,3.54c-1.82,0.91-9.16,1.55-11.09,1.23
			c-1.93-0.32-1.01-2.39-0.53-2.61c0.45-0.22,6.79-1.6,8.33-3.87c0.25,0.71-0.85,1.99-1.83,2.48c-1.2,0.6-4.88,1.6-4.88,1.6
			l-0.47,1.47c0,0,6.42-0.4,8.16-0.8C243.144,199.582,245.864,197.332,247.684,196.862z"/>
	</g>
</g>
</svg>
