<?xml version="1.0" encoding="utf-8"?>
<!-- Generator: Adobe Illustrator 27.5.0, SVG Export Plug-In . SVG Version: 6.00 Build 0)  -->
<svg version="1.1" xmlns="http://www.w3.org/2000/svg" xmlns:xlink="http://www.w3.org/1999/xlink" x="0px" y="0px"
	 viewBox="0 0 500 500" style="enable-background:new 0 0 500 500;" xml:space="preserve">
<g id="Background_complete">
	<g>
		<g>
			<g>
				<g>
					<path style="fill:#E0E0E0;" d="M443.92,318.392H263.174c-3.232,0-5.862-2.63-5.862-5.862V49.256
						c0-3.232,2.63-5.862,5.862-5.862H443.92c3.232,0,5.862,2.629,5.862,5.862V312.53
						C449.783,315.762,447.153,318.392,443.92,318.392z M263.174,43.645c-3.095,0-5.612,2.518-5.612,5.612V312.53
						c0,3.095,2.518,5.612,5.612,5.612H443.92c3.095,0,5.612-2.517,5.612-5.612V49.256c0-3.094-2.518-5.612-5.612-5.612H263.174z"/>
				</g>
			</g>
			<g>
				<g>
					<path style="fill:#E0E0E0;" d="M235.493,318.392H54.746c-3.232,0-5.862-2.63-5.862-5.862V49.256
						c0-3.232,2.629-5.862,5.862-5.862h180.747c3.232,0,5.862,2.629,5.862,5.862V312.53
						C241.355,315.762,238.725,318.392,235.493,318.392z M54.746,43.645c-3.094,0-5.612,2.518-5.612,5.612V312.53
						c0,3.095,2.518,5.612,5.612,5.612h180.747c3.095,0,5.612-2.517,5.612-5.612V49.256c0-3.094-2.518-5.612-5.612-5.612H54.746z"/>
				</g>
			</g>
		</g>
		<g>
			<g>
				<g>
					<rect x="0" y="403.461" style="fill:#E0E0E0;" width="500" height="0.25"/>
				</g>
			</g>
			<rect x="51.672" y="417.726" style="fill:#E0E0E0;" width="16.06" height="0.25"/>
			<rect x="170.352" y="415.016" style="fill:#E0E0E0;" width="53.53" height="0.25"/>
			<rect x="68.732" y="427.016" style="fill:#E0E0E0;" width="36.25" height="0.25"/>
			<rect x="378.352" y="414.886" style="fill:#E0E0E0;" width="43.19" height="0.25"/>
			<rect x="430.452" y="414.886" style="fill:#E0E0E0;" width="6.33" height="0.25"/>
			<rect x="316.212" y="421.116" style="fill:#E0E0E0;" width="53.89" height="0.25"/>
		</g>
	</g>
	<g>
		<rect x="392.091" y="204.478" style="fill:#F5F5F5;" width="57.038" height="20.474"/>
		<rect x="418.105" y="183.909" style="fill:#EBEBEB;" width="57.038" height="20.474"/>
	</g>
	<g>
		<rect x="207.469" y="372.357" style="fill:#F5F5F5;" width="57.038" height="20.474"/>
		<rect x="233.482" y="351.788" style="fill:#EBEBEB;" width="57.038" height="20.474"/>
	</g>
	<rect x="236.526" y="74.842" style="fill:#F5F5F5;" width="57.038" height="20.474"/>
	<rect x="163.352" y="164.233" style="fill:#EBEBEB;" width="57.038" height="20.474"/>
	<rect x="306.917" y="277.323" style="fill:#F0F0F0;" width="57.038" height="20.474"/>
	<rect x="64.123" y="114.16" style="fill:#F5F5F5;" width="57.038" height="20.474"/>
	<rect x="90.136" y="93.592" style="fill:#EBEBEB;" width="57.038" height="20.474"/>
	<rect x="58.338" y="254.129" style="fill:#EBEBEB;" width="57.038" height="20.474"/>
	<rect x="366.168" y="85.079" style="fill:#F0F0F0;" width="57.038" height="20.474"/>
</g>
<g id="Background_simple" style="display:none;">
	<g style="display:inline;">
		<path style="fill:#407BFF;" d="M442.974,155.82c-5.017-14.022-15.697-27.544-32.451-39.536
			c-19.746-14.134-50.507-28.576-90.742-24.311c-74.281,7.875-75.633,45.652-125.578,38.109
			c-56.573-8.544-122.934-2.814-141.388,35.523c-35.051,72.817,170.037,160.841,282.731,136.119
			C405.704,286.333,469.611,230.274,442.974,155.82z"/>
		<path style="opacity:0.9;fill:#FFFFFF;" d="M442.974,155.82c-5.017-14.022-15.697-27.544-32.451-39.536
			c-19.746-14.134-50.507-28.576-90.742-24.311c-74.281,7.875-75.633,45.652-125.578,38.109
			c-56.573-8.544-122.934-2.814-141.388,35.523c-35.051,72.817,170.037,160.841,282.731,136.119
			C405.704,286.333,469.611,230.274,442.974,155.82z"/>
	</g>
</g>
<g id="Shadow">
	<g>
		<g>
			<path style="fill:#F5F5F5;" d="M458.875,452.146c0,5.459-93.517,9.884-208.875,9.884s-208.875-4.425-208.875-9.884
				c0-5.459,93.516-9.884,208.875-9.884S458.875,446.687,458.875,452.146z"/>
		</g>
	</g>
</g>
<g id="Lamp_1">
	<g>
		<g>
			<g>
				<path style="fill:#263238;" d="M123.331,274.704c0-29.99,0-59.979,0-89.969c0-29.823,0-59.646,0-89.469
					c0-16.828,0-33.655,0-50.483c0-0.965-1.5-0.967-1.5,0c0,29.99,0,59.979,0,89.969c0,29.823,0,59.646,0,89.469
					c0,16.827,0,33.655,0,50.483C121.831,275.669,123.331,275.671,123.331,274.704L123.331,274.704z"/>
			</g>
		</g>
		<g>
			<g>
				<ellipse style="fill:#407BFF;" cx="123.917" cy="369.695" rx="91.457" ry="5.754"/>
				<ellipse style="opacity:0.3;" cx="123.917" cy="369.695" rx="91.457" ry="5.754"/>
			</g>
			<path style="opacity:0.2;fill:#407BFF;" d="M91.213,364.378c0,0,2.038,8.26,10.149,11.072h46.019c0,0,5.818-3.905,6.524-11.072
				l-24.191-12.59L91.213,364.378z"/>
			<g>
				<g>
					<g>
						<g>
							<g>
								<path style="fill:#407BFF;" d="M123.711,374.671c6.741,0.079,12.27-5.321,12.349-12.062
									c0.043-3.658-1.557-7.142-4.359-9.494c-0.516-0.425-1.303-0.94-1.286-2.006c0.001-0.033-0.054-2.667-0.054-2.667h-12.839
									c0,0-0.054,2.738-0.054,2.769c0,0.939-0.727,1.344-1.262,1.767c-2.84,2.277-4.512,5.705-4.557,9.345
									C111.569,369.063,116.97,374.591,123.711,374.671z"/>
								<path style="opacity:0.4;fill:#FFFFFF;" d="M123.711,374.671c6.741,0.079,12.27-5.321,12.349-12.062
									c0.043-3.658-1.557-7.142-4.359-9.494c-0.516-0.425-1.303-0.94-1.286-2.006c0.001-0.033-0.054-2.667-0.054-2.667h-12.839
									c0,0-0.054,2.738-0.054,2.769c0,0.939-0.727,1.344-1.262,1.767c-2.84,2.277-4.512,5.705-4.557,9.345
									C111.569,369.063,116.97,374.591,123.711,374.671z"/>
								<path style="opacity:0.2;fill:#FFFFFF;enable-background:new    ;" d="M117.643,369.41c0-2.376,2.781-4.308,6.23-4.308
									c3.449,0,6.23,1.931,6.23,4.308c0,2.376-2.781,4.312-6.23,4.312C120.424,373.723,117.643,371.791,117.643,369.41z"/>
							</g>
							<path style="fill:none;stroke:#FFFFFF;stroke-width:0.5;stroke-miterlimit:10;" d="M133.155,357.825
								c1.062,1.822,1.484,4.008,1.176,6.094c-0.308,2.086-1.344,4.057-2.887,5.494"/>
							<g>
								<g>
									<path style="fill:#263238;" d="M126.132,351.009c-0.492,1.709-0.779,3.474-0.845,5.252
										c-0.063,1.682-0.029,3.561,0.444,5.191c0.145,0.5,0.436,1.076,1.01,1.148c0.572,0.072,0.965-0.401,1.152-0.887
										c0.526-1.371-0.021-3.023-0.788-4.19c-0.73-1.111-1.922-2.395-3.358-2.401c-1.441-0.006-2.617,1.242-3.227,2.436
										c-0.654,1.281-0.929,2.947-0.431,4.33c0.383,1.062,1.647,1.976,2.478,0.747c0.469-0.694,0.348-1.569,0.244-2.351
										c-0.139-1.047-0.316-2.088-0.532-3.121c-0.439-2.092-1.042-4.144-1.795-6.144c-0.168-0.448-0.894-0.254-0.723,0.199
										c0.949,2.521,1.657,5.127,2.104,7.784c0.108,0.643,0.222,1.293,0.275,1.942c0.035,0.425-0.045,1.965-0.849,1.442
										c-0.913-0.594-0.764-2.376-0.554-3.262c0.27-1.136,0.922-2.31,1.948-2.926c1.207-0.725,2.314-0.01,3.153,0.91
										c0.798,0.875,1.42,2.012,1.488,3.213c0.015,0.272-0.063,1.797-0.593,1.466c-0.405-0.253-0.433-1.265-0.493-1.671
										c-0.444-2.969-0.216-6.025,0.614-8.906C126.989,350.743,126.266,350.545,126.132,351.009L126.132,351.009z"/>
								</g>
							</g>
						</g>
					</g>
					<path style="fill:#263238;" d="M116.693,347.666h14.429c0.354,0,0.641,0.287,0.641,0.641v0.268
						c0,0.354-0.287,0.641-0.641,0.641h-14.429c-0.354,0-0.641-0.287-0.641-0.641v-0.268
						C116.052,347.953,116.339,347.666,116.693,347.666z"/>
					<path style="opacity:0.3;fill:#FFFFFF;" d="M116.693,347.666h14.429c0.354,0,0.641,0.287,0.641,0.641v0.268
						c0,0.354-0.287,0.641-0.641,0.641h-14.429c-0.354,0-0.641-0.287-0.641-0.641v-0.268
						C116.052,347.953,116.339,347.666,116.693,347.666z"/>
					<path style="fill:#263238;" d="M116.927,346.306h13.962c0.342,0,0.62,0.277,0.62,0.62v0.259c0,0.342-0.278,0.62-0.62,0.62
						h-13.962c-0.342,0-0.62-0.277-0.62-0.62v-0.259C116.307,346.584,116.584,346.306,116.927,346.306z"/>
					<path style="opacity:0.3;fill:#FFFFFF;" d="M116.927,346.306h13.962c0.342,0,0.62,0.277,0.62,0.62v0.259
						c0,0.342-0.278,0.62-0.62,0.62h-13.962c-0.342,0-0.62-0.277-0.62-0.62v-0.259C116.307,346.584,116.584,346.306,116.927,346.306
						z"/>
					<path style="fill:#263238;" d="M117.855,343.603h12.106c0.342,0,0.62,0.278,0.62,0.62v0.26c0,0.342-0.277,0.62-0.62,0.62
						h-12.106c-0.342,0-0.62-0.278-0.62-0.62v-0.26C117.235,343.881,117.512,343.603,117.855,343.603z"/>
					<path style="opacity:0.3;fill:#FFFFFF;" d="M117.855,343.603h12.106c0.342,0,0.62,0.278,0.62,0.62v0.26
						c0,0.342-0.277,0.62-0.62,0.62h-12.106c-0.342,0-0.62-0.278-0.62-0.62v-0.26C117.235,343.881,117.512,343.603,117.855,343.603z
						"/>
					<path style="fill:#263238;" d="M117.132,344.978h13.551c0.342,0,0.62,0.278,0.62,0.62v0.259c0,0.342-0.278,0.62-0.62,0.62
						h-13.551c-0.342,0-0.62-0.277-0.62-0.62v-0.259C116.512,345.256,116.79,344.978,117.132,344.978z"/>
					<path style="opacity:0.3;fill:#FFFFFF;" d="M117.132,344.978h13.551c0.342,0,0.62,0.278,0.62,0.62v0.259
						c0,0.342-0.278,0.62-0.62,0.62h-13.551c-0.342,0-0.62-0.277-0.62-0.62v-0.259C116.512,345.256,116.79,344.978,117.132,344.978z
						"/>
				</g>
			</g>
			<path style="fill:#407BFF;" d="M135.574,270.748c0,0,6.022,4.622,10.251,15.494c3.794,9.752,6.738,20.983,6.738,20.983
				s38.476,7.495,44.472,14.491c5.996,6.995,18.34,48.208,18.34,48.208c-0.518-3.441-40.617-5.292-91.52-5.292
				c-50.903,0-90.384,1.892-91.376,5.163c0,0,12.199-41.083,18.196-48.079c5.996-6.996,44.472-14.491,44.472-14.491
				s0.398-13.046,7.594-26.085c5.636-10.213,9.395-10.392,9.395-10.392S125.274,271.073,135.574,270.748z"/>
			<g style="opacity:0.2;">
				<path style="fill:#FFFFFF;" d="M54.71,323.317c44.178,9.751,94.189,10.738,138.288,0.638
					C151.373,319.708,98.82,318.425,54.71,323.317z"/>
			</g>
			<g style="opacity:0.3;">
				<g>
					<path d="M51.402,322.424c18.585-2.991,37.387-4.54,56.199-5.03c19.004-0.495,38.037,0.089,56.985,1.611
						c10.506,0.844,20.988,1.984,31.43,3.418c0.472,0.065,0.676-0.658,0.199-0.723c-18.625-2.559-37.377-4.198-56.165-4.876
						c-19.224-0.694-38.499-0.397-57.677,1.15c-10.433,0.842-20.836,2.063-31.17,3.726C50.728,321.777,50.929,322.5,51.402,322.424
						L51.402,322.424z"/>
				</g>
			</g>
			<g style="opacity:0.3;">
				<g>
					<path d="M95.644,307.172c18.754-3.252,38.008-3.429,56.781-0.22c0.472,0.081,0.675-0.642,0.199-0.723
						c-18.915-3.233-38.284-3.056-57.18,0.22C94.97,306.531,95.171,307.254,95.644,307.172L95.644,307.172z"/>
				</g>
			</g>
			<path style="opacity:0.2;fill:#FFFFFF;" d="M53.624,366.014c0,0,8.184-41.913,10.457-44.53
				c2.273-2.617,40.703-16.07,40.703-16.07s-3.306-8.861-1.033-17.332c2.273-8.471,12.275-16.996,12.275-16.996l8.589-0.012
				c0,0-14.455,16.289-10.116,33.384l-25.183,14.506l-0.763,46.139L53.624,366.014z"/>
		</g>
		<rect x="118.858" y="259.752" style="fill:#263238;" width="8.398" height="10.996"/>
		<rect x="100.363" y="39.433" style="fill:#263238;" width="44.435" height="7.922"/>
		<rect x="112.388" y="47.356" style="fill:#263238;" width="20.384" height="11.053"/>
	</g>
</g>
<g id="Lamp_2">
	<g>
		<g>
			<circle style="opacity:0.1;fill:#407BFF;" cx="217.56" cy="248.954" r="55.294"/>
			<circle style="opacity:0.3;fill:#407BFF;" cx="217.56" cy="245.241" r="36.738"/>
			<g>
				<g>
					<g>
						<g>
							<g>
								<path style="fill:#407BFF;" d="M217.385,231.83c5.78,0.068,10.521-4.563,10.589-10.343c0.037-3.137-1.335-6.124-3.738-8.141
									c-0.442-0.365-1.117-0.806-1.102-1.72c0-0.028-0.047-2.287-0.047-2.287h-11.009c0,0-0.047,2.347-0.047,2.374
									c0,0.805-0.623,1.152-1.082,1.515c-2.435,1.952-3.869,4.892-3.907,8.013C206.974,227.021,211.605,231.762,217.385,231.83z"
									/>
								<path style="opacity:0.4;fill:#FFFFFF;" d="M217.385,231.83c5.78,0.068,10.521-4.563,10.589-10.343
									c0.037-3.137-1.335-6.124-3.738-8.141c-0.442-0.365-1.117-0.806-1.102-1.72c0-0.028-0.047-2.287-0.047-2.287h-11.009
									c0,0-0.047,2.347-0.047,2.374c0,0.805-0.623,1.152-1.082,1.515c-2.435,1.952-3.869,4.892-3.907,8.013
									C206.974,227.021,211.605,231.762,217.385,231.83z"/>
								<path style="opacity:0.2;fill:#FFFFFF;enable-background:new    ;" d="M212.182,227.32c0-2.038,2.385-3.694,5.342-3.694
									c2.957,0,5.342,1.656,5.342,3.694s-2.385,3.697-5.342,3.697C214.567,231.017,212.182,229.361,212.182,227.32z"/>
							</g>
							<path style="fill:none;stroke:#FFFFFF;stroke-width:0.5;stroke-miterlimit:10;" d="M225.483,217.385
								c0.911,1.562,1.273,3.437,1.009,5.225c-0.264,1.789-1.152,3.479-2.475,4.711"/>
							
								<path style="fill:none;stroke:#263238;stroke-width:0.5;stroke-linecap:round;stroke-linejoin:round;stroke-miterlimit:10;" d="
								M219.771,211.626c-0.803,2.733-0.944,5.714-0.404,8.53c0.087,0.455,0.293,1.003,0.701,1.014
								c0.365,0.009,0.605-0.44,0.684-0.847c0.279-1.438-0.467-2.9-1.421-3.893c-0.516-0.538-1.143-1.007-1.841-1.041
								c-0.701-0.034-1.371,0.381-1.878,0.934c-0.972,1.058-1.456,2.715-1.104,4.193c0.149,0.625,0.592,1.297,1.151,1.177
								c0.336-0.072,0.582-0.427,0.669-0.804c0.087-0.377,0.044-0.776-0.005-1.162c-0.355-2.783-1.035-5.511-2.014-8.092"/>
						</g>
					</g>
					<path style="fill:#263238;" d="M211.384,208.675h12.339c0.313,0,0.566,0.254,0.566,0.566v0.196
						c0,0.313-0.254,0.566-0.566,0.566h-12.339c-0.313,0-0.566-0.254-0.566-0.566v-0.196
						C210.818,208.928,211.071,208.675,211.384,208.675z"/>
					<path style="opacity:0.3;fill:#FFFFFF;" d="M211.384,208.675h12.339c0.313,0,0.566,0.254,0.566,0.566v0.196
						c0,0.313-0.254,0.566-0.566,0.566h-12.339c-0.313,0-0.566-0.254-0.566-0.566v-0.196
						C210.818,208.928,211.071,208.675,211.384,208.675z"/>
					<path style="fill:#263238;" d="M211.584,207.509h11.939c0.303,0,0.548,0.245,0.548,0.548v0.19c0,0.303-0.245,0.548-0.548,0.548
						h-11.939c-0.303,0-0.548-0.245-0.548-0.548v-0.19C211.036,207.754,211.282,207.509,211.584,207.509z"/>
					<path style="opacity:0.3;fill:#FFFFFF;" d="M211.584,207.509h11.939c0.303,0,0.548,0.245,0.548,0.548v0.19
						c0,0.303-0.245,0.548-0.548,0.548h-11.939c-0.303,0-0.548-0.245-0.548-0.548v-0.19
						C211.036,207.754,211.282,207.509,211.584,207.509z"/>
					<path style="fill:#263238;" d="M212.38,205.191h10.347c0.303,0,0.548,0.245,0.548,0.548v0.19c0,0.303-0.245,0.548-0.548,0.548
						H212.38c-0.303,0-0.548-0.245-0.548-0.548v-0.19C211.832,205.436,212.077,205.191,212.38,205.191z"/>
					<path style="opacity:0.3;fill:#FFFFFF;" d="M212.38,205.191h10.347c0.303,0,0.548,0.245,0.548,0.548v0.19
						c0,0.303-0.245,0.548-0.548,0.548H212.38c-0.303,0-0.548-0.245-0.548-0.548v-0.19
						C211.832,205.436,212.077,205.191,212.38,205.191z"/>
					<path style="fill:#263238;" d="M211.76,206.37h11.587c0.303,0,0.548,0.245,0.548,0.548v0.19c0,0.303-0.245,0.548-0.548,0.548
						H211.76c-0.303,0-0.548-0.245-0.548-0.548v-0.19C211.212,206.615,211.458,206.37,211.76,206.37z"/>
					<path style="opacity:0.3;fill:#FFFFFF;" d="M211.76,206.37h11.587c0.303,0,0.548,0.245,0.548,0.548v0.19
						c0,0.303-0.245,0.548-0.548,0.548H211.76c-0.303,0-0.548-0.245-0.548-0.548v-0.19
						C211.212,206.615,211.458,206.37,211.76,206.37z"/>
				</g>
			</g>
			<rect x="200.594" y="201.848" style="fill:#263238;" width="33.827" height="5.165"/>
			<path style="fill:#263238;" d="M224.861,208.042h-14.707v-12.626c0-3.462,2.807-6.269,6.269-6.269h2.17
				c3.462,0,6.269,2.807,6.269,6.269V208.042z"/>
			<g>
				<g>
					<path style="fill:#263238;" d="M218.258,192.584c0-18.054,0-36.107,0-54.161c0-21.039,0-42.077,0-63.116
						c0-9.169,0-18.338,0-27.507c0-0.965-1.5-0.967-1.5,0c0,18.054,0,36.107,0,54.161c0,21.039,0,42.077,0,63.116
						c0,9.169,0,18.338,0,27.507C216.758,193.549,218.258,193.551,218.258,192.584L218.258,192.584z"/>
				</g>
			</g>
			<path style="opacity:0.5;fill:#407BFF;" d="M236.199,204.321l-35.91-0.589c-16.535,6.798-28.178,23.066-28.178,42.052
				c0,25.101,20.348,45.449,45.449,45.449c25.101,0,45.449-20.348,45.449-45.449C263.009,227.326,252.005,211.438,236.199,204.321z"
				/>
			<g style="opacity:0.2;">
				<path style="fill:#FFFFFF;" d="M252.35,216.548c-4.372-5.196-9.881-9.403-16.151-12.226l-35.91-0.589
					c-16.535,6.798-28.178,23.066-28.178,42.052c0,9.913,3.183,19.077,8.57,26.547c8.995,2.735,18.976,1.938,27.771-1.504
					c9.952-3.895,18.455-10.961,25.173-19.272c6.718-8.312,11.753-17.858,16.083-27.629
					C250.761,221.552,251.785,219.074,252.35,216.548z"/>
			</g>
			<g style="opacity:0.3;">
				<path style="fill:#FFFFFF;" d="M197.468,212.632c0.182-1.325-1.384-2.22-2.496-1.477c-6.43,4.302-11.575,10.507-14.594,17.632
					c-3.18,7.505-3.987,15.994-2.277,23.964c0.186,0.866,0.414,1.754,0.957,2.454c0.543,0.7,1.482,1.166,2.328,0.903
					c1.017-0.316,1.467-1.465,1.702-2.52c0.302-1.359,0.491-2.74,0.619-4.126c0.576-6.27,0.943-12.634,2.599-18.723
					c1.465-5.389,4.021-10.613,8.129-14.396c0.786-0.724,1.998-1.647,2.603-2.528C197.238,213.521,197.405,213.089,197.468,212.632z
					"/>
			</g>
			<rect x="210.154" y="200.636" style="opacity:0.2;" width="14.707" height="1.212"/>
		</g>
		<g>
			<circle style="opacity:0.1;fill:#407BFF;" cx="294.454" cy="158.902" r="55.308"/>
			<circle style="opacity:0.3;fill:#407BFF;" cx="294.454" cy="155.188" r="36.747"/>
			<g>
				<g>
					<g>
						<g>
							<g>
								<path style="fill:#407BFF;" d="M294.279,141.773c5.781,0.068,10.523-4.564,10.591-10.345
									c0.037-3.137-1.335-6.126-3.739-8.143c-0.442-0.365-1.118-0.806-1.103-1.72c0-0.028-0.046-2.288-0.046-2.288H288.97
									c0,0-0.047,2.348-0.047,2.375c0,0.805-0.623,1.152-1.082,1.515c-2.436,1.953-3.87,4.893-3.908,8.015
									C283.865,136.964,288.497,141.705,294.279,141.773z"/>
								<path style="opacity:0.4;fill:#FFFFFF;" d="M294.279,141.773c5.781,0.068,10.523-4.564,10.591-10.345
									c0.037-3.137-1.335-6.126-3.739-8.143c-0.442-0.365-1.118-0.806-1.103-1.72c0-0.028-0.046-2.288-0.046-2.288H288.97
									c0,0-0.047,2.348-0.047,2.375c0,0.805-0.623,1.152-1.082,1.515c-2.436,1.953-3.87,4.893-3.908,8.015
									C283.865,136.964,288.497,141.705,294.279,141.773z"/>
								<path style="opacity:0.2;fill:#FFFFFF;enable-background:new    ;" d="M289.074,137.262c0-2.038,2.385-3.695,5.343-3.695
									c2.958,0,5.343,1.656,5.343,3.695s-2.385,3.698-5.343,3.698C291.46,140.96,289.074,139.304,289.074,137.262z"/>
							</g>
							<path style="fill:none;stroke:#FFFFFF;stroke-width:0.5;stroke-miterlimit:10;" d="M302.378,127.325
								c0.911,1.562,1.273,3.437,1.009,5.226c-0.264,1.789-1.152,3.48-2.476,4.712"/>
							
								<path style="fill:none;stroke:#263238;stroke-width:0.5;stroke-linecap:round;stroke-linejoin:round;stroke-miterlimit:10;" d="
								M296.666,121.565c-0.803,2.733-0.944,5.716-0.404,8.532c0.087,0.455,0.293,1.003,0.701,1.014
								c0.366,0.009,0.605-0.44,0.684-0.847c0.279-1.439-0.467-2.9-1.421-3.894c-0.517-0.538-1.143-1.007-1.842-1.041
								c-0.702-0.034-1.371,0.381-1.879,0.934c-0.972,1.058-1.456,2.715-1.104,4.194c0.149,0.625,0.593,1.297,1.151,1.177
								c0.336-0.072,0.582-0.427,0.669-0.805s0.044-0.776-0.005-1.162c-0.355-2.783-1.035-5.513-2.015-8.094"/>
						</g>
					</g>
					<path style="fill:#263238;" d="M288.276,118.613h12.342c0.313,0,0.566,0.253,0.566,0.566v0.196
						c0,0.313-0.253,0.566-0.566,0.566h-12.342c-0.313,0-0.566-0.254-0.566-0.566v-0.196
						C287.71,118.866,287.964,118.613,288.276,118.613z"/>
					<path style="opacity:0.3;fill:#FFFFFF;" d="M288.276,118.613h12.342c0.313,0,0.566,0.253,0.566,0.566v0.196
						c0,0.313-0.253,0.566-0.566,0.566h-12.342c-0.313,0-0.566-0.254-0.566-0.566v-0.196
						C287.71,118.866,287.964,118.613,288.276,118.613z"/>
					<path style="fill:#263238;" d="M288.477,117.446h11.942c0.303,0,0.548,0.245,0.548,0.548v0.19c0,0.303-0.245,0.548-0.548,0.548
						h-11.942c-0.303,0-0.548-0.245-0.548-0.548v-0.19C287.928,117.692,288.174,117.446,288.477,117.446z"/>
					<path style="opacity:0.3;fill:#FFFFFF;" d="M288.477,117.446h11.942c0.303,0,0.548,0.245,0.548,0.548v0.19
						c0,0.303-0.245,0.548-0.548,0.548h-11.942c-0.303,0-0.548-0.245-0.548-0.548v-0.19
						C287.928,117.692,288.174,117.446,288.477,117.446z"/>
					<path style="fill:#263238;" d="M289.272,115.128h10.35c0.303,0,0.548,0.245,0.548,0.548v0.19c0,0.303-0.245,0.548-0.548,0.548
						h-10.35c-0.303,0-0.548-0.245-0.548-0.548v-0.19C288.724,115.373,288.97,115.128,289.272,115.128z"/>
					<path style="opacity:0.3;fill:#FFFFFF;" d="M289.272,115.128h10.35c0.303,0,0.548,0.245,0.548,0.548v0.19
						c0,0.303-0.245,0.548-0.548,0.548h-10.35c-0.303,0-0.548-0.245-0.548-0.548v-0.19
						C288.724,115.373,288.97,115.128,289.272,115.128z"/>
					<path style="fill:#263238;" d="M288.653,116.307h11.59c0.303,0,0.548,0.245,0.548,0.548v0.19c0,0.303-0.245,0.548-0.548,0.548
						h-11.59c-0.303,0-0.548-0.245-0.548-0.548v-0.19C288.105,116.552,288.35,116.307,288.653,116.307z"/>
					<path style="opacity:0.3;fill:#FFFFFF;" d="M288.653,116.307h11.59c0.303,0,0.548,0.245,0.548,0.548v0.19
						c0,0.303-0.245,0.548-0.548,0.548h-11.59c-0.303,0-0.548-0.245-0.548-0.548v-0.19
						C288.105,116.552,288.35,116.307,288.653,116.307z"/>
				</g>
			</g>
			<rect x="277.484" y="111.784" style="fill:#263238;" width="33.835" height="5.166"/>
			<path style="fill:#263238;" d="M301.757,117.98h-14.71V105.35c0-3.462,2.807-6.269,6.269-6.269h2.173
				c3.462,0,6.269,2.807,6.269,6.269V117.98z"/>
			<g>
				<g>
					<path style="fill:#263238;" d="M295.151,102.518c0-14.013,0-28.027,0-42.04c0-5.62,0-11.241,0-16.861c0-0.965-1.5-0.967-1.5,0
						c0,14.013,0,28.027,0,42.04c0,5.62,0,11.241,0,16.861C293.651,103.483,295.151,103.485,295.151,102.518L295.151,102.518z"/>
				</g>
			</g>
			<path style="opacity:0.5;fill:#407BFF;" d="M313.097,114.258l-35.918-0.589c-16.539,6.8-28.185,23.071-28.185,42.062
				c0,25.107,20.353,45.46,45.46,45.46c25.107,0,45.46-20.353,45.46-45.46C339.914,137.268,328.907,121.376,313.097,114.258z"/>
			<g style="opacity:0.2;">
				<path style="fill:#FFFFFF;" d="M329.252,126.487c-4.373-5.198-9.884-9.406-16.155-12.229l-35.918-0.589
					c-16.539,6.8-28.185,23.071-28.185,42.062c0,9.915,3.184,19.082,8.572,26.553c8.998,2.735,18.981,1.938,27.778-1.505
					c9.955-3.896,18.459-10.963,25.179-19.277c6.72-8.314,11.755-17.862,16.087-27.635
					C327.663,131.493,328.687,129.014,329.252,126.487z"/>
			</g>
			<g style="opacity:0.3;">
				<path style="fill:#FFFFFF;" d="M274.357,122.571c0.182-1.326-1.385-2.221-2.497-1.477c-6.432,4.303-11.578,10.51-14.598,17.636
					c-3.181,7.506-3.988,15.998-2.278,23.969c0.186,0.866,0.414,1.755,0.957,2.455c0.543,0.7,1.482,1.166,2.328,0.903
					c1.017-0.316,1.468-1.465,1.702-2.521c0.302-1.359,0.492-2.741,0.619-4.127c0.576-6.272,0.943-12.637,2.599-18.728
					c1.466-5.39,4.022-10.616,8.131-14.399c0.786-0.724,1.999-1.648,2.604-2.528C274.126,123.46,274.294,123.028,274.357,122.571z"
					/>
			</g>
			<rect x="287.046" y="110.572" style="opacity:0.2;" width="14.71" height="1.213"/>
		</g>
		<polygon style="fill:#263238;" points="327.827,47.8 185.686,47.8 186.686,39.433 328.827,39.433 		"/>
	</g>
</g>
<g id="Lamp_3">
	<g>
		<g>
			<g>
				<g>
					<g>
						<g>
							<g>
								<g>
									<path style="fill:#407BFF;" d="M386.06,294.775c7.644,0.09,13.914-6.034,14.004-13.678
										c0.049-4.148-1.766-8.099-4.944-10.766c-0.585-0.482-1.478-1.066-1.458-2.275c0.001-0.037-0.061-3.025-0.061-3.025h-14.559
										c0,0-0.062,3.105-0.062,3.14c0,1.064-0.824,1.524-1.431,2.003c-3.22,2.582-5.116,6.47-5.167,10.597
										C372.292,288.415,378.416,294.685,386.06,294.775z"/>
									<path style="opacity:0.4;fill:#FFFFFF;" d="M386.06,294.775c7.644,0.09,13.914-6.034,14.004-13.678
										c0.049-4.148-1.766-8.099-4.944-10.766c-0.585-0.482-1.478-1.066-1.458-2.275c0.001-0.037-0.061-3.025-0.061-3.025h-14.559
										c0,0-0.062,3.105-0.062,3.14c0,1.064-0.824,1.524-1.431,2.003c-3.22,2.582-5.116,6.47-5.167,10.597
										C372.292,288.415,378.416,294.685,386.06,294.775z"/>
									<path style="opacity:0.2;fill:#FFFFFF;enable-background:new    ;" d="M379.179,288.81c0-2.695,3.154-4.885,7.065-4.885
										c3.911,0,7.065,2.19,7.065,4.885c0,2.695-3.154,4.89-7.065,4.89C382.333,293.7,379.179,291.51,379.179,288.81z"/>
								</g>
								<path style="fill:none;stroke:#FFFFFF;stroke-width:0.5;stroke-miterlimit:10;" d="M396.77,275.672
									c1.205,2.065,1.683,4.545,1.334,6.91c-0.349,2.365-1.524,4.601-3.274,6.23"/>
								<path style="fill:none;stroke:#263238;stroke-miterlimit:10;" d="M389.216,268.056c-1.062,3.614-1.248,7.557-0.534,11.281
									c0.115,0.602,0.387,1.327,0.927,1.34c0.483,0.012,0.801-0.582,0.905-1.12c0.368-1.902-0.618-3.835-1.879-5.148
									c-0.683-0.711-1.511-1.331-2.435-1.377c-0.927-0.046-1.813,0.504-2.484,1.235c-1.285,1.399-1.925,3.59-1.46,5.545
									c0.197,0.826,0.784,1.715,1.522,1.557c0.445-0.095,0.77-0.565,0.884-1.064c0.115-0.499,0.058-1.026-0.007-1.536
									c-0.47-3.68-1.368-7.289-2.664-10.701"/>
							</g>
						</g>
						<path style="fill:#263238;" d="M378.033,264.152h16.501c0.363,0,0.657,0.294,0.657,0.658v0.442
							c0,0.363-0.294,0.658-0.657,0.658h-16.501c-0.363,0-0.657-0.294-0.657-0.658v-0.442
							C377.376,264.447,377.67,264.152,378.033,264.152z"/>
						<path style="opacity:0.3;fill:#FFFFFF;" d="M378.033,264.152h16.501c0.363,0,0.657,0.294,0.657,0.658v0.442
							c0,0.363-0.294,0.658-0.657,0.658h-16.501c-0.363,0-0.657-0.294-0.657-0.658v-0.442
							C377.376,264.447,377.67,264.152,378.033,264.152z"/>
						<path style="fill:#263238;" d="M378.301,262.61h15.966c0.351,0,0.636,0.285,0.636,0.636v0.428
							c0,0.351-0.285,0.636-0.636,0.636h-15.966c-0.351,0-0.636-0.285-0.636-0.636v-0.428
							C377.664,262.895,377.949,262.61,378.301,262.61z"/>
						<path style="opacity:0.3;fill:#FFFFFF;" d="M378.301,262.61h15.966c0.351,0,0.636,0.285,0.636,0.636v0.428
							c0,0.351-0.285,0.636-0.636,0.636h-15.966c-0.351,0-0.636-0.285-0.636-0.636v-0.428
							C377.664,262.895,377.949,262.61,378.301,262.61z"/>
						<path style="fill:#263238;" d="M379.353,259.545h13.861c0.351,0,0.636,0.285,0.636,0.636v0.428
							c0,0.351-0.285,0.636-0.636,0.636h-13.861c-0.351,0-0.636-0.285-0.636-0.636v-0.428
							C378.717,259.829,379.002,259.545,379.353,259.545z"/>
						<path style="opacity:0.3;fill:#FFFFFF;" d="M379.353,259.545h13.861c0.351,0,0.636,0.285,0.636,0.636v0.428
							c0,0.351-0.285,0.636-0.636,0.636h-13.861c-0.351,0-0.636-0.285-0.636-0.636v-0.428
							C378.717,259.829,379.002,259.545,379.353,259.545z"/>
						<path style="fill:#263238;" d="M378.533,261.104h15.501c0.351,0,0.636,0.285,0.636,0.636v0.428
							c0,0.351-0.285,0.636-0.636,0.636h-15.501c-0.351,0-0.636-0.285-0.636-0.636v-0.428
							C377.897,261.389,378.182,261.104,378.533,261.104z"/>
						<path style="opacity:0.3;fill:#FFFFFF;" d="M378.533,261.104h15.501c0.351,0,0.636,0.285,0.636,0.636v0.428
							c0,0.351-0.285,0.636-0.636,0.636h-15.501c-0.351,0-0.636-0.285-0.636-0.636v-0.428
							C377.897,261.389,378.182,261.104,378.533,261.104z"/>
					</g>
				</g>
				<rect x="375.05" y="253.29" style="fill:#263238;" width="23.638" height="5.392"/>
				<rect x="376.71" y="239.378" style="fill:#263238;" width="19.45" height="24.988"/>
				<rect x="377.144" y="239.816" style="fill:#263238;" width="19.45" height="24.988"/>
				<g>
					<g>
						<path style="fill:#263238;" d="M386.167,244.361c0-10.789,0-21.578,0-32.367c0-13.913,0-27.825,0-41.738
							c0-14.964,0-29.928,0-44.893c0-14.157,0-28.314,0-42.471c0-11.276,0-22.551,0-33.827c0-1.105,0-2.21,0-3.315
							c0-0.965-1.5-0.967-1.5,0c0,10.789,0,21.578,0,32.367c0,13.913,0,27.825,0,41.738c0,14.964,0,29.928,0,44.893
							c0,14.157,0,28.314,0,42.471c0,11.276,0,22.551,0,33.827c0,1.105,0,2.21,0,3.315
							C384.667,245.326,386.167,245.327,386.167,244.361L386.167,244.361z"/>
					</g>
				</g>
			</g>
			<g>
				<g style="opacity:0.2;">
					<g>
						<path style="fill:#407BFF;" d="M331.199,373.968l-10.717-48.87l52.728-72.447h25.721l53.585,74.59L441.37,376.54
							c0,0-51.87,4.715-53.156,4.715C386.928,381.255,331.199,373.968,331.199,373.968z"/>
					</g>
				</g>
			</g>
			<g>
				<path style="fill:#407BFF;" d="M332.38,373.712c-2.024-9.228-4.047-18.456-6.071-27.684c-1.229-5.604-2.458-11.207-3.687-16.811
					c-0.279-1.271-0.385-2.83-0.885-4.036c-0.31-0.748,0.199,0.365-0.146,0.393c0.085-0.007,0.337-0.462,0.385-0.529
					c4.93-6.774,9.861-13.548,14.791-20.322c7.766-10.67,15.531-21.339,23.297-32.009c3.082-4.235,6.165-8.47,9.247-12.705
					c1.025-1.408,2.05-2.816,3.075-4.225c0.541-0.744,1.264-1.505,1.69-2.323c0.054-0.104,0.144-0.198,0.214-0.294
					c-0.288,0.166-0.577,0.331-0.866,0.496c8.574,0,17.147,0,25.721,0c-0.289-0.165-0.577-0.331-0.866-0.496
					c3.918,5.454,7.837,10.908,11.755,16.363c7.762,10.805,15.524,21.609,23.286,32.414c5.734,7.982,11.468,15.963,17.202,23.945
					c0.216,0.301,0.916,1.695,1.291,1.797c0.109,0.03,0.164-1.003-0.1-0.473c-0.19,0.382-0.217,0.959-0.311,1.373
					c-1.098,4.858-2.197,9.716-3.295,14.574c-2.447,10.822-4.893,21.644-7.34,32.466c-0.05,0.22-0.099,0.439-0.149,0.659
					c0.322-0.245,0.644-0.491,0.966-0.736c-15.913,1.447-31.827,2.904-47.747,4.278c-1.805,0.156-3.696,0.483-5.511,0.432
					c-2.128-0.06-4.303-0.5-6.411-0.764c-9.648-1.206-19.29-2.46-28.933-3.711c-7.19-0.932-14.38-1.868-21.57-2.808
					c-1.275-0.167-1.263,1.839,0,2.005c15.873,2.076,31.746,4.15,47.628,6.157c2.867,0.362,5.734,0.749,8.607,1.057
					c1.295,0.139,2.589-0.058,3.883-0.167c9.107-0.767,18.209-1.6,27.312-2.419c7.581-0.682,15.161-1.367,22.741-2.056
					c0.427-0.039,0.864-0.282,0.966-0.736c2.415-10.68,4.829-21.359,7.244-32.039c1.203-5.32,2.406-10.64,3.608-15.96
					c0.168-0.745,0.465-1.465,0.117-2.176c-0.37-0.757-1.057-1.472-1.547-2.153c-6.649-9.255-13.297-18.51-19.946-27.765
					c-8.179-11.386-16.359-22.771-24.538-34.157c-2.241-3.12-4.482-6.24-6.724-9.359c-0.453-0.63-0.827-1.402-1.635-1.548
					c-1.785-0.322-3.934,0-5.739,0c-6.4,0-12.799,0-19.199,0c-0.902,0-1.409,0.193-1.94,0.917c-0.704,0.959-1.401,1.924-2.101,2.887
					c-7.136,9.805-14.273,19.61-21.409,29.416c-7.917,10.878-15.834,21.755-23.751,32.633c-1.138,1.563-2.275,3.126-3.413,4.689
					c-0.533,0.732-1.224,1.471-1.653,2.271c-0.369,0.688-0.094,1.372,0.066,2.102c0.448,2.045,0.897,4.09,1.345,6.135
					c2.828,12.897,5.657,25.794,8.485,38.692c0.208,0.948,0.416,1.897,0.624,2.845C330.723,375.505,332.656,374.972,332.38,373.712z
					"/>
			</g>
			<g>
				<path style="fill:#407BFF;" d="M452.464,326.286c-9.464,2.875-18.929,5.75-28.393,8.626c-1.665,0.506-3.366,0.948-5.009,1.522
					c-0.309,0.108-0.602,0.132-0.247,0.104c-0.272,0.021-0.558-0.008-0.831-0.012c-3.744-0.054-7.488-0.108-11.231-0.162
					c-12.367-0.178-24.734-0.357-37.101-0.535c-3.713-0.054-7.426-0.107-11.139-0.161c-0.261-0.004-0.538,0.018-0.797-0.012
					c0.458,0.052,0.003-0.025-0.236-0.11c-1.551-0.553-3.156-0.986-4.728-1.477c-10.353-3.233-20.707-6.466-31.06-9.7
					c-0.243-0.076-0.486-0.152-0.728-0.227c0,0.644,0,1.289,0,1.933c9.571-1.587,19.141-3.175,28.712-4.762
					c1.982-0.329,3.964-0.658,5.946-0.986c0.385-0.064,0.777-0.156,1.165-0.193c-0.459,0.044-0.091,0.023,0.119,0.03
					c3.115,0.103,6.25,0,9.366,0c12.17,0,24.341,0,36.511,0c4.779,0,9.558,0,14.337,0c1.177,0,2.363,0.04,3.54,0
					c0.18-0.006,0.751,0.053,0.207-0.035c0.327,0.053,0.656,0.168,0.977,0.25c9.919,2.54,19.838,5.08,29.757,7.62
					c0.288,0.074,0.575,0.147,0.863,0.221c1.25,0.32,1.784-1.613,0.533-1.933c-9.465-2.424-18.931-4.847-28.396-7.271
					c-1.847-0.473-3.341-0.856-5.22-0.856c-4.113,0-8.227,0-12.34,0c-12.365,0-24.73,0-37.094,0c-3.975,0-7.951,0-11.926,0
					c-1.81,0-3.501,0.329-5.294,0.627c-10.501,1.742-21.003,3.484-31.504,5.226c-0.264,0.044-0.528,0.088-0.792,0.131
					c-1.036,0.172-0.867,1.662,0,1.933c9.411,2.939,18.821,5.878,28.232,8.816c2.226,0.695,4.452,1.39,6.678,2.085
					c0.767,0.24,1.565,0.588,2.367,0.683c2.645,0.313,5.474,0.079,8.132,0.117c12.255,0.177,24.51,0.354,36.765,0.531
					c4.586,0.066,9.172,0.132,13.757,0.199c1.943,0.028,3.15-0.115,5.018-0.683c10.257-3.116,20.513-6.232,30.77-9.348
					c0.283-0.086,0.565-0.172,0.847-0.257C454.228,327.845,453.703,325.91,452.464,326.286z"/>
			</g>
			<g>
				<path style="fill:#407BFF;" d="M395.193,252.928c2.112,5.624,4.223,11.247,6.335,16.871
					c3.978,10.594,7.956,21.188,11.934,31.782c1.554,4.139,3.108,8.278,4.663,12.418c0.65,1.732,1.639,3.589,2.029,5.404
					c-0.068-0.317-0.021-0.208-0.06,0.079c-0.057,0.425-0.088,0.855-0.132,1.281c-0.163,1.588-0.327,3.176-0.49,4.764
					c-0.528,5.133-1.056,10.266-1.584,15.399c-0.909,8.834-2.165,17.708-2.733,26.571c-0.01,0.162-0.033,0.325-0.05,0.487
					c-0.132,1.282,1.874,1.273,2.004,0c0.78-7.585,1.56-15.171,2.341-22.756c0.568-5.52,1.136-11.041,1.703-16.561
					c0.312-3.031,0.898-6.166,0.948-9.215c0.02-1.241-0.761-2.569-1.19-3.712c-1.364-3.632-2.727-7.263-4.091-10.895
					c-3.972-10.579-7.945-21.158-11.917-31.737c-2.547-6.784-4.891-13.69-7.656-20.389c-0.044-0.106-0.081-0.215-0.121-0.322
					C396.677,251.199,394.738,251.717,395.193,252.928L395.193,252.928z"/>
			</g>
			<g>
				<path style="fill:#407BFF;" d="M387.225,381.244c0-19.974-0.011-39.946,0.102-59.919c0.103-18.229,0.206-36.458,0.31-54.687
					c0.026-4.658,0.053-9.317,0.079-13.975c0.007-1.29-1.997-1.292-2.005,0c-0.071,12.494-0.141,24.987-0.212,37.481
					c-0.089,15.684-0.178,31.367-0.267,47.051c-0.083,14.683-0.012,29.367-0.012,44.05
					C385.221,382.534,387.225,382.536,387.225,381.244L387.225,381.244z"/>
			</g>
			<g>
				<path style="fill:#407BFF;" d="M360.709,366.622c-0.488-7.356-0.977-14.712-1.465-22.068
					c-0.355-5.341-0.709-10.681-1.064-16.022c-0.128-1.931-0.256-3.862-0.385-5.793c-0.068-1.03,0.021-2.237-0.215-3.245
					c-0.162-0.69-0.268,0.391-0.039-0.109c0.085-0.185,0.142-0.387,0.21-0.579c0.341-0.958,0.647-1.929,0.962-2.895
					c1.214-3.711,2.403-7.431,3.593-11.15c3.348-10.467,6.671-20.942,9.989-31.418c1.396-4.408,2.792-8.816,4.186-13.225
					c0.719-2.273,1.607-4.557,2.173-6.874c0.026-0.106,0.066-0.21,0.099-0.314c0.389-1.233-1.545-1.761-1.933-0.533
					c-1.766,5.593-3.535,11.184-5.305,16.775c-3.33,10.518-6.665,21.035-10.02,31.546c-1.332,4.172-2.665,8.343-4.014,12.508
					c-0.421,1.3-0.843,2.6-1.275,3.897c-0.132,0.395-0.264,0.79-0.4,1.184c-0.053,0.153-0.217,0.79-0.11,0.335
					c-0.476,2.012,0.125,4.562,0.261,6.612c0.332,4.994,0.663,9.988,0.995,14.982c0.573,8.626,1.052,17.263,1.718,25.883
					c0.013,0.168,0.022,0.336,0.033,0.504C358.79,367.902,360.795,367.912,360.709,366.622L360.709,366.622z"/>
			</g>
			<g>
				<path style="fill:#407BFF;" d="M379.317,252.396c-1.596,5.931-3.192,11.862-4.789,17.792
					c-3.214,11.944-6.429,23.887-9.643,35.83c-2.477,9.204-4.954,18.408-7.431,27.611c-0.221,0.823-0.439,1.646-0.664,2.468
					c-0.053,0.194-0.205,0.46,0.014,0.065c-0.131,0.236-0.32,0.456-0.476,0.676c-2.467,3.506-4.934,7.012-7.401,10.518
					c-5.999,8.524-12.132,16.969-18.003,25.582c-0.123,0.18-0.251,0.356-0.376,0.534c-0.524,0.745,0.34,1.678,1.132,1.472
					c7.958-2.069,15.915-4.138,23.872-6.208c1.374-0.357,2.747-0.719,4.122-1.072c0.31-0.079,0.318-0.054,0.074-0.041
					c0.225-0.012,0.457,0.011,0.683,0.016c2.907,0.07,5.814,0.141,8.721,0.211c10.345,0.25,20.69,0.5,31.034,0.75
					c4.055,0.098,8.11,0.196,12.166,0.294c1.062,0.026,2.126,0.073,3.189,0.077c0.171,0.001,0.355-0.009,0.525,0.013
					c-0.451-0.058,0.025,0.036,0.268,0.131c4.46,1.74,9.126,3.069,13.664,4.594c3.773,1.269,7.547,2.537,11.32,3.806
					c0.847,0.285,1.555-0.746,1.132-1.472c-4.647-7.979-9.295-15.959-13.942-23.938c-2.547-4.373-5.093-8.745-7.64-13.118
					c-0.296-0.509-0.579-1.028-0.89-1.528c-0.105-0.169-0.339-0.68-0.152-0.201c-0.194-0.494-0.309-1.036-0.46-1.543
					c-2.52-8.458-5.04-16.916-7.561-25.373c-3.603-12.091-7.206-24.182-10.809-36.273c-1.406-4.719-2.812-9.437-4.218-14.156
					c-0.711-2.385-1.314-4.84-2.142-7.189c-0.038-0.108-0.066-0.22-0.098-0.33c-0.367-1.233-2.303-0.708-1.933,0.533
					c1.771,5.942,3.541,11.884,5.312,17.826c3.576,12.001,7.152,24.003,10.728,36.004c2.779,9.325,5.557,18.649,8.336,27.974
					c0.368,1.236,0.622,2.572,1.246,3.707c1.965,3.575,4.112,7.061,6.165,10.585c3.183,5.464,6.365,10.929,9.548,16.393
					c2.129,3.655,4.057,7.578,6.447,11.07c0.123,0.18,0.222,0.381,0.332,0.569c0.377-0.491,0.755-0.982,1.132-1.472
					c-7.814-2.627-15.627-5.255-23.441-7.882c-1.508-0.507-2.514-0.725-4.079-0.763c-3.543-0.086-7.087-0.171-10.631-0.257
					c-10.435-0.252-20.869-0.504-31.304-0.757c-3.595-0.087-7.19-0.174-10.784-0.261c-1.478-0.036-2.486,0.071-3.923,0.445
					c-8.847,2.301-17.694,4.601-26.542,6.902c0.377,0.491,0.755,0.982,1.132,1.472c5.268-7.487,10.537-14.973,15.805-22.46
					c2.978-4.233,5.957-8.465,8.935-12.698c0.868-1.233,1.548-2.121,1.932-3.549c2.197-8.164,4.394-16.327,6.591-24.491
					c3.265-12.13,6.529-24.261,9.794-36.391c1.281-4.759,2.562-9.518,3.843-14.277c0.656-2.438,1.452-4.882,1.979-7.352
					c0.024-0.114,0.061-0.226,0.091-0.338C381.585,251.681,379.652,251.149,379.317,252.396L379.317,252.396z"/>
			</g>
			<polygon style="opacity:0.4;fill:#FFFFFF;enable-background:new    ;" points="410.059,270.188 401.69,279.903 369.239,293.7 
				345.14,291.136 336.8,302.861 365.312,308.29 406.121,294.776 416.208,277.628 			"/>
			<polyline style="opacity:0.4;fill:#FFFFFF;enable-background:new    ;" points="363.275,315.856 408.293,302.062 
				419.575,281.387 421.398,283.925 410.059,306.774 362.132,320.104 			"/>
			<path style="fill:#FFFFFF;" d="M421.13,343.73"/>
			<polygon style="opacity:0.4;fill:#FFFFFF;enable-background:new    ;" points="423.18,344.95 386.223,363.312 386.714,376.551 
				429.33,355.51 			"/>
		</g>
		<path style="fill:#263238;" d="M386.14,64.998h-2.24c-12.553,0-22.73-10.176-22.73-22.73l0,0c0-2.697,2.186-4.883,4.884-4.883
			h37.932c2.697,0,4.884,2.186,4.884,4.883l0,0C408.87,54.822,398.693,64.998,386.14,64.998z"/>
	</g>
</g>
</svg>
