<?xml version="1.0" encoding="utf-8"?>
<!-- Generator: Adobe Illustrator 27.5.0, SVG Export Plug-In . SVG Version: 6.00 Build 0)  -->
<svg version="1.1" xmlns="http://www.w3.org/2000/svg" xmlns:xlink="http://www.w3.org/1999/xlink" x="0px" y="0px"
	 viewBox="0 0 500 500" style="enable-background:new 0 0 500 500;" xml:space="preserve">
<g id="BACKGROUND">
	<rect style="fill:#FFFFFF;" width="500" height="500"/>
</g>
<g id="OBJECTS">
	<g>
		<path style="fill:#E0EBFD;" d="M35.5,455.471h413.33c0,0,39.176-141.903-23.146-204.225c-62.322-62.322-113.462-14.8-113.462-14.8
			s24.877-85.749-63.923-85.749S141.5,257.563,141.5,257.563s-46.909-31.825-94.205,21.056C0,331.5,23.5,399.942,35.5,455.471z"/>
		<g>
			<rect y="443.812" style="fill:#98C3ED;" width="500" height="11.688"/>
			<rect y="455.471" style="fill:#BAD7FF;" width="500" height="44.529"/>
			<g>
				<defs>
					<rect id="SVGID_1_" y="455.471" width="500" height="44.529"/>
				</defs>
				<clipPath id="SVGID_00000045615294253064746920000009622243005077107364_">
					<use xlink:href="#SVGID_1_"  style="overflow:visible;"/>
				</clipPath>
				<g style="opacity:0.1;clip-path:url(#SVGID_00000045615294253064746920000009622243005077107364_);">
					
						<rect x="-77.472" y="477.236" transform="matrix(0.7134 -0.7007 0.7007 0.7134 -340.4717 122.9377)" width="115.085" height="0.999"/>
					<rect x="7.343" y="477.235" transform="matrix(0.5881 -0.8088 0.8088 0.5881 -362.8411 243.0573)" width="99.699" height="1"/>
					<rect x="90.336" y="477.235" transform="matrix(0.4005 -0.9163 0.9163 0.4005 -357.226 409.4817)" width="87.959" height="1"/>
					<rect x="170.71" y="477.235" transform="matrix(0.1445 -0.9895 0.9895 0.1445 -291.842 617.8998)" width="81.457" height="1"/>
					
						<rect x="288.061" y="437.007" transform="matrix(0.9896 -0.1441 0.1441 0.9896 -65.8109 46.5521)" width="1.001" height="81.457"/>
					
						<rect x="365.185" y="433.756" transform="matrix(0.9164 -0.4002 0.4002 0.9164 -160.6352 186.2841)" width="1" height="87.959"/>
					
						<rect x="442.307" y="427.886" transform="matrix(0.8085 -0.5885 0.5885 0.8085 -196.3457 352.0656)" width="1" height="99.699"/>
					<polygon points="560.649,518.396 478.51,437.788 479.211,437.075 561.351,517.683 					"/>
				</g>
				
					<rect x="-33.5" y="477.235" style="opacity:0.1;clip-path:url(#SVGID_00000045615294253064746920000009622243005077107364_);" width="565" height="1"/>
			</g>
		</g>
	</g>
	<g>
		<g>
			<g>
				<g>
					<path style="fill:#778CDB;" d="M223.782,165.853c0,0-9.505-12.212-12.449-23.007c0,0,11.013,6.979,14.72,23.007H223.782z"/>
					<path style="fill:#778CDB;" d="M226.953,165.853c0,0-3.244-16.356-6.706-33.257c-3.462-16.901-0.654-26.497-0.654-26.497
						s4.825,12.431,6.461,26.388c1.636,13.957,4.139,33.366,4.139,33.366H226.953z"/>
					<path style="fill:#778CDB;" d="M231.069,165.853c0,0-1.417-36.759,9.377-54.908c0,0,2.453,26.013-5.561,56.598L231.069,165.853
						z"/>
					<path style="fill:#778CDB;" d="M259.583,109.152c0,0-19.3,23.607-21.917,56.701h6.215
						C243.882,165.853,253.859,137.448,259.583,109.152z"/>
				</g>
			</g>
			<path style="fill:#BAD7FF;" d="M249.672,193.374l-6.13-9.743l4-21.167h-27.75l4,21.167l-6.13,9.743
				c-3.42,5.435,0.486,12.507,6.908,12.507h18.195C249.186,205.881,253.092,198.808,249.672,193.374z"/>
			<rect x="224.708" y="205.881" style="fill:#98C3ED;" width="17.917" height="2.5"/>
		</g>
		<g>
			<g>
				<rect x="128.25" y="162.464" style="fill:#BAD7FF;" width="11.833" height="45.333"/>
				<rect x="140.083" y="162.464" style="fill:#98C3ED;" width="11.833" height="45.333"/>
				<rect x="151.917" y="162.464" style="fill:#BAD7FF;" width="11.833" height="45.333"/>
				<rect x="163.75" y="162.464" style="fill:#98C3ED;" width="11.833" height="45.333"/>
				<rect x="175.583" y="162.464" style="fill:#BAD7FF;" width="11.833" height="45.333"/>
				<rect x="187.417" y="162.464" style="fill:#98C3ED;" width="11.833" height="45.333"/>
			</g>
			<g>
				<path style="fill:#2453B3;" d="M122.805,207.916h-2.875c-0.276,0-0.5-0.224-0.5-0.5c0-0.276,0.224-0.5,0.5-0.5h2.875
					c2.481,0,4.5-2.019,4.5-4.5v-19.125c0-0.276,0.224-0.5,0.5-0.5c0.276,0,0.5,0.224,0.5,0.5v19.125
					C128.305,205.449,125.838,207.916,122.805,207.916z"/>
				<path style="fill:#2453B3;" d="M207.57,207.921h-2.875c-3.033,0-5.5-2.467-5.5-5.5v-19.125c0-0.276,0.224-0.5,0.5-0.5
					c0.276,0,0.5,0.224,0.5,0.5v19.125c0,2.481,2.019,4.5,4.5,4.5h2.875c0.276,0,0.5,0.224,0.5,0.5
					C208.07,207.697,207.846,207.921,207.57,207.921z"/>
			</g>
		</g>
		<rect x="114.292" y="207.798" style="fill:#778CDB;" width="137.625" height="4.083"/>
	</g>
	<g>
		<g>
			
				<line style="fill:none;stroke:#2453B3;stroke-linecap:round;stroke-miterlimit:10;" x1="307.495" y1="112.265" x2="307.495" y2="134.932"/>
			<circle style="fill:#BAD7FF;" cx="307.495" cy="98.64" r="26.75"/>
			<circle style="fill:#BAD7FF;" cx="307.495" cy="98.64" r="13.625"/>
			<circle style="fill:#98C3ED;" cx="307.495" cy="98.64" r="13.625"/>
			<g>
				<g>
					<path style="fill:#2453B3;" d="M289.703,135.432c-0.05,0-0.102-0.007-0.151-0.023c-0.264-0.084-0.409-0.365-0.325-0.628
						l7.084-22.25c0.083-0.263,0.365-0.409,0.628-0.325c0.264,0.084,0.409,0.365,0.325,0.628l-7.084,22.25
						C290.112,135.296,289.915,135.432,289.703,135.432z"/>
					<path style="fill:#2453B3;" d="M325.287,135.432c-0.212,0-0.409-0.136-0.477-0.348l-7.084-22.25
						c-0.084-0.263,0.061-0.544,0.325-0.628c0.262-0.085,0.545,0.062,0.628,0.325l7.084,22.25c0.084,0.263-0.061,0.544-0.325,0.628
						C325.388,135.424,325.337,135.432,325.287,135.432z"/>
				</g>
			</g>
		</g>
		<rect x="277.986" y="133.515" style="fill:#778CDB;" width="107.704" height="4.083"/>
		<g>
			<g>
				<g>
					<path style="fill:#BAD7FF;" d="M366.245,122.39c-0.264,0-0.483-0.205-0.499-0.471c-0.017-0.281-1.478-28.26,12.393-42.38
						c0.193-0.197,0.51-0.199,0.707-0.006c0.197,0.194,0.199,0.51,0.006,0.708c-13.558,13.801-12.123,41.344-12.107,41.621
						c0.017,0.275-0.194,0.512-0.47,0.528C366.264,122.39,366.255,122.39,366.245,122.39z"/>
					<path style="fill:#BAD7FF;" d="M362.12,115.837c-0.276,0-0.5-0.224-0.5-0.5V63.515c0-0.276,0.224-0.5,0.5-0.5
						c0.276,0,0.5,0.224,0.5,0.5v51.822C362.62,115.613,362.396,115.837,362.12,115.837z"/>
					<path style="fill:#BAD7FF;" d="M357.726,112.265c-0.012,0-0.023,0-0.035-0.001c-0.276-0.02-0.483-0.258-0.465-0.534
						c0.02-0.285,1.845-28.598-9.689-37.825c-0.216-0.173-0.25-0.487-0.078-0.703c0.174-0.215,0.488-0.249,0.703-0.078
						c11.942,9.554,10.144,37.491,10.062,38.675C358.206,112.064,357.986,112.265,357.726,112.265z"/>
					<path style="fill:#BAD7FF;" d="M352.745,112.765c-0.276,0-0.5-0.224-0.5-0.5c0-14.004-6.982-21.075-7.053-21.145
						c-0.196-0.194-0.198-0.511-0.004-0.707c0.194-0.197,0.511-0.198,0.707-0.004c0.3,0.297,7.35,7.438,7.35,21.855
						C353.245,112.542,353.021,112.765,352.745,112.765z"/>
				</g>
			</g>
			<path style="fill:#98C3ED;" d="M367.307,133.515h-13.375c-4.453,0-8.063-3.61-8.063-8.063v-16.709h29.5v16.709
				C375.37,129.906,371.76,133.515,367.307,133.515z"/>
			<circle style="fill:#98C3ED;" cx="362.12" cy="63.515" r="4.438"/>
			<circle style="fill:#98C3ED;" cx="378.495" cy="79.89" r="4.438"/>
			<circle style="fill:#98C3ED;" cx="347.544" cy="73.515" r="4.438"/>
			<circle style="fill:#98C3ED;" cx="345.544" cy="90.765" r="4.438"/>
		</g>
	</g>
	<g>
		<circle style="fill:#BAD7FF;" cx="163.75" cy="89.426" r="36.209"/>
		<circle style="fill:#98C3ED;" cx="163.75" cy="89.426" r="33.125"/>
		<path style="fill:#2453B3;" d="M163.75,89.926c-0.04,0-0.079-0.005-0.119-0.014c-0.224-0.055-0.381-0.255-0.381-0.486V63.759
			c0-0.276,0.224-0.5,0.5-0.5s0.5,0.224,0.5,0.5v23.627l7.14-13.691c0.128-0.245,0.429-0.341,0.674-0.212
			c0.245,0.128,0.34,0.43,0.212,0.675l-8.083,15.5C164.106,89.825,163.933,89.926,163.75,89.926z"/>
	</g>
	<polygon style="fill:#6A7BC9;" points="171,300.87 160.719,300.87 158.719,279.703 173,279.703 	"/>
	<g>
		<path style="fill:#FFCFC0;" d="M448.83,455.47H441l-1.33-8.14c-17.34,10.5-35.34,7.84-35.34,7.84l12.64-10.68l11.8-9.98
			c0.82-0.69,1.08-1.86,0.63-2.84l-21.49-46.5l-6.24-13.5l28.5,1c0,0,8.53,44.92,12.53,58.85v0.02c0.37,1.26,0.69,2.27,0.97,2.96
			c0.28,0.71,0.56,1.45,0.82,2.21C447.3,444.89,448.83,455.47,448.83,455.47z"/>
		<path style="fill:#FFBBA9;" d="M442.7,431.52v0.02l-13.546-36.906c-2.087-5.685-7.499-9.464-13.555-9.464h-7.689l-6.24-13.5
			l28.5,1C430.17,372.67,438.7,417.59,442.7,431.52z"/>
		<path style="fill:#FFCFC0;" d="M369.1,429.62c-0.92,4.04-1.42,7-1.27,8.21c0.07,0.58,0.15,1.19,0.23,1.83
			c-7.51-2.74-17.98,5.47-24.31,7.46c-4.24,1.34-5.51-1.47-5.85-3.98l13.29-6.58c2.17-1.08,3.64-3.18,3.92-5.58l4.9-42.31
			l1.82-15.67l24-1.33C385.83,371.67,373.23,411.49,369.1,429.62z"/>
		<path style="fill:#FFBBA9;" d="M369.1,429.62l2.861-27.701c0.732-7.086-4.827-13.249-11.951-13.249l0,0l1.82-15.67l24-1.33
			C385.83,371.67,373.23,411.49,369.1,429.62z"/>
		<path style="fill:#003967;" d="M415.5,185.667c3.017-11.499-10.247-26.219-11.72-45.444s-24.058-18.611-32.65-12.351
			c-8.592,6.26-21.729,17.523-1.322,59.295"/>
		<path style="fill:#D84841;" d="M363.04,211.5c0.35,5.01,1.96,7.61,3.88,9.61l-4.38,25.91l-0.56,3.29h-3.15
			c-6.05,0-10.53-5.61-9.19-11.51l1.44-6.36v-0.01l1.66-7.33l5.2-26.94c1.49-7.64,6.91-13.87,14.19-16.42
			c-1.81,2.89-4.15,7.08-6.02,11.96C364.07,199.06,362.6,205.26,363.04,211.5z"/>
		
			<linearGradient id="SVGID_00000067210028179157010950000001722720998294205362_" gradientUnits="userSpaceOnUse" x1="363.175" y1="212.3334" x2="363.175" y2="225.8336">
			<stop  offset="0" style="stop-color:#000000"/>
			<stop  offset="1" style="stop-color:#000000;stop-opacity:0"/>
		</linearGradient>
		<path style="opacity:0.1;fill:url(#SVGID_00000067210028179157010950000001722720998294205362_);" d="M366.92,221.11l-4.38,25.91
			l-0.56,3.29h-2.55c0.14-4.55,0.3-10.06,0.3-10.06l2.89-15.79c-6.44-14.9-0.71-25.56,3.49-30.76c-2.04,5.36-3.51,11.56-3.07,17.8
			C363.39,216.51,365,219.11,366.92,221.11z"/>
		<path style="fill:#FFBBA9;" d="M395.2,174.03c-6.29-1.01-8.07,2.22-8.57,4.29c-0.22,0.91-0.19,1.6-0.19,1.6H386
			c0-0.57-0.03-1.09-0.09-1.56c-0.62-5.12-4.35-4.93-6.1-4.55v-8.67l14.94-6.15l0.13,4.24L395.2,174.03z"/>
		<polygon style="fill:#FF8E77;" points="394.883,163.227 379.81,177.554 379.81,165.142 394.745,158.985 		"/>
		<path style="fill:#FFCFC0;" d="M386.841,129.141c-26.349,0.409-25.938,20.376-21.519,30.686
			c3.961,9.242,12.393,13.422,24.943,6.585c2.797-1.524,4.516-4.486,4.516-7.672v-27.145
			C394.781,131.595,388.919,129.108,386.841,129.141z"/>
		<path style="fill:#003967;" d="M384.496,126.276c0,0-1.103,11.554,7.337,15.044c0,0-0.491,10.272,4.173,11.362v-22.805
			L384.496,126.276z"/>
		<path style="fill:#FFCFC0;" d="M393.124,150.907c0,0,3.764-7.937,9.574-5.728c5.81,2.209-0.736,22.503-9.574,12.765V150.907z"/>
		<path style="fill:#FFBBA9;" d="M396.006,156.881c0,0-0.474-12.212,7.019-8.356C406.101,150.334,396.877,163.509,396.006,156.881z"
			/>
		<g>
			<path style="fill:#FF8E77;" d="M375.469,157.822c-0.084,0-0.169-0.021-0.246-0.066l-5.83-3.375
				c-0.171-0.099-0.266-0.292-0.241-0.489c0.026-0.196,0.167-0.358,0.359-0.41c8.04-2.183,7.027-6.853,7.016-6.9
				c-0.063-0.264,0.1-0.528,0.363-0.591c0.267-0.064,0.529,0.1,0.592,0.364c0.012,0.054,1.132,5.175-6.615,7.744l4.849,2.807
				c0.234,0.136,0.315,0.436,0.178,0.671C375.803,157.734,375.638,157.822,375.469,157.822z"/>
			<g>
				<path style="fill:#003967;" d="M369.639,148.981c0,0.947-0.261,1.716-0.583,1.716c-0.322,0-0.583-0.768-0.583-1.716
					c0-0.948,0.261-1.716,0.583-1.716C369.378,147.266,369.639,148.034,369.639,148.981z"/>
				<path style="fill:#003967;" d="M385.079,148.981c0,0.947-0.261,1.716-0.583,1.716s-0.583-0.768-0.583-1.716
					c0-0.948,0.261-1.716,0.583-1.716S385.079,148.034,385.079,148.981z"/>
				<path style="fill:#003967;" d="M366.263,141.681c-0.186,0-0.363-0.106-0.446-0.286c-0.113-0.246-0.006-0.538,0.241-0.651
					c0.16-0.073,3.968-1.788,7.462-0.505c0.255,0.094,0.385,0.376,0.292,0.63c-0.093,0.255-0.377,0.386-0.63,0.292
					c-3.121-1.145-6.679,0.46-6.715,0.477C366.402,141.667,366.333,141.681,366.263,141.681z"/>
				<path style="fill:#003967;" d="M388.91,142.908c-0.168,0-0.332-0.087-0.424-0.243c-1.866-3.184-7.663-1.514-7.722-1.496
					c-0.258,0.076-0.533-0.072-0.61-0.331c-0.077-0.26,0.071-0.533,0.331-0.61c0.269-0.079,6.592-1.906,8.849,1.941
					c0.137,0.234,0.059,0.535-0.175,0.672C389.081,142.887,388.994,142.908,388.91,142.908z"/>
			</g>
			<path style="fill:#FF8E77;" d="M403.457,148.747c-0.014-0.025-1.43-2.542-4.661-0.939c-3.106,1.54-2.8,6.464-2.786,6.672
				c0.018,0.259,0.234,0.457,0.489,0.457c0.012,0,0.023,0,0.035-0.001c0.271-0.019,0.475-0.253,0.456-0.523
				c-0.003-0.04-0.216-3.622,1.569-5.252c0.67,0.557,1.076,1.203,1.173,1.935c0.221,1.663-1.085,3.267-1.097,3.283
				c-0.173,0.209-0.144,0.518,0.065,0.691c0.091,0.076,0.202,0.113,0.313,0.113c0.141,0,0.281-0.06,0.378-0.177
				c0.065-0.079,1.59-1.941,1.316-4.033c-0.119-0.9-0.561-1.69-1.289-2.368c2.188-0.981,3.081,0.443,3.176,0.611
				c0.13,0.24,0.429,0.326,0.667,0.197C403.498,149.283,403.586,148.985,403.457,148.747z"/>
			<path style="fill:none;stroke:#FF8E77;stroke-linecap:round;stroke-miterlimit:10;" d="M386,157.822c0,0-1.417,4.512-7.667,4.345
				"/>
		</g>
		<path style="fill:#D84841;" d="M434.62,377.38h-86.87c0,0,18.37-93.5,25.37-126.63c0.89-4.2,1.41-7.68,1.64-10.6
			c0.19-2.45,0.17-4.51,0.01-6.26c-0.76-7.85-4.72-9.52-7.85-12.78c-1.92-2-3.53-4.6-3.88-9.61c-0.84-11.92,5.29-23.7,9.09-29.76
			c0.42-0.15,0.83-0.28,1.26-0.4l6.42-1.82v-5.71c1.75-0.38,5.48-0.57,6.1,4.55c0.06,0.47,0.09,0.99,0.09,1.56h0.44
			c0,0-0.03-0.69,0.19-1.6c0.5-2.07,2.28-5.3,8.57-4.29l0.15,5.42l13.4,2.95c4.89,1.08,9.13,3.85,12.05,7.7
			c-3.85,4.77-6.92,10.39-9.07,16.6c-2.29,6.57-3.55,13.79-3.61,21.34c-0.02,1.68,0.03,3.37,0.13,5.08
			c0.01,0.09,0.01,0.17,0.02,0.26c0.49,7.53,2.1,11.85,4.15,16.55c0.77,1.77,1.59,3.59,2.43,5.65c2.37,5.75,4.89,13.39,6.77,27.04
			C426,314.38,434.62,377.38,434.62,377.38z"/>
		
			<linearGradient id="SVGID_00000137105739277656156190000018407841140112655753_" gradientUnits="userSpaceOnUse" x1="404.69" y1="247.0001" x2="404.69" y2="338.2143">
			<stop  offset="0" style="stop-color:#000000"/>
			<stop  offset="1" style="stop-color:#000000;stop-opacity:0"/>
		</linearGradient>
		<path style="opacity:0.1;fill:url(#SVGID_00000137105739277656156190000018407841140112655753_);" d="M434.62,377.38H421
			c-0.34-10.24-0.9-27.81-1.33-45.13c-0.551-21.981-1.324-42.22-7.78-67.463c-2.732-10.684-9.902-19.696-19.71-24.737l0,0
			c-2.02-1.04-4.37-1.32-6.55-0.67c-4.86,1.43-9.13,1.04-10.87,0.77c0.19-2.45,0.17-4.51,0.01-6.26l5.23-4.43l28.27,3.92
			c0.49,7.53,2.1,11.85,4.15,16.55c0.77,1.77,1.59,3.59,2.43,5.65c2.37,5.75,4.89,13.39,6.77,27.04
			C426,314.38,434.62,377.38,434.62,377.38z"/>
		<path style="fill:#FFCFC0;" d="M428.19,232.76c-0.14,2.39-0.38,4.82-0.73,7.29c-0.51,3.67-2.76,6.73-5.86,8.38l-11.99-5.19
			l-3.44-1.49l-17.29-7.5c0,0-8.84,2.92-12.92,2.33c-10.42-1.46-11.29-5.04-11.29-5.04h6.62v-2.73c0-4.31,4.59-1.69,7.5-3.27
			c6.25-3,9.71,1.21,9.71,1.21l16.42,2.48l2.22,0.34L428.19,232.76z"/>
		<path style="fill:#FFFFFF;" d="M448.83,455.47H441l-1.33-8.14c-14.107,8.542-30.744,8.374-36.458,8.015
			c-0.688-0.043-0.923-0.934-0.352-1.32l14.11-9.535c0.87,1.93,3.42,5.43,9.61,1.26c7.41-4.99,12.49-10.6,17.91-9.04
			C447.3,444.89,448.83,455.47,448.83,455.47z"/>
		<path style="fill:#FFFFFF;" d="M361.83,455.47v-8.14c0,0-14.16,8.14-29.33,8.14h-11.566c-1.963,0-2.583-2.649-0.824-3.521
			l17.79-8.809c0.34,2.51,1.61,5.32,5.85,3.98c6.33-1.99,16.8-10.2,24.31-7.46c0.83,6.67,1.94,15.81,1.94,15.81H361.83z"/>
		
			<linearGradient id="SVGID_00000062184413881076001500000005281135565758800563_" gradientUnits="userSpaceOnUse" x1="349.4017" y1="241.375" x2="361.98" y2="241.375">
			<stop  offset="0" style="stop-color:#000000"/>
			<stop  offset="1" style="stop-color:#000000;stop-opacity:0"/>
		</linearGradient>
		<path style="opacity:0.1;fill:url(#SVGID_00000062184413881076001500000005281135565758800563_);" d="M361.98,250.31h-3.15
			c-6.05,0-10.53-5.61-9.19-11.51l1.44-6.36c5.84,0.32,8.6,2.42,9.87,6.69C361.78,241.9,361.98,245.59,361.98,250.31z"/>
		<path style="opacity:0.1;" d="M361.98,250.31h-3.15c-6.05,0-10.53-5.61-9.19-11.51l1.44-6.36c5.84,0.32,8.6,2.42,9.87,6.69
			C361.78,241.9,361.98,245.59,361.98,250.31z"/>
		<path style="fill:#FF8E77;" d="M360.95,239.13l-1.69,11.18h-0.43c-6.05,0-10.53-5.61-9.19-11.51l1.44-6.36
			C356.92,232.76,359.68,234.86,360.95,239.13z"/>
		<path style="fill:#FFBBA9;" d="M359.26,250.31l-4.92-17.81l-3.26-0.07l-8.02-0.18v1.81l0.935,4.085
			C345.625,245.263,351.958,250.31,359.26,250.31L359.26,250.31z"/>
		<path style="fill:#FFCFC0;" d="M336.625,231.042c1.292,3.417,1.833,4.417,6.833,4.417s7.083,0,9.125,0
			c2.042,0,1.792-4.417,1.792-4.417H336.625z"/>
		<g>
			<g>
				<path style="fill:#FFC856;" d="M382,211.375c-0.188,0-0.349-0.14-0.372-0.33c-1.555-12.746,4.206-31.056,4.265-31.239
					c0.063-0.197,0.275-0.304,0.471-0.244c0.198,0.063,0.307,0.274,0.244,0.471c-0.058,0.182-5.77,18.338-4.235,30.921
					c0.025,0.206-0.121,0.393-0.327,0.417C382.03,211.374,382.015,211.375,382,211.375z"/>
				<g>
					<path style="fill:#FFC856;" d="M385.921,180.083c0-0.44-1.547-0.508-1.547-0.844c0-0.639-0.518-1.156-1.156-1.156
						c-0.639,0-1.156,0.518-1.156,1.156c0,0.336,0.148,0.632,0.378,0.844c-0.229,0.211-0.378,0.508-0.378,0.844
						c0,0.639,0.518,1.156,1.156,1.156c0.638,0,1.156-0.518,1.156-1.156C384.374,180.591,385.921,180.524,385.921,180.083z"/>
					<path style="fill:#FFC856;" d="M386.542,180.052c0-0.44,1.547-0.508,1.547-0.844c0-0.639,0.518-1.156,1.156-1.156
						c0.639,0,1.156,0.518,1.156,1.156c0,0.336-0.148,0.633-0.378,0.844c0.229,0.211,0.378,0.508,0.378,0.844
						c0,0.639-0.518,1.156-1.156,1.156c-0.639,0-1.156-0.518-1.156-1.156C388.089,180.56,386.542,180.493,386.542,180.052z"/>
					<path style="fill:#FFC856;" d="M384.219,186.021c0-0.44-1.547-0.508-1.547-0.844c0-0.639-0.518-1.156-1.156-1.156
						c-0.639,0-1.156,0.518-1.156,1.156c0,0.336,0.148,0.632,0.377,0.844c-0.229,0.211-0.377,0.508-0.377,0.844
						c0,0.639,0.518,1.156,1.156,1.156c0.639,0,1.156-0.518,1.156-1.156C382.672,186.528,384.219,186.461,384.219,186.021z"/>
					<path style="fill:#FFC856;" d="M384.849,186.021c0-0.44,1.547-0.508,1.547-0.844c0-0.639,0.518-1.156,1.156-1.156
						c0.638,0,1.156,0.518,1.156,1.156c0,0.336-0.148,0.632-0.378,0.844c0.229,0.211,0.378,0.508,0.378,0.844
						c0,0.639-0.518,1.156-1.156,1.156c-0.639,0-1.156-0.518-1.156-1.156C386.396,186.528,384.849,186.461,384.849,186.021z"/>
					<path style="fill:#FFC856;" d="M383.015,191.958c0-0.44-1.547-0.508-1.547-0.844c0-0.639-0.518-1.156-1.156-1.156
						c-0.639,0-1.156,0.518-1.156,1.156c0,0.336,0.148,0.632,0.377,0.844c-0.229,0.211-0.377,0.508-0.377,0.844
						c0,0.639,0.518,1.156,1.156,1.156c0.638,0,1.156-0.518,1.156-1.156C381.468,192.466,383.015,192.399,383.015,191.958z"/>
					<path style="fill:#FFC856;" d="M383.646,191.958c0-0.44,1.547-0.508,1.547-0.844c0-0.639,0.518-1.156,1.156-1.156
						c0.639,0,1.156,0.518,1.156,1.156c0,0.336-0.149,0.632-0.378,0.844c0.229,0.211,0.378,0.508,0.378,0.844
						c0,0.639-0.518,1.156-1.156,1.156c-0.639,0-1.156-0.518-1.156-1.156C385.193,192.466,383.646,192.399,383.646,191.958z"/>
					<path style="fill:#FFC856;" d="M382.173,197.896c0-0.44-1.547-0.508-1.547-0.844c0-0.639-0.518-1.156-1.156-1.156
						c-0.639,0-1.156,0.518-1.156,1.156c0,0.336,0.148,0.632,0.378,0.844c-0.229,0.211-0.378,0.508-0.378,0.844
						c0,0.639,0.518,1.156,1.156,1.156c0.639,0,1.156-0.518,1.156-1.156C380.626,198.403,382.173,198.336,382.173,197.896z"/>
					<path style="fill:#FFC856;" d="M382.391,197.896c0-0.44,1.547-0.508,1.547-0.844c0-0.639,0.518-1.156,1.156-1.156
						c0.639,0,1.156,0.518,1.156,1.156c0,0.336-0.148,0.632-0.378,0.844c0.229,0.211,0.378,0.508,0.378,0.844
						c0,0.639-0.518,1.156-1.156,1.156c-0.638,0-1.156-0.518-1.156-1.156C383.938,198.403,382.391,198.336,382.391,197.896z"/>
					<path style="fill:#FFC856;" d="M381.543,203.849c0-0.441-1.547-0.508-1.547-0.844c0-0.639-0.518-1.156-1.156-1.156
						c-0.639,0-1.156,0.518-1.156,1.156c0,0.336,0.148,0.632,0.378,0.844c-0.229,0.211-0.378,0.508-0.378,0.844
						c0,0.639,0.518,1.156,1.156,1.156c0.639,0,1.156-0.518,1.156-1.156C379.996,204.357,381.543,204.29,381.543,203.849z"/>
					<path style="fill:#FFC856;" d="M381.892,203.849c0-0.441,1.547-0.508,1.547-0.844c0-0.639,0.518-1.156,1.156-1.156
						c0.639,0,1.156,0.518,1.156,1.156c0,0.336-0.148,0.632-0.378,0.844c0.229,0.211,0.378,0.508,0.378,0.844
						c0,0.639-0.518,1.156-1.156,1.156c-0.639,0-1.156-0.518-1.156-1.156C383.439,204.357,381.892,204.29,381.892,203.849z"/>
				</g>
			</g>
		</g>
		<g>
			
				<linearGradient id="SVGID_00000012456503538668151150000004360028942886726017_" gradientUnits="userSpaceOnUse" x1="344.0742" y1="205.2147" x2="366.1843" y2="205.2147">
				<stop  offset="0" style="stop-color:#F8F7E5"/>
				<stop  offset="1" style="stop-color:#E9DF98"/>
			</linearGradient>
			<path style="fill:url(#SVGID_00000012456503538668151150000004360028942886726017_);" d="M360.871,215.62h-11.5
				c-3.96,0-6.52-4.19-4.7-7.72l3.39-6.58l1.88-3.64c1.12-2.18,3.4-3.13,5.52-2.81c1.46,0.22,2.83,1.05,3.71,2.48l2.67,4.37
				l3.56,5.85C367.551,211.11,365.021,215.62,360.871,215.62z"/>
			<g>
				<path style="fill:#006837;" d="M360.382,215.62h-11.01c-3.96,0-6.52-4.19-4.7-7.72l3.39-6.58l7.08,8.2l4.97,5.78L360.382,215.62
					z"/>
				<path style="fill:#22B573;" d="M360.871,215.62h-11l5.27-6.1l4.75-5.53l1.95-2.27l3.56,5.85
					C367.551,211.11,365.021,215.62,360.871,215.62z"/>
			</g>
			
				<linearGradient id="SVGID_00000070119320367062311210000003373227935571037879_" gradientUnits="userSpaceOnUse" x1="352.009" y1="211.8072" x2="346.1652" y2="207.1822">
				<stop  offset="0" style="stop-color:#54AF51"/>
				<stop  offset="1" style="stop-color:#6BCC69"/>
			</linearGradient>
			<path style="fill:url(#SVGID_00000070119320367062311210000003373227935571037879_);" d="M360.382,215.62h-11.01
				c-3.96,0-6.52-4.19-4.7-7.72l3.39-6.58l7.08,8.2l4.97,5.78L360.382,215.62z"/>
			<g>
				<defs>
					<path id="SVGID_00000057120150933695120840000008237136479636267162_" d="M360.386,215.625h-11.012
						c-3.962,0-6.522-4.19-4.705-7.723l3.389-6.579l7.079,8.195L360.386,215.625z"/>
				</defs>
				<clipPath id="SVGID_00000162321267108875186910000012579435727048560269_">
					<use xlink:href="#SVGID_00000057120150933695120840000008237136479636267162_"  style="overflow:visible;"/>
				</clipPath>
				<g style="opacity:0.1;clip-path:url(#SVGID_00000162321267108875186910000012579435727048560269_);">
					
						<line style="fill:none;stroke:#000000;stroke-width:0.75;stroke-miterlimit:10;" x1="346.696" y1="202.889" x2="358.951" y2="216.731"/>
					
						<line style="fill:none;stroke:#000000;stroke-width:0.75;stroke-miterlimit:10;" x1="344.621" y1="204.726" x2="356.876" y2="218.568"/>
					
						<line style="fill:none;stroke:#000000;stroke-width:0.75;stroke-miterlimit:10;" x1="342.546" y1="206.563" x2="354.8" y2="220.405"/>
					
						<line style="fill:none;stroke:#000000;stroke-width:0.75;stroke-miterlimit:10;" x1="340.471" y1="208.4" x2="352.725" y2="222.242"/>
					
						<line style="fill:none;stroke:#000000;stroke-width:0.75;stroke-miterlimit:10;" x1="338.396" y1="210.238" x2="350.65" y2="224.079"/>
				</g>
			</g>
			<path style="fill:#6BCC69;" d="M360.871,215.62h-11l5.27-6.1l4.75-5.53l1.95-2.27l3.56,5.85
				C367.551,211.11,365.021,215.62,360.871,215.62z"/>
			<g>
				<defs>
					<path id="SVGID_00000121241422949734353020000016386582817503499656_" d="M360.872,215.625h-10.998l5.263-6.107l6.707-7.794
						l3.561,5.849C367.551,211.106,365.019,215.625,360.872,215.625z"/>
				</defs>
				<clipPath id="SVGID_00000013908534116810515880000017633229766925432993_">
					<use xlink:href="#SVGID_00000121241422949734353020000016386582817503499656_"  style="overflow:visible;"/>
				</clipPath>
				<g style="opacity:0.1;clip-path:url(#SVGID_00000013908534116810515880000017633229766925432993_);">
					
						<line style="fill:none;stroke:#000000;stroke-width:0.75;stroke-miterlimit:10;" x1="363.113" y1="202.889" x2="350.859" y2="216.731"/>
					
						<line style="fill:none;stroke:#000000;stroke-width:0.75;stroke-miterlimit:10;" x1="365.188" y1="204.726" x2="352.934" y2="218.568"/>
					
						<line style="fill:none;stroke:#000000;stroke-width:0.75;stroke-miterlimit:10;" x1="367.264" y1="206.563" x2="355.009" y2="220.405"/>
					
						<line style="fill:none;stroke:#000000;stroke-width:0.75;stroke-miterlimit:10;" x1="369.339" y1="208.4" x2="357.084" y2="222.242"/>
					
						<line style="fill:none;stroke:#000000;stroke-width:0.75;stroke-miterlimit:10;" x1="371.414" y1="210.238" x2="359.159" y2="224.079"/>
				</g>
			</g>
			
				<linearGradient id="SVGID_00000101089257216202936650000010780724679263237810_" gradientUnits="userSpaceOnUse" x1="360.8229" y1="211.5" x2="360.8229" y2="198.8602">
				<stop  offset="0" style="stop-color:#000000"/>
				<stop  offset="1" style="stop-color:#000000;stop-opacity:0"/>
			</linearGradient>
			<path style="opacity:0.1;fill:url(#SVGID_00000101089257216202936650000010780724679263237810_);" d="M360.871,215.62h-1.23
				c0.17-0.09,0.33-0.2,0.47-0.32c2.51-1.94,1.89-6.11-0.22-11.31c-1.14-2.8-2.7-5.9-4.43-9.12c1.46,0.22,2.83,1.05,3.71,2.48
				l2.67,4.37l3.56,5.85C367.551,211.11,365.021,215.62,360.871,215.62z"/>
		</g>
		<g>
			
				<linearGradient id="SVGID_00000140713643307050111350000015222259300295137449_" gradientUnits="userSpaceOnUse" x1="331.6992" y1="205.2147" x2="353.8093" y2="205.2147">
				<stop  offset="0" style="stop-color:#F8F7E5"/>
				<stop  offset="1" style="stop-color:#E9DF98"/>
			</linearGradient>
			<path style="fill:url(#SVGID_00000140713643307050111350000015222259300295137449_);" d="M348.496,215.62h-11.5
				c-3.96,0-6.52-4.19-4.7-7.72l3.39-6.58l1.88-3.64c1.12-2.18,3.4-3.13,5.52-2.81c1.46,0.22,2.83,1.05,3.71,2.48l2.67,4.37
				l3.56,5.85C355.176,211.11,352.646,215.62,348.496,215.62z"/>
			<g>
				<path style="fill:#006837;" d="M348.007,215.62h-11.01c-3.96,0-6.52-4.19-4.7-7.72l3.39-6.58l7.08,8.2l4.97,5.78L348.007,215.62
					z"/>
				<path style="fill:#22B573;" d="M348.496,215.62h-11l5.27-6.1l4.75-5.53l1.95-2.27l3.56,5.85
					C355.176,211.11,352.646,215.62,348.496,215.62z"/>
			</g>
			
				<linearGradient id="SVGID_00000071550280233139268780000013354285927886376624_" gradientUnits="userSpaceOnUse" x1="339.634" y1="211.8072" x2="333.7902" y2="207.1822">
				<stop  offset="0" style="stop-color:#54AF51"/>
				<stop  offset="1" style="stop-color:#6BCC69"/>
			</linearGradient>
			<path style="fill:url(#SVGID_00000071550280233139268780000013354285927886376624_);" d="M348.007,215.62h-11.01
				c-3.96,0-6.52-4.19-4.7-7.72l3.39-6.58l7.08,8.2l4.97,5.78L348.007,215.62z"/>
			<g>
				<defs>
					<path id="SVGID_00000031181988640757623160000007388159592128553864_" d="M348.011,215.625h-11.012
						c-3.962,0-6.522-4.19-4.705-7.723l3.389-6.579l7.079,8.195L348.011,215.625z"/>
				</defs>
				<clipPath id="SVGID_00000046315041072113143800000004853723257273694085_">
					<use xlink:href="#SVGID_00000031181988640757623160000007388159592128553864_"  style="overflow:visible;"/>
				</clipPath>
				<g style="opacity:0.1;clip-path:url(#SVGID_00000046315041072113143800000004853723257273694085_);">
					
						<line style="fill:none;stroke:#000000;stroke-width:0.75;stroke-miterlimit:10;" x1="334.321" y1="202.889" x2="346.576" y2="216.731"/>
					
						<line style="fill:none;stroke:#000000;stroke-width:0.75;stroke-miterlimit:10;" x1="332.246" y1="204.726" x2="344.501" y2="218.568"/>
					
						<line style="fill:none;stroke:#000000;stroke-width:0.75;stroke-miterlimit:10;" x1="330.171" y1="206.563" x2="342.426" y2="220.405"/>
					
						<line style="fill:none;stroke:#000000;stroke-width:0.75;stroke-miterlimit:10;" x1="328.096" y1="208.4" x2="340.35" y2="222.242"/>
					
						<line style="fill:none;stroke:#000000;stroke-width:0.75;stroke-miterlimit:10;" x1="326.021" y1="210.238" x2="338.275" y2="224.079"/>
				</g>
			</g>
			<path style="fill:#6BCC69;" d="M348.496,215.62h-11l5.27-6.1l4.75-5.53l1.95-2.27l3.56,5.85
				C355.176,211.11,352.646,215.62,348.496,215.62z"/>
			<g>
				<defs>
					<path id="SVGID_00000001647060940095518580000017715090095279742878_" d="M348.497,215.625h-10.998l5.263-6.107l6.707-7.794
						l3.561,5.849C355.176,211.106,352.644,215.625,348.497,215.625z"/>
				</defs>
				<clipPath id="SVGID_00000102517267092418577880000003780811489965315007_">
					<use xlink:href="#SVGID_00000001647060940095518580000017715090095279742878_"  style="overflow:visible;"/>
				</clipPath>
				<g style="opacity:0.1;clip-path:url(#SVGID_00000102517267092418577880000003780811489965315007_);">
					
						<line style="fill:none;stroke:#000000;stroke-width:0.75;stroke-miterlimit:10;" x1="350.738" y1="202.889" x2="338.484" y2="216.731"/>
					
						<line style="fill:none;stroke:#000000;stroke-width:0.75;stroke-miterlimit:10;" x1="352.813" y1="204.726" x2="340.559" y2="218.568"/>
					
						<line style="fill:none;stroke:#000000;stroke-width:0.75;stroke-miterlimit:10;" x1="354.889" y1="206.563" x2="342.634" y2="220.405"/>
					
						<line style="fill:none;stroke:#000000;stroke-width:0.75;stroke-miterlimit:10;" x1="356.964" y1="208.4" x2="344.709" y2="222.242"/>
					
						<line style="fill:none;stroke:#000000;stroke-width:0.75;stroke-miterlimit:10;" x1="359.039" y1="210.238" x2="346.784" y2="224.079"/>
				</g>
			</g>
			
				<linearGradient id="SVGID_00000019671275284590140480000001077587776919889799_" gradientUnits="userSpaceOnUse" x1="348.4479" y1="211.5" x2="348.4479" y2="198.8602">
				<stop  offset="0" style="stop-color:#000000"/>
				<stop  offset="1" style="stop-color:#000000;stop-opacity:0"/>
			</linearGradient>
			<path style="opacity:0.1;fill:url(#SVGID_00000019671275284590140480000001077587776919889799_);" d="M348.496,215.62h-1.23
				c0.17-0.09,0.33-0.2,0.47-0.32c2.51-1.94,1.89-6.11-0.22-11.31c-1.14-2.8-2.7-5.9-4.43-9.12c1.46,0.22,2.83,1.05,3.71,2.48
				l2.67,4.37l3.56,5.85C355.176,211.11,352.646,215.62,348.496,215.62z"/>
		</g>
		<g>
			
				<linearGradient id="SVGID_00000137095246550402524510000017272639481474075543_" gradientUnits="userSpaceOnUse" x1="319.3242" y1="205.2147" x2="341.4343" y2="205.2147">
				<stop  offset="0" style="stop-color:#F8F7E5"/>
				<stop  offset="1" style="stop-color:#E9DF98"/>
			</linearGradient>
			<path style="fill:url(#SVGID_00000137095246550402524510000017272639481474075543_);" d="M336.121,215.62h-11.5
				c-3.96,0-6.52-4.19-4.7-7.72l3.39-6.58l1.88-3.64c1.12-2.18,3.4-3.13,5.52-2.81c1.46,0.22,2.83,1.05,3.71,2.48l2.67,4.37
				l3.56,5.85C342.801,211.11,340.271,215.62,336.121,215.62z"/>
			<g>
				<path style="fill:#006837;" d="M335.632,215.62h-11.01c-3.96,0-6.52-4.19-4.7-7.72l3.39-6.58l7.08,8.2l4.97,5.78L335.632,215.62
					z"/>
				<path style="fill:#22B573;" d="M336.121,215.62h-11l5.27-6.1l4.75-5.53l1.95-2.27l3.56,5.85
					C342.801,211.11,340.271,215.62,336.121,215.62z"/>
			</g>
			
				<linearGradient id="SVGID_00000013185567318422677070000017377825105860241319_" gradientUnits="userSpaceOnUse" x1="327.259" y1="211.8072" x2="321.4152" y2="207.1822">
				<stop  offset="0" style="stop-color:#54AF51"/>
				<stop  offset="1" style="stop-color:#6BCC69"/>
			</linearGradient>
			<path style="fill:url(#SVGID_00000013185567318422677070000017377825105860241319_);" d="M335.632,215.62h-11.01
				c-3.96,0-6.52-4.19-4.7-7.72l3.39-6.58l7.08,8.2l4.97,5.78L335.632,215.62z"/>
			<g>
				<defs>
					<path id="SVGID_00000093896607478351663200000016235988305485067136_" d="M335.636,215.625h-11.012
						c-3.962,0-6.522-4.19-4.705-7.723l3.389-6.579l7.079,8.195L335.636,215.625z"/>
				</defs>
				<clipPath id="SVGID_00000010302770747065855910000003778199064304844467_">
					<use xlink:href="#SVGID_00000093896607478351663200000016235988305485067136_"  style="overflow:visible;"/>
				</clipPath>
				<g style="opacity:0.1;clip-path:url(#SVGID_00000010302770747065855910000003778199064304844467_);">
					
						<line style="fill:none;stroke:#000000;stroke-width:0.75;stroke-miterlimit:10;" x1="321.946" y1="202.889" x2="334.201" y2="216.731"/>
					
						<line style="fill:none;stroke:#000000;stroke-width:0.75;stroke-miterlimit:10;" x1="319.871" y1="204.726" x2="332.126" y2="218.568"/>
					
						<line style="fill:none;stroke:#000000;stroke-width:0.75;stroke-miterlimit:10;" x1="317.796" y1="206.563" x2="330.051" y2="220.405"/>
					
						<line style="fill:none;stroke:#000000;stroke-width:0.75;stroke-miterlimit:10;" x1="315.721" y1="208.4" x2="327.975" y2="222.242"/>
					
						<line style="fill:none;stroke:#000000;stroke-width:0.75;stroke-miterlimit:10;" x1="313.646" y1="210.238" x2="325.9" y2="224.079"/>
				</g>
			</g>
			<path style="fill:#6BCC69;" d="M336.121,215.62h-11l5.27-6.1l4.75-5.53l1.95-2.27l3.56,5.85
				C342.801,211.11,340.271,215.62,336.121,215.62z"/>
			<g>
				<defs>
					<path id="SVGID_00000033345025882423673520000014530578210153009575_" d="M336.122,215.625h-10.998l5.263-6.107l6.707-7.794
						l3.561,5.849C342.801,211.106,340.269,215.625,336.122,215.625z"/>
				</defs>
				<clipPath id="SVGID_00000062911107136946094710000015068421799937742512_">
					<use xlink:href="#SVGID_00000033345025882423673520000014530578210153009575_"  style="overflow:visible;"/>
				</clipPath>
				<g style="opacity:0.1;clip-path:url(#SVGID_00000062911107136946094710000015068421799937742512_);">
					
						<line style="fill:none;stroke:#000000;stroke-width:0.75;stroke-miterlimit:10;" x1="338.363" y1="202.889" x2="326.109" y2="216.731"/>
					
						<line style="fill:none;stroke:#000000;stroke-width:0.75;stroke-miterlimit:10;" x1="340.438" y1="204.726" x2="328.184" y2="218.568"/>
					
						<line style="fill:none;stroke:#000000;stroke-width:0.75;stroke-miterlimit:10;" x1="342.514" y1="206.563" x2="330.259" y2="220.405"/>
					
						<line style="fill:none;stroke:#000000;stroke-width:0.75;stroke-miterlimit:10;" x1="344.589" y1="208.4" x2="332.334" y2="222.242"/>
					
						<line style="fill:none;stroke:#000000;stroke-width:0.75;stroke-miterlimit:10;" x1="346.664" y1="210.238" x2="334.409" y2="224.079"/>
				</g>
			</g>
			
				<linearGradient id="SVGID_00000148634230773623635510000000565036850527251844_" gradientUnits="userSpaceOnUse" x1="336.0729" y1="211.5" x2="336.0729" y2="198.8602">
				<stop  offset="0" style="stop-color:#000000"/>
				<stop  offset="1" style="stop-color:#000000;stop-opacity:0"/>
			</linearGradient>
			<path style="opacity:0.1;fill:url(#SVGID_00000148634230773623635510000000565036850527251844_);" d="M336.121,215.62h-1.23
				c0.17-0.09,0.33-0.2,0.47-0.32c2.51-1.94,1.89-6.11-0.22-11.31c-1.14-2.8-2.7-5.9-4.43-9.12c1.46,0.22,2.83,1.05,3.71,2.48
				l2.67,4.37l3.56,5.85C342.801,211.11,340.271,215.62,336.121,215.62z"/>
		</g>
		<g>
			<rect x="316.799" y="211.625" style="fill:#2453B3;" width="52.522" height="14.917"/>
			<rect x="314.45" y="213.21" style="fill:#6A7BC9;" width="57.22" height="16.25"/>
			<g>
				<defs>
					
						<rect id="SVGID_00000093147712802886669310000000984337939036596865_" x="314.451" y="213.208" width="57.217" height="16.25"/>
				</defs>
				<clipPath id="SVGID_00000182492462363558979150000008021506924636339613_">
					<use xlink:href="#SVGID_00000093147712802886669310000000984337939036596865_"  style="overflow:visible;"/>
				</clipPath>
				
					<rect x="310.923" y="220.833" style="clip-path:url(#SVGID_00000182492462363558979150000008021506924636339613_);fill:#2453B3;" width="64.274" height="1"/>
			</g>
			
				<linearGradient id="SVGID_00000180341405397538912700000014255997002581060508_" gradientUnits="userSpaceOnUse" x1="365.455" y1="226.875" x2="365.455" y2="213.7072">
				<stop  offset="0" style="stop-color:#000000"/>
				<stop  offset="1" style="stop-color:#000000;stop-opacity:0"/>
			</linearGradient>
			<path style="opacity:0.1;fill:url(#SVGID_00000180341405397538912700000014255997002581060508_);" d="M371.67,213.21v16.25
				h-12.43c5.04-4.03,5.05-11.53,4.44-16.25H371.67z"/>
		</g>
		<rect x="308" y="229" style="fill:#2453B3;" width="73.12" height="3.5"/>
		<path style="fill:#FFBBA9;" d="M428.19,232.76c-0.14,2.39-0.38,4.82-0.73,7.29c-0.51,3.67-2.76,6.73-5.86,8.38l-11.99-5.19
			l-3.44-1.49l-1.25-12.52l2.22,0.34L428.19,232.76z"/>
		<path style="fill:#D84841;" d="M428.19,232.76c-0.14,2.39-0.38,4.82-0.73,7.29c-0.51,3.67-2.76,6.73-5.86,8.38
			c-1.44,0.76-3.05,1.22-4.76,1.3l-4.42,0.2l-1.59,0.07l-1.11-6.16l7.89-4.51h-8.71l-1.76-9.76l-0.31-1.74l1.29,0.21l0.2,0.03
			c0.24,0.04,0.49,0.08,0.73,0.13c1.56,0.32,3.06,0.91,4.45,1.72l-0.05-0.13c-0.53-1.37-0.68-2.86-0.43-4.31
			c0.13-0.73,0.2-1.78,0.15-3.31c-0.1-2.52-0.85-9.89-1.44-15.47c0.8-2.32,1.74-4.57,2.8-6.72l0.01-0.01
			c1.76-3.58,3.86-6.89,6.26-9.87c1.56,2.05,2.74,4.4,3.46,6.96C426.69,205.77,429.08,218.44,428.19,232.76z"/>
		
			<linearGradient id="SVGID_00000094599287845082067010000010161721551592946851_" gradientUnits="userSpaceOnUse" x1="412.69" y1="211.6667" x2="412.69" y2="230.4317">
			<stop  offset="0" style="stop-color:#000000"/>
			<stop  offset="1" style="stop-color:#000000;stop-opacity:0"/>
		</linearGradient>
		<path style="opacity:0.1;fill:url(#SVGID_00000094599287845082067010000010161721551592946851_);" d="M416.33,235
			c0,0-5.73,0.31-7.28-6.8c1.56,0.32,3.06,0.91,4.45,1.72l-0.05-0.13c-0.53-1.37-0.68-2.86-0.43-4.31c0.13-0.73,0.2-1.78,0.15-3.31
			c-0.1-2.52-0.85-9.89-1.44-15.47c0.8-2.32,1.74-4.57,2.8-6.72c-0.33,3.52-0.51,9.63,0.89,17.35
			C417.67,229.75,414.83,229.33,416.33,235z"/>
	</g>
	<g>
		<g>
			<polygon style="fill:#FFBBA9;" points="191,424.286 194.192,438.391 201.819,441.012 201.819,444.499 180.051,444.499 
				176.295,426.725 			"/>
			<path style="fill:#DDDDDD;" d="M225.064,451.896c0.747,2.268-1.43,3.575-4.258,3.575h-43.729l0.448-3.575H225.064z"/>
			<path style="fill:#003967;" d="M178.86,441.251h15.431c1.195,0,2.183-0.93,2.257-2.122l0.125-2.027
				c7.739,2.399,13.557,4.655,17.857,6.71v8.084h-37.005L178.86,441.251z"/>
			<path style="fill:#FFFFFF;" d="M225.064,451.896H214.53v-8.084C221.418,447.104,224.4,449.88,225.064,451.896z"/>
		</g>
		<path style="fill:#003967;" d="M196,430.66l-23.75,4.13l-9.34-66.01c-0.19-1.31-0.1-2.66,0.25-3.94l0.72-2.55l-2.75,1.02
			c-1.08,0.4-2.22,0.6-3.37,0.6H85.12c-14.74,0-15.74-8.25-15.74-8.25l41.87-21.12l5.98,0.32l52.35,2.81
			c6.67,0.36,12.18,5.32,13.25,11.91L196,430.66z"/>
		
			<linearGradient id="SVGID_00000155867688814559825300000007096622247845365889_" gradientUnits="userSpaceOnUse" x1="93.305" y1="359.375" x2="93.305" y2="343.8781">
			<stop  offset="0" style="stop-color:#000000"/>
			<stop  offset="1" style="stop-color:#000000;stop-opacity:0"/>
		</linearGradient>
		<path style="opacity:0.1;fill:url(#SVGID_00000155867688814559825300000007096622247845365889_);" d="M117.23,334.86
			c-2.66,5.37-10.43,19.15-24.4,29.05h-7.71c-14.74,0-15.74-8.25-15.74-8.25l41.87-21.12L117.23,334.86z"/>
		<path style="fill:#FFCFC0;" d="M146.563,292.536l12.275-4.844c2.31-0.912,4.938,0.031,6.142,2.204l5.896,10.64h-24.313V292.536z"
			/>
		
			<line style="fill:none;stroke:#FF8E77;stroke-linecap:round;stroke-miterlimit:10;" x1="162.417" y1="289.911" x2="169.083" y2="301.37"/>
		
			<line style="fill:none;stroke:#FF8E77;stroke-linecap:round;stroke-miterlimit:10;" x1="160.125" y1="293.142" x2="168.369" y2="303.523"/>
		
			<line style="fill:none;stroke:#FF8E77;stroke-linecap:round;stroke-miterlimit:10;" x1="157.702" y1="296.134" x2="167.132" y2="305.452"/>
		<path style="fill:#003967;" d="M65.69,187.406c-20,3.82-19.81,26.19-14.44,33.94c4.23,6.11,8,10.74,9.41,12.43l2.34-7.49
			c0,0-7.5-0.5-6.58-7.58c0.488-3.812,3.634-7.548,6.58-8.126v10.143h12.25v-15.708c2.104,1.236,5.046,2.496,8.13,2.331
			c5.67-0.3,2.54-3.57,2.32-3.8c0.09,0.04,1.32,0.73,3.01,1.54c3.82,1.83,10.02,4.31,10.79,1.51
			C100.94,201.476,85.69,183.596,65.69,187.406z"/>
		<path style="fill:#FFCFC0;" d="M94.35,220.006l-3.99,2.66c0.03,1.23,0.04,2.42,0.03,3.57c0,6.58-5.53,11.8-12.1,11.48l-6.07-0.3
			l-3.22,8.87l-11-4l2.66-8.51l2.34-7.49c0,0-7.5-0.5-6.58-7.58c0.83-6.48,9.34-12.75,11.49-3.64c0.2,0.85,0.34,1.84,0.42,2.97
			c0,0,5.6-7.57,4.63-14.56c1.74,1.33,5.93,4.11,10.42,3.87c5.67-0.3,2.54-3.57,2.32-3.8c0.09,0.04,1.32,0.73,3.01,1.54
			c0.73,3.52,1.17,7.51,1.41,11.48l3.61,0.58C95.14,217.376,95.54,219.216,94.35,220.006z"/>
		<g>
			<path style="fill:#FF8E77;" d="M86.734,227.599c-0.069-0.267-0.342-0.427-0.609-0.359c-5.291,1.367-6.793-1.887-6.854-2.027
				c-0.109-0.252-0.402-0.369-0.655-0.261c-0.254,0.108-0.372,0.402-0.264,0.656c0.015,0.035,1.318,2.963,5.379,2.963
				c0.777,0,1.655-0.107,2.644-0.362C86.642,228.139,86.803,227.866,86.734,227.599z"/>
			<path style="fill:#FF8E77;" d="M61.826,214.18c-1.991,0.487-3.067,3.603-3.112,3.735c-0.088,0.261,0.052,0.545,0.313,0.634
				c0.263,0.09,0.545-0.052,0.634-0.313c0.256-0.757,1.188-2.787,2.402-3.085c0.49-0.118,1.002,0.071,1.556,0.551
				c-0.664,0.167-1.179,0.499-1.512,1.019c-1.131,1.77,0.316,4.895,0.378,5.028c0.085,0.181,0.265,0.287,0.453,0.287
				c0.071,0,0.144-0.015,0.212-0.047c0.25-0.118,0.357-0.416,0.24-0.666c-0.358-0.762-1.136-2.977-0.441-4.063
				c0.27-0.422,0.766-0.637,1.486-0.674c1.746,2.352,0.396,4.579,0.331,4.683c-0.147,0.233-0.078,0.542,0.154,0.689
				c0.084,0.053,0.176,0.078,0.268,0.078c0.164,0,0.325-0.081,0.42-0.23c0.022-0.035,2.183-3.508-1.137-6.693
				C63.601,214.277,62.71,213.964,61.826,214.18z"/>
		</g>
		<path style="fill:#D84841;" d="M118.67,332.116C103,351.956,67,360.956,67,360.956s-14.33-49-18.84-72.84
			c-4.51-23.83,10.09-50.91,10.09-50.91l18.33,8.58l-6.08,8.17l3.87,8.88l23.76,54.58l3.21,7.37c0.59,1.35,0.71,2.86,0.33,4.28
			l-0.75,2.89l2.06-1.08c1.26-0.65,2.69-0.88,4.09-0.65L118.67,332.116z"/>
		<path style="fill:#003967;" d="M84.031,213.786c0,1.059-0.336,1.917-0.75,1.917c-0.414,0-0.75-0.858-0.75-1.917
			c0-1.059,0.336-1.917,0.75-1.917C83.696,211.87,84.031,212.728,84.031,213.786z"/>
		<path style="fill:#003967;" d="M80.166,209.119c-0.123,0-0.248-0.046-0.344-0.138c-0.2-0.19-0.209-0.505-0.02-0.705
			c0.03-0.033,3.107-3.215,6.736-0.648c0.225,0.16,0.279,0.472,0.119,0.697c-0.159,0.226-0.471,0.278-0.697,0.119
			c-2.91-2.06-5.33,0.414-5.432,0.52C80.431,209.067,80.299,209.119,80.166,209.119z"/>
		
			<linearGradient id="SVGID_00000013916040603306840290000011586871859833807799_" gradientUnits="userSpaceOnUse" x1="77.7527" y1="293.0741" x2="90.0027" y2="320.3241">
			<stop  offset="0" style="stop-color:#000000"/>
			<stop  offset="1" style="stop-color:#000000;stop-opacity:0"/>
		</linearGradient>
		<path style="opacity:0.1;fill:url(#SVGID_00000013916040603306840290000011586871859833807799_);" d="M98.13,317.416
			c-22.76-1.29-28.05-13.57-38.94-49.38l15.18-5.2L98.13,317.416z"/>
		<path style="fill:#D84841;" d="M64.25,253.703c7.975-1.657,15.167,8.667,33.25,33.5h49.333l2.083,15.417
			c0,0-38.667,9.167-58.667,4.167c-12.167-2.75-28.917-26.583-31.333-33.75C56.5,265.87,57.833,255.036,64.25,253.703z"/>
	</g>
	<g>
		<g>
			<path style="fill:#FFC856;" d="M133.333,369.623H64.5v-3.5c0-2.853,2.313-5.167,5.167-5.167h62c2.853,0,5.167,2.313,5.167,5.167
				l0,0C136.833,368.056,135.266,369.623,133.333,369.623z"/>
			<path style="fill:none;stroke:#6A7BC9;stroke-width:2;stroke-linecap:round;stroke-miterlimit:10;" d="M37.667,455.471
				l24.486-79.869c1.534-4.859,1.672-10.051,0.398-14.985L35.5,255.833"/>
			<path style="fill:none;stroke:#6A7BC9;stroke-width:2;stroke-linecap:round;stroke-miterlimit:10;" d="M63.414,370.453h63.34
				c5.822,0,10.795,4.197,11.774,9.936l12.805,75.082"/>
		</g>
		<g>
			<path style="fill:#FFC856;" d="M377.688,370.453h68.833v-3.5c0-2.854-2.313-5.167-5.167-5.167h-62
				c-2.854,0-5.167,2.313-5.167,5.167l0,0C374.188,368.886,375.755,370.453,377.688,370.453z"/>
			<path style="fill:none;stroke:#6A7BC9;stroke-width:2;stroke-linecap:round;stroke-miterlimit:10;" d="M473.355,455.471
				l-24.487-77.582c-1.534-4.859-1.671-10.051-0.398-14.985l27.051-104.784"/>
			<path style="fill:none;stroke:#6A7BC9;stroke-width:2;stroke-linecap:round;stroke-miterlimit:10;" d="M447.607,370.453h-63.34
				c-5.822,0-10.795,4.197-11.774,9.936l-12.806,75.082"/>
		</g>
	</g>
	<g>
		<g>
			<g>
				
					<linearGradient id="SVGID_00000023279781054419876310000014489112783768277928_" gradientUnits="userSpaceOnUse" x1="200.9244" y1="281.7597" x2="223.0345" y2="281.7597">
					<stop  offset="0" style="stop-color:#F8F7E5"/>
					<stop  offset="1" style="stop-color:#E9DF98"/>
				</linearGradient>
				<path style="fill:url(#SVGID_00000023279781054419876310000014489112783768277928_);" d="M217.722,292.165h-11.5
					c-3.96,0-6.52-4.19-4.7-7.72l3.39-6.58l1.88-3.64c1.12-2.18,3.4-3.13,5.52-2.81c1.46,0.22,2.83,1.05,3.71,2.48l2.67,4.37
					l3.56,5.85C224.402,287.655,221.872,292.165,217.722,292.165z"/>
				<g>
					<path style="fill:#006837;" d="M217.232,292.165h-11.01c-3.96,0-6.52-4.19-4.7-7.72l3.39-6.58l7.08,8.2l4.97,5.78
						L217.232,292.165z"/>
					<path style="fill:#22B573;" d="M217.722,292.165h-11l5.27-6.1l4.75-5.53l1.95-2.27l3.56,5.85
						C224.402,287.655,221.872,292.165,217.722,292.165z"/>
				</g>
				
					<linearGradient id="SVGID_00000068646150162387015250000012848153358746584204_" gradientUnits="userSpaceOnUse" x1="208.8591" y1="288.3522" x2="203.0154" y2="283.7272">
					<stop  offset="0" style="stop-color:#54AF51"/>
					<stop  offset="1" style="stop-color:#6BCC69"/>
				</linearGradient>
				<path style="fill:url(#SVGID_00000068646150162387015250000012848153358746584204_);" d="M217.232,292.165h-11.01
					c-3.96,0-6.52-4.19-4.7-7.72l3.39-6.58l7.08,8.2l4.97,5.78L217.232,292.165z"/>
				<g>
					<defs>
						<path id="SVGID_00000131342089512962133880000003241783237344946618_" d="M217.236,292.17h-11.012
							c-3.962,0-6.521-4.19-4.705-7.723l3.39-6.579l7.079,8.195L217.236,292.17z"/>
					</defs>
					<clipPath id="SVGID_00000151508578115921287550000010126805030733431462_">
						<use xlink:href="#SVGID_00000131342089512962133880000003241783237344946618_"  style="overflow:visible;"/>
					</clipPath>
					<g style="opacity:0.1;clip-path:url(#SVGID_00000151508578115921287550000010126805030733431462_);">
						
							<line style="fill:none;stroke:#000000;stroke-width:0.75;stroke-miterlimit:10;" x1="203.546" y1="279.434" x2="215.801" y2="293.276"/>
						
							<line style="fill:none;stroke:#000000;stroke-width:0.75;stroke-miterlimit:10;" x1="201.471" y1="281.271" x2="213.726" y2="295.113"/>
						
							<line style="fill:none;stroke:#000000;stroke-width:0.75;stroke-miterlimit:10;" x1="199.396" y1="283.108" x2="211.651" y2="296.95"/>
						
							<line style="fill:none;stroke:#000000;stroke-width:0.75;stroke-miterlimit:10;" x1="197.321" y1="284.945" x2="209.576" y2="298.787"/>
						
							<line style="fill:none;stroke:#000000;stroke-width:0.75;stroke-miterlimit:10;" x1="195.246" y1="286.783" x2="207.5" y2="300.624"/>
					</g>
				</g>
				<path style="fill:#6BCC69;" d="M217.722,292.165h-11l5.27-6.1l4.75-5.53l1.95-2.27l3.56,5.85
					C224.402,287.655,221.872,292.165,217.722,292.165z"/>
				<g>
					<defs>
						<path id="SVGID_00000160899185235966532100000014920507116007645365_" d="M217.722,292.17h-10.998l5.263-6.107l6.707-7.794
							l3.561,5.849C224.401,287.651,221.87,292.17,217.722,292.17z"/>
					</defs>
					<clipPath id="SVGID_00000027562210943860302110000000583661329490386594_">
						<use xlink:href="#SVGID_00000160899185235966532100000014920507116007645365_"  style="overflow:visible;"/>
					</clipPath>
					<g style="opacity:0.1;clip-path:url(#SVGID_00000027562210943860302110000000583661329490386594_);">
						
							<line style="fill:none;stroke:#000000;stroke-width:0.75;stroke-miterlimit:10;" x1="219.964" y1="279.434" x2="207.709" y2="293.276"/>
						
							<line style="fill:none;stroke:#000000;stroke-width:0.75;stroke-miterlimit:10;" x1="222.039" y1="281.271" x2="209.784" y2="295.113"/>
						
							<line style="fill:none;stroke:#000000;stroke-width:0.75;stroke-miterlimit:10;" x1="224.114" y1="283.108" x2="211.859" y2="296.95"/>
						
							<line style="fill:none;stroke:#000000;stroke-width:0.75;stroke-miterlimit:10;" x1="226.189" y1="284.945" x2="213.934" y2="298.787"/>
						
							<line style="fill:none;stroke:#000000;stroke-width:0.75;stroke-miterlimit:10;" x1="228.264" y1="286.783" x2="216.009" y2="300.624"/>
					</g>
				</g>
				
					<linearGradient id="SVGID_00000032645160802715286540000017991755837102213015_" gradientUnits="userSpaceOnUse" x1="217.6731" y1="285.5" x2="217.6731" y2="274">
					<stop  offset="0" style="stop-color:#000000"/>
					<stop  offset="1" style="stop-color:#000000;stop-opacity:0"/>
				</linearGradient>
				<path style="opacity:0.1;fill:url(#SVGID_00000032645160802715286540000017991755837102213015_);" d="M217.722,292.165h-1.23
					c0.17-0.09,0.33-0.2,0.47-0.32c2.51-1.94,1.89-6.11-0.22-11.31c-1.14-2.8-2.7-5.9-4.43-9.12c1.46,0.22,2.83,1.05,3.71,2.48
					l2.67,4.37l3.56,5.85C224.402,287.655,221.872,292.165,217.722,292.165z"/>
			</g>
			<g>
				
					<linearGradient id="SVGID_00000036937764082025726250000000387856880640308107_" gradientUnits="userSpaceOnUse" x1="185.3788" y1="281.7597" x2="207.4889" y2="281.7597">
					<stop  offset="0" style="stop-color:#F8F7E5"/>
					<stop  offset="1" style="stop-color:#E9DF98"/>
				</linearGradient>
				<path style="fill:url(#SVGID_00000036937764082025726250000000387856880640308107_);" d="M202.176,292.165h-11.5
					c-3.96,0-6.52-4.19-4.7-7.72l3.39-6.58l1.88-3.64c1.12-2.18,3.4-3.13,5.52-2.81c1.46,0.22,2.83,1.05,3.71,2.48l2.67,4.37
					l3.56,5.85C208.856,287.655,206.326,292.165,202.176,292.165z"/>
				<g>
					<path style="fill:#006837;" d="M201.686,292.165h-11.01c-3.96,0-6.52-4.19-4.7-7.72l3.39-6.58l7.08,8.2l4.97,5.78
						L201.686,292.165z"/>
					<path style="fill:#22B573;" d="M202.176,292.165h-11l5.27-6.1l4.75-5.53l1.95-2.27l3.56,5.85
						C208.856,287.655,206.326,292.165,202.176,292.165z"/>
				</g>
				
					<linearGradient id="SVGID_00000062884147361360357700000018098989123059996304_" gradientUnits="userSpaceOnUse" x1="193.3136" y1="288.3522" x2="187.4698" y2="283.7272">
					<stop  offset="0" style="stop-color:#54AF51"/>
					<stop  offset="1" style="stop-color:#6BCC69"/>
				</linearGradient>
				<path style="fill:url(#SVGID_00000062884147361360357700000018098989123059996304_);" d="M201.686,292.165h-11.01
					c-3.96,0-6.52-4.19-4.7-7.72l3.39-6.58l7.08,8.2l4.97,5.78L201.686,292.165z"/>
				<g>
					<defs>
						<path id="SVGID_00000110447443815263940420000017118755687677574320_" d="M201.69,292.17h-11.012
							c-3.962,0-6.521-4.19-4.705-7.723l3.389-6.579l7.079,8.195L201.69,292.17z"/>
					</defs>
					<clipPath id="SVGID_00000016769927054954145920000014660746429696368281_">
						<use xlink:href="#SVGID_00000110447443815263940420000017118755687677574320_"  style="overflow:visible;"/>
					</clipPath>
					<g style="opacity:0.1;clip-path:url(#SVGID_00000016769927054954145920000014660746429696368281_);">
						
							<line style="fill:none;stroke:#000000;stroke-width:0.75;stroke-miterlimit:10;" x1="188.001" y1="279.434" x2="200.255" y2="293.276"/>
						
							<line style="fill:none;stroke:#000000;stroke-width:0.75;stroke-miterlimit:10;" x1="185.925" y1="281.271" x2="198.18" y2="295.113"/>
						
							<line style="fill:none;stroke:#000000;stroke-width:0.75;stroke-miterlimit:10;" x1="183.85" y1="283.108" x2="196.105" y2="296.95"/>
						
							<line style="fill:none;stroke:#000000;stroke-width:0.75;stroke-miterlimit:10;" x1="181.775" y1="284.945" x2="194.03" y2="298.787"/>
						
							<line style="fill:none;stroke:#000000;stroke-width:0.75;stroke-miterlimit:10;" x1="179.7" y1="286.783" x2="191.955" y2="300.624"/>
					</g>
				</g>
				<path style="fill:#6BCC69;" d="M202.176,292.165h-11l5.27-6.1l4.75-5.53l1.95-2.27l3.56,5.85
					C208.856,287.655,206.326,292.165,202.176,292.165z"/>
				<g>
					<defs>
						<path id="SVGID_00000063614988829391000490000014418916800294869158_" d="M202.176,292.17h-10.998l5.263-6.107l6.707-7.794
							l3.561,5.849C208.855,287.651,206.324,292.17,202.176,292.17z"/>
					</defs>
					<clipPath id="SVGID_00000123438784830873068690000001431714263794485130_">
						<use xlink:href="#SVGID_00000063614988829391000490000014418916800294869158_"  style="overflow:visible;"/>
					</clipPath>
					<g style="opacity:0.1;clip-path:url(#SVGID_00000123438784830873068690000001431714263794485130_);">
						
							<line style="fill:none;stroke:#000000;stroke-width:0.75;stroke-miterlimit:10;" x1="204.418" y1="279.434" x2="192.163" y2="293.276"/>
						
							<line style="fill:none;stroke:#000000;stroke-width:0.75;stroke-miterlimit:10;" x1="206.493" y1="281.271" x2="194.238" y2="295.113"/>
						
							<line style="fill:none;stroke:#000000;stroke-width:0.75;stroke-miterlimit:10;" x1="208.568" y1="283.108" x2="196.314" y2="296.95"/>
						
							<line style="fill:none;stroke:#000000;stroke-width:0.75;stroke-miterlimit:10;" x1="210.643" y1="284.945" x2="198.389" y2="298.787"/>
						
							<line style="fill:none;stroke:#000000;stroke-width:0.75;stroke-miterlimit:10;" x1="212.718" y1="286.783" x2="200.464" y2="300.624"/>
					</g>
				</g>
				
					<linearGradient id="SVGID_00000147185022185573152740000012192625554493219722_" gradientUnits="userSpaceOnUse" x1="202.1275" y1="287.875" x2="202.1275" y2="279.8887">
					<stop  offset="0" style="stop-color:#000000"/>
					<stop  offset="1" style="stop-color:#000000;stop-opacity:0"/>
				</linearGradient>
				<path style="opacity:0.1;fill:url(#SVGID_00000147185022185573152740000012192625554493219722_);" d="M202.176,292.165h-1.23
					c0.17-0.09,0.33-0.2,0.47-0.32c2.51-1.94,1.89-6.11-0.22-11.31c-1.14-2.8-2.7-5.9-4.43-9.12c1.46,0.22,2.83,1.05,3.71,2.48
					l2.67,4.37l3.56,5.85C208.856,287.655,206.326,292.165,202.176,292.165z"/>
			</g>
			<g>
				<rect x="183.628" y="290.286" style="fill:#2453B3;" width="41.16" height="1.04"/>
				<path style="fill:#6A7BC9;" d="M225.498,291.056l-1.42,1.72c-2.27,2.76-5.65,4.36-9.22,4.36h-21.3c-3.57,0-6.96-1.6-9.23-4.36
					l-1.41-1.72H225.498z"/>
				<polygon style="fill:#2453B3;" points="215.088,300.536 193.318,300.536 194.148,297.726 194.318,297.136 214.088,297.136 				
					"/>
				<path style="opacity:0.1;" d="M225.498,291.056l-1.42,1.72c-2.27,2.76-5.65,4.36-9.22,4.36h-0.77l1,3.4h-5.55l0,0
					c-0.265-1.62-1.665-2.81-3.307-2.81h-12.083l0.17-0.59h10.31c8.96,0,11.17-3.23,11.42-5.81c0-0.09,0.01-0.18,0.01-0.27
					c0.01-0.08,0.01-0.17,0.01-0.25v-0.52h8.72v0.77H225.498z"/>
			</g>
		</g>
		<polygon style="fill:#6A7BC9;" points="342.403,300.536 332.122,300.536 330.122,279.37 344.403,279.37 		"/>
		<g>
			<rect x="255.549" y="259.849" style="fill:#6A7BC9;" width="2.656" height="2.656"/>
			<path style="fill:#BAD7FF;" d="M258.596,257.474h-3.438c-0.656,0-1.188,0.532-1.188,1.188l0,0c0,0.656,0.532,1.188,1.188,1.188
				h3.438c0.656,0,1.187-0.532,1.187-1.188l0,0C259.784,258.005,259.252,257.474,258.596,257.474z"/>
			<path style="fill:#BAD7FF;" d="M291.31,279.476v3.31h-68.87v-3.31c0-9.77,7.92-17.69,17.69-17.69h33.5
				C283.4,261.786,291.31,269.706,291.31,279.476z"/>
			<polygon style="fill:#2453B3;" points="278.93,300.536 234.83,300.536 236.15,297.666 236.85,296.136 276.9,296.136 			"/>
			<path style="fill:#6A7BC9;" d="M293.83,281.786l-0.34,1.23c-2.16,7.76-9.23,13.12-17.28,13.12h-38.67
				c-8.05,0-15.11-5.36-17.27-13.12l-0.35-1.23H293.83z"/>
			
				<linearGradient id="SVGID_00000152250154207146042520000012264475881508160133_" gradientUnits="userSpaceOnUse" x1="264.99" y1="286.125" x2="264.99" y2="264.8669">
				<stop  offset="0" style="stop-color:#000000"/>
				<stop  offset="1" style="stop-color:#000000;stop-opacity:0"/>
			</linearGradient>
			<path style="opacity:0.1;fill:url(#SVGID_00000152250154207146042520000012264475881508160133_);" d="M291.31,281.786v-2.31
				c0-9.77-7.91-17.69-17.68-17.69h-3.84c3.162,2.452,7.318,7.962,8.305,20h-0.535c-0.32,9.14-4.9,14.35-18.98,14.35h-21.73
				l-0.7,1.53h25.606c2.248,0,4.364,1.065,5.704,2.87h11.47l-2.03-4.4h-0.69c8.05,0,15.12-5.36,17.28-13.12l0.34-1.23H291.31z"/>
		</g>
		<path style="fill:none;stroke:#6A7BC9;stroke-width:2;stroke-linecap:round;stroke-miterlimit:10;" d="M126.75,455.471
			l18.99-118.167c1.831-11.391,11.66-19.767,23.197-19.767h164.904c11.537,0,21.367,8.376,23.197,19.767l18.99,118.167"/>
		<polygon style="fill:#FFC856;" points="389.75,359.036 124,359.036 134,300.536 379.75,300.536 		"/>
		<g>
			<circle style="fill:#D84841;" cx="299.471" cy="281.76" r="3.563"/>
			
				<linearGradient id="SVGID_00000126295848359276545830000010777988797098665652_" gradientUnits="userSpaceOnUse" x1="285.9587" y1="285.8766" x2="276.4587" y2="281.6266">
				<stop  offset="0" style="stop-color:#54AF51"/>
				<stop  offset="1" style="stop-color:#6BCC69"/>
			</linearGradient>
			<path style="fill:url(#SVGID_00000126295848359276545830000010777988797098665652_);" d="M283.658,290.62
				c0,0-6.958-1.042-7.167-3.208c-0.208-2.167,6.5-0.625,6.5-0.625s-3.875-1.833-1.792-3.792c2.083-1.958,5,1.833,5,1.833
				s-0.917-2.667,2.417-3.042c3.333-0.375,2.417,3.75,2.417,3.75s2.333-4.458,4.333-1.792c2,2.667-2.182,6.875-2.182,6.875H283.658z
				"/>
			
				<linearGradient id="SVGID_00000018224598235870787810000000365729830231510657_" gradientUnits="userSpaceOnUse" x1="306.6529" y1="289.6197" x2="297.528" y2="281.1197">
				<stop  offset="0" style="stop-color:#54AF51"/>
				<stop  offset="1" style="stop-color:#6BCC69"/>
			</linearGradient>
			<path style="fill:url(#SVGID_00000018224598235870787810000000365729830231510657_);" d="M293.408,290.62
				c0,0-2.833-9.5-0.375-11.125c2.458-1.625,5.208,2.125,5.75,3.75c0,0,0.042-3.625,3.875-3.458c3.833,0.167,2.75,4.458,2.75,4.458
				s1.625-3.917,4.083-3.083c2.458,0.833,0.917,4.708,0.917,4.708s2.083-2.917,4.625-1.667c2.542,1.25-1.125,5.167-3.458,6.417
				H293.408z"/>
			<circle style="fill:#D84841;" cx="305.652" cy="288.42" r="3.563"/>
			<circle style="fill:#D84841;" cx="315.895" cy="288.42" r="3.563"/>
			<rect x="281.51" y="290.286" style="fill:#2453B3;" width="41.16" height="1.04"/>
			<path style="fill:#6A7BC9;" d="M323.38,291.056l-1.42,1.72c-2.26,2.76-5.65,4.36-9.22,4.36h-21.3c-3.57,0-6.96-1.6-9.23-4.36
				l-1.41-1.72H323.38z"/>
			<polygon style="fill:#2453B3;" points="312.98,300.536 291.2,300.536 291.96,297.956 292.2,297.136 311.98,297.136 			"/>
			<path style="opacity:0.1;" d="M323.38,291.056l-1.42,1.72c-2.26,2.76-5.65,4.36-9.22,4.36h-0.76l1,3.4h-4.78l-0.71-2.58h-15.53
				l0.24-0.82h16.29c5.02,0,8.27-4.25,9.2-5.64c0.04-0.06,0.08-0.12,0.11-0.17c0.11-0.17,0.17-0.27,0.17-0.27h-1.9v-0.77h6.6v0.77
				H323.38z"/>
		</g>
		<g>
			<defs>
				<polygon id="SVGID_00000165949313179567746450000008119242228933917368_" points="389.75,359.036 124,359.036 134,300.536 
					379.75,300.536 				"/>
			</defs>
			<clipPath id="SVGID_00000016756827366558735450000005459428591197152701_">
				<use xlink:href="#SVGID_00000165949313179567746450000008119242228933917368_"  style="overflow:visible;"/>
			</clipPath>
			<g style="clip-path:url(#SVGID_00000016756827366558735450000005459428591197152701_);">
				<g>
					<g>
						<polygon style="fill:#FFFFFF;" points="128.368,368.874 127.873,368.804 139.578,287.311 140.073,287.381 						"/>
						<polygon style="fill:#FFFFFF;" points="149.86,368.868 149.364,368.81 159.119,287.317 159.615,287.375 						"/>
						<polygon style="fill:#FFFFFF;" points="171.354,368.862 170.856,368.816 178.659,287.323 179.157,287.369 						"/>
						<polygon style="fill:#FFFFFF;" points="192.847,368.857 192.348,368.822 198.201,287.328 198.7,287.363 						"/>
						
							<rect x="175.247" y="327.843" transform="matrix(0.0468 -0.9989 0.9989 0.0468 -121.8096 528.5307)" style="fill:#FFFFFF;" width="81.587" height="0.5"/>
						
							<rect x="195.8" y="327.842" transform="matrix(0.0234 -0.9997 0.9997 0.0234 -96.9788 556.9103)" style="fill:#FFFFFF;" width="81.516" height="0.5"/>
						<rect x="256.825" y="287.346" style="fill:#FFFFFF;" width="0.5" height="81.493"/>
						
							<rect x="277.342" y="287.334" transform="matrix(0.9997 -0.0239 0.0239 0.9997 -7.7738 6.7385)" style="fill:#FFFFFF;" width="0.5" height="81.517"/>
						<polygon style="fill:#FFFFFF;" points="299.81,368.851 295.908,287.358 296.408,287.334 300.31,368.827 						"/>
						<polygon style="fill:#FFFFFF;" points="321.304,368.857 315.451,287.363 315.949,287.328 321.802,368.822 						"/>
						<polygon style="fill:#FFFFFF;" points="342.796,368.862 334.992,287.369 335.49,287.323 343.294,368.816 						"/>
						<polygon style="fill:#FFFFFF;" points="364.289,368.868 354.535,287.375 355.031,287.317 364.785,368.81 						"/>
						<polygon style="fill:#FFFFFF;" points="385.783,368.874 374.078,287.381 374.572,287.311 386.277,368.804 						"/>
					</g>
					<g>
						<rect x="121.7" y="303.414" style="fill:#FFFFFF;" width="273.5" height="0.5"/>
						<rect x="121.7" y="319.922" style="fill:#FFFFFF;" width="273.5" height="0.5"/>
						<rect x="121.7" y="336.43" style="fill:#FFFFFF;" width="273.5" height="0.5"/>
						<rect x="121.7" y="352.938" style="fill:#FFFFFF;" width="273.5" height="0.5"/>
					</g>
				</g>
			</g>
		</g>
	</g>
</g>
</svg>
