<?xml version="1.0" encoding="utf-8"?>
<!-- Generator: Adobe Illustrator 27.5.0, SVG Export Plug-In . SVG Version: 6.00 Build 0)  -->
<svg version="1.1" id="_x3C_Layer_x3E_" xmlns="http://www.w3.org/2000/svg" xmlns:xlink="http://www.w3.org/1999/xlink" x="0px"
	 y="0px" viewBox="0 0 3550 1420" style="enable-background:new 0 0 3550 1420;" xml:space="preserve">
<rect style="fill:#FFFFFF;" width="3550" height="1420"/>
<g>
	<path style="fill:#E9F3FE;" d="M3383.143,785.366c0.011,2.776,0.011,5.563-0.011,8.36c-0.422,48.263-7.294,97.54-19.265,145.443
		c-1.794,7.21-3.716,14.389-5.742,21.535c-32.503,114.503-93.486,218.884-163.822,279.381c-0.739,0.634-1.479,1.268-2.218,1.89
		l-363.008-0.348l-382.727-0.37l-2126.078-2.048c0,0-25.366-38.509-50.797-97.106c-0.95-2.186-1.899-4.392-2.839-6.641v-0.01
		c-3.77-8.898-7.506-18.221-11.148-27.911c-2.512-6.671-4.972-13.522-7.357-20.532c-0.359-1.055-0.718-2.121-1.076-3.197
		c-0.845-2.523-1.679-5.067-2.502-7.633c-0.285-0.845-0.549-1.689-0.824-2.555v-0.011c-3.947-12.446-7.61-25.313-10.861-38.509
		c-2.387-9.638-4.54-19.455-6.419-29.41c-6.503-34.402-9.701-70.399-7.326-106.343c0.37-5.595,0.866-11.189,1.521-16.774
		c5.7-49.35,22.59-98.131,56.508-142.087c21.914-28.407,50.944-54.786,88.672-78c42.658-26.254,83.901-38.815,125.83-46.236
		c116.361-20.605,238.012-1.594,409.952-125.419c11.474-8.265,23.182-17.164,35.12-26.76
		c79.826-64.14,155.853-117.575,228.405-161.658c0.897-0.549,1.795-1.087,2.691-1.625c215.728-128.787,375.327,51.07,538.475,58.259
		c281.819,12.415,288.406-161.795,809.589,34.931c0.021,0,0.043,0.011,0.063,0.022c10.481,3.959,21.176,8.065,32.091,12.33
		c38.921,15.211,78.127,25.018,116.932,30.718c7.748,1.141,15.486,2.08,23.224,2.798c34.317,3.188,68.668,2.153,103.335-4.201
		c209.953-38.52,353.687-12.941,446.856,49.065c2.997,1.995,5.953,4.032,8.846,6.112c18.04,12.899,34.075,27.234,48.221,42.784
		c32.06,35.247,54.407,76.701,68.51,121.756c4.202,13.416,7.675,27.15,10.451,41.147c2.269,11.422,4.085,23.013,5.457,34.741
		c1.921,16.457,2.978,33.146,3.23,50.005C3383.121,782.632,3383.132,783.994,3383.143,785.366z"/>
	<path style="opacity:0.4;fill:#9FC1F4;" d="M1174.534,960.705h-259.28l-2.713-19.806c-0.059-0.435-0.185-0.854-0.364-1.246
		c1.679-30.422,8.544-55.347,9.751-73.063c2.814-9.589,0.99-15.129-1.608-18.288l2.144,0.322
		c-10.805-9.525-16.136-74.065-16.563-79.614c-0.065-0.856-0.192-1.781-0.378-2.732c-0.958-6.077-3.922-20.633-10.962-26.41
		l-29.708,2.111c0,0-11.441,5.454-19.912,30.569h0.014c-2.102,2.664-3.575,5.85-4.022,9.471c-1.388,11.275,5.748,15.61,5.748,15.61
		c-0.061-0.444-0.092-0.884-0.108-1.319c0.978,12.942,4.237,28.924,10.172,29.564c0,0,2.474,0.109,6.1-0.134
		c0.054,4.003-0.288,9.233-1.783,14.483c-0.645,0.108-1.295,0.231-1.944,0.352c0.014-0.023,0.023-0.038,0.023-0.038
		c-0.382,0.055-0.792,0.143-1.189,0.253c-0.036,0.007-0.071,0.012-0.107,0.019c-0.322,0.065-0.635,0.153-0.942,0.25
		c-1.817,0.458-3.826,1.243-5.539,1.826c0,0-19.121,5.22-46.865,50.767h-4.117c-0.534-0.231-1.065-0.473-1.584-0.732
		c-0.445-0.223-0.959-0.439-1.522-0.646l0.199-4.57l0.565-12.919l0.271-6.18h0.858l-0.546-4.175h-19.422l-0.8,4.175h0.859
		l0.384,6.18l0.805,12.919l0.159,2.544c-1.402,0.21-2.507,0.584-3.12,1.161c-0.532,0.502-0.76,1.291-0.7,2.243h-9.314l0.259-5.948
		l0.565-12.919l0.271-6.18h0.859l-0.547-4.175h-19.422l-0.8,4.175h0.858l0.385,6.18l0.805,12.919l0.363,5.805
		c-0.834-0.114-1.677-0.233-2.532-0.357c-1.709-0.543-3.648-1.26-5.452-2.16c-4.715-2.357-17.289-3.93-19.961-1.415
		c-2.672,2.515,2.829,12.732,14.303,13.046c4.036,0.11,7.042,0.416,9.268,0.766c1.275,0.596,15.354,7.125,30.293,11.854
		c5.543,1.76,11.337,3.402,16.866,4.639c5.148,1.151,10.071,1.951,14.344,2.152c0,0,6.113-2.352,14.646-8.113
		c2.797,1.091,5.807,2.221,8.935,3.328l-1.422,16.601c-0.522,3.753-0.75,14.687-0.831,26.857H584.665
		c-1.448-10.209-3.766-22.746-4.237-27.919c-0.734-8.093-0.43-17.788,0.164-27.509c7.634-2.544,14.895-5.392,20.41-7.682
		c9.464,6.671,16.45,9.355,16.45,9.355c0.552-0.026,1.116-0.063,1.69-0.108c0.022-0.002,0.047-0.005,0.07-0.007
		c0.548-0.044,1.104-0.096,1.668-0.157c0.074-0.008,0.15-0.018,0.225-0.026c0.512-0.058,1.028-0.118,1.554-0.188
		c0.145-0.02,0.294-0.042,0.439-0.063c0.453-0.063,0.907-0.127,1.368-0.198c0.227-0.035,0.455-0.074,0.683-0.111
		c0.384-0.063,0.768-0.125,1.156-0.193c0.303-0.053,0.609-0.11,0.913-0.166c0.316-0.059,0.63-0.115,0.948-0.178
		c0.37-0.071,0.744-0.147,1.118-0.224c0.257-0.052,0.514-0.104,0.771-0.157c0.428-0.09,0.858-0.184,1.289-0.279
		c0.15-0.033,0.299-0.063,0.449-0.097c0.033-0.007,0.066-0.016,0.098-0.023c1.306-0.293,2.624-0.607,3.951-0.941
		c0.077-0.02,0.153-0.038,0.23-0.058c1.315-0.333,2.639-0.685,3.962-1.051c0.097-0.026,0.194-0.052,0.291-0.079
		c1.315-0.365,2.628-0.744,3.937-1.134c0.098-0.029,0.195-0.057,0.294-0.087c1.378-0.412,2.748-0.835,4.103-1.265
		c14.941-4.729,29.018-11.258,30.293-11.854c2.226-0.349,5.232-0.655,9.268-0.766c11.474-0.313,16.975-10.53,14.304-13.046
		c-2.673-2.515-15.247-0.942-19.962,1.415c-1.803,0.901-3.741,1.617-5.452,2.16c-16.39,2.374-29.059,3.045-37.425,3.809
		c0.594-1.714,0.508-3.197-0.323-3.98c-2.461-2.317-12.79-1.384-18.811,0.531c-29.285-40.116-49.73-52.879-49.73-52.879
		s-0.301-0.175-1.076-0.452c13.492-9.704-4.937-10.074-0.953-42.606c1.94-15.838-3.006-41.181-34.616-37.132
		c-31.611,4.05-41.572,35.115-35.197,48.929c6.376,13.813-9.177,17.143-14.06,31.998c-4.194,12.761-5.656,28.604-12.444,35.715
		c-18.795,19.691,10.196,48.477,35.136,51.496c0.051,2.518-0.021,5.13-0.243,7.867c-0.074,0.927-0.234,1.986-0.464,3.159
		c-1.748,8.956-7.59,24.375-11.307,36.181h-17.688c-6.3,0-11.453,5.154-11.453,11.453v256.48c0,6.299,5.153,11.452,11.453,11.452
		h696.625c6.299,0,11.453-5.153,11.453-11.452v-256.48C1185.987,965.859,1180.833,960.705,1174.534,960.705z M581.979,885.725
		c0.115-1.606,0.221-3.171,0.316-4.699c1.354,1.493,2.712,2.909,4.065,4.254C584.834,885.437,583.379,885.584,581.979,885.725z"/>
	<path style="opacity:0.4;fill:#9FC1F4;" d="M1939.801,960.705h-183.656l-2.714-19.806c-0.059-0.435-0.186-0.854-0.364-1.246
		c1.679-30.422,8.544-55.347,9.751-73.063c2.813-9.589,0.99-15.129-1.608-18.288l2.145,0.322
		c-10.806-9.525-16.137-74.065-16.564-79.614c-0.065-0.856-0.191-1.781-0.379-2.732c-0.957-6.077-3.92-20.633-10.961-26.41
		l-29.707,2.111c0,0-11.442,5.454-19.913,30.569h0.013c-2.101,2.664-3.575,5.85-4.021,9.471c-1.387,11.275,5.748,15.61,5.748,15.61
		c-0.061-0.444-0.092-0.882-0.107-1.318c0.979,12.94,4.237,28.923,10.172,29.563c0,0,2.473,0.109,6.1-0.134
		c0.053,4.003-0.289,9.233-1.783,14.483c-0.645,0.108-1.295,0.231-1.944,0.352c0.014-0.023,0.023-0.038,0.023-0.038
		c-0.382,0.055-0.792,0.143-1.189,0.253c-0.036,0.007-0.071,0.012-0.106,0.019c-0.324,0.065-0.636,0.153-0.943,0.25
		c-1.817,0.458-3.827,1.243-5.539,1.826c0,0-19.121,5.22-46.865,50.767h-4.117c-0.534-0.231-1.064-0.473-1.584-0.732
		c-0.445-0.223-0.959-0.439-1.522-0.646l0.199-4.57l0.565-12.919l0.27-6.18h0.859l-0.547-4.175h-19.422l-0.8,4.175h0.858l0.385,6.18
		l0.805,12.919l0.16,2.544c-1.403,0.21-2.508,0.584-3.121,1.161c-0.533,0.502-0.761,1.291-0.699,2.243h-9.315l0.259-5.948
		l0.564-12.919l0.271-6.18h0.858l-0.547-4.175h-19.42l-0.801,4.175h0.858l0.354,5.69c-1.967,0.447-3.719,1.003-4.939,1.613
		c-1.803,0.901-3.742,1.617-5.451,2.16c-16.391,2.374-29.06,3.045-37.426,3.809c0.593-1.714,0.508-3.197-0.323-3.98
		c-2.462-2.317-12.79-1.384-18.812,0.531c-29.283-40.116-49.729-52.879-49.729-52.879s-0.301-0.175-1.076-0.452
		c13.492-9.704-4.937-10.074-0.952-42.606c1.938-15.838-3.007-41.181-34.618-37.132c-31.61,4.05-41.571,35.115-35.196,48.929
		c6.375,13.813-9.178,17.143-14.06,31.998c-4.194,12.761-5.657,28.604-12.444,35.715c-18.796,19.691,10.197,48.477,35.136,51.496
		c0.051,2.518-0.022,5.13-0.243,7.867c-0.075,0.927-0.234,1.986-0.465,3.159c-1.746,8.956-7.589,24.375-11.307,36.181h-106.093
		c-6.074,0-11.045,4.971-11.045,11.045v257.297c0,6.074,4.971,11.044,11.045,11.044h647.044c6.074,0,11.045-4.97,11.045-11.044
		V971.75C1950.846,965.676,1945.875,960.705,1939.801,960.705z M1485.232,885.725c0.115-1.606,0.221-3.171,0.316-4.699
		c1.354,1.493,2.712,2.909,4.064,4.254C1488.087,885.437,1486.633,885.584,1485.232,885.725z M1487.918,960.705
		c-1.448-10.209-3.766-22.746-4.237-27.919c-0.735-8.093-0.43-17.788,0.164-27.509c7.634-2.544,14.895-5.392,20.41-7.682
		c9.464,6.671,16.45,9.355,16.45,9.355c0.552-0.026,1.116-0.063,1.689-0.108c0.023-0.002,0.048-0.005,0.071-0.007
		c0.548-0.044,1.104-0.096,1.669-0.157c0.073-0.008,0.149-0.018,0.224-0.026c0.513-0.058,1.028-0.118,1.554-0.188
		c0.145-0.02,0.294-0.042,0.439-0.063c0.453-0.063,0.908-0.127,1.369-0.198c0.225-0.035,0.455-0.074,0.682-0.111
		c0.385-0.063,0.768-0.125,1.156-0.193c0.303-0.053,0.609-0.11,0.914-0.166c0.314-0.059,0.629-0.115,0.947-0.178
		c0.37-0.071,0.744-0.147,1.117-0.224c0.258-0.052,0.515-0.104,0.773-0.157c0.427-0.09,0.857-0.184,1.289-0.279
		c0.15-0.033,0.299-0.063,0.449-0.097c0.032-0.007,0.065-0.016,0.098-0.023c1.305-0.293,2.623-0.607,3.95-0.941
		c0.077-0.02,0.153-0.038,0.23-0.058c1.315-0.333,2.638-0.685,3.962-1.051c0.097-0.026,0.194-0.052,0.291-0.079
		c1.314-0.365,2.628-0.744,3.937-1.134c0.099-0.029,0.196-0.057,0.294-0.087c1.378-0.412,2.748-0.835,4.104-1.265
		c4.507-1.427,8.934-3.018,12.958-4.56c2.229,3.384,6.839,6.841,13.44,7.022c4.035,0.11,7.041,0.416,9.267,0.766
		c1.276,0.596,15.354,7.125,30.293,11.854c5.543,1.76,11.337,3.402,16.866,4.639c5.148,1.151,10.07,1.951,14.344,2.152
		c0,0,6.113-2.352,14.646-8.113c2.797,1.091,5.807,2.221,8.935,3.328l-1.422,16.601c-0.523,3.753-0.75,14.687-0.831,26.857H1487.918
		z M1591.475,887.54c0.037-0.001,0.069-0.008,0.105-0.008l0.012,0.172l0.363,5.805c-0.836-0.114-1.678-0.233-2.533-0.357
		c-1.71-0.543-3.648-1.26-5.452-2.16c-1.107-0.555-2.656-1.061-4.399-1.485c1.431-0.641,2.352-1.068,2.637-1.201
		C1584.433,887.957,1587.439,887.65,1591.475,887.54z"/>
	<g>
		<path style="fill:#2C3A64;" d="M3028.42,746.135c-0.043-1.207-0.977-14.203-20.772-14.882c0,0,9.734,1.16,11.417,5.44
			c0,0-6.629-5.288-12.027-3.588c-5.397,1.701-8.568,11.158-8.6,14.268c-0.032,3.11,2.967,13.138,6.394,13.991
			c1.297,0.322,2.791,0.236,4.149,0.004c-0.912,1.424-1.807,2.994-2.66,4.747c-7.898,16.215,0.248,32.061,6.935,30.311
			c4.289-1.123,5.503,6.195,5.503,6.195l41.667-33.733C3060.425,768.89,3045.121,737.222,3028.42,746.135z"/>
		<path style="fill:#ED985F;" d="M3130.646,931.925c0,0,12.125-0.469,14.148,1.554c2.021,2.022,1.012,12.136-2.781,15.424
			c-3.793,3.286-14.158-9.103-14.158-9.103L3130.646,931.925z"/>
		<path style="fill:#ED985F;" d="M3048.973,840.484c0,0-14.353,7.383-13.449,27.476c0.902,20.093,28.162,55.304,41.844,63.664
			c10.836,6.622,52.076,8.429,52.076,8.429l1.203-8.128c0,0-38.53-15.652-43.948-21.673
			C3075.074,897.337,3059.713,836.036,3048.973,840.484z"/>
		<path style="fill:#739CF3;" d="M3052.37,877.258c-0.201,0.549-0.433,1.098-0.687,1.646c-7.051,15.17-28.818,40.452-29.811,57.807
			c-0.338,5.985,0.412,13.532,2.871,23.403c12.098,48.632-83.488,7.199-78.084-5.395c10.746-25.028,25.746-60.751,25.746-60.751
			c-0.011-0.18-0.137-25.324-0.042-35.216V858.5c0.011-0.455,0.011-0.898,0.021-1.31v-0.485c0.043-3.04,0.032-5.236-0.063-5.816
			c2.733-9.944,7.98-26.56,7.98-26.56c7.463-3.02,20.743-1.225,20.743-1.225c0.468,0.025,3.403,0.268,5.721,0.527
			c10.022,1.122,28.7,7.769,29.23,8.815c0.011,0.021,4.401,1.837,5.257,2.196c1.942,0.823,3.653,1.615,5.131,2.354
			c6.006,2.998,8.328,5.131,8.328,5.131C3047.535,846.793,3057.923,862.532,3052.37,877.258z"/>
		<path style="fill:#35488B;" d="M3022.891,948.815l-9.344,2.459l-0.012-0.098c-16.182,4.299-59.415-12.009-59.415-12.009
			s-15.676,13.779-13.618,46.809c1.004,16.122-2.921,18.213,1.819,17.452c13.652-2.19,61.733-0.035,61.859,0l0.559-2.382
			c1.283-0.145,2.366-0.284,3.067-0.401c2.422-0.404,4.773-0.712,6.992-0.94c6.792-0.697,12.344-0.688,14.902-0.626
			c0.814,0.015,1.461-0.684,1.386-1.492C3027.233,957.306,3022.891,948.815,3022.891,948.815z"/>
		<path style="fill:#FFB27D;" d="M3037.38,821.553c-1.214,4.845-2.079,9.522-1.383,10.894c-1.953,2.344-5.162,4.856-10.028,5.331
			c-9.5,0.93-19.202-14.146-19.202-14.146c3.41-1.772,9.522-10.419,13.058-24.859l1.193,0.559l20.079,9.438
			C3041.097,808.769,3038.953,815.293,3037.38,821.553z"/>
		<path style="fill:#2C3A64;" d="M3048.137,868.654c-0.045-0.497-1.251-1.203-3.237-2.035c0.577-5.315,1.306-14.785,1.485-29.623
			c-1.478-0.738-3.188-1.53-5.131-2.354c0.247,6.033,0.367,19.522-2.593,29.722c-7.789-2.551-18.718-5.499-26.198-7.423
			c-0.876-5.274-3.009-15.955-8.014-33.568l-5.696-0.511c0,0,6.881,18.251,6.851,32.364c-0.581-0.139-1.018-0.24-1.274-0.295
			c-3.695-0.792-5.262,14.691-5.576,15.57c-5.575,15.57-19.907,13.673-24.773,14.251c-4.866,0.578-33.78,60.171-34.057,70.727
			c-0.277,10.557,68.54,16.891,85.581,15.885C3042.545,970.359,3048.4,871.558,3048.137,868.654z"/>
		<path style="fill:#ED985F;" d="M3041.094,808.769c0,0-2.135,6.525-3.707,12.781c-11.732-3.273-15.296-15.607-16.369-22.219
			L3041.094,808.769z"/>
		<path style="fill:#FFB27D;" d="M3043.564,815.679c0,0-28.072-6.496-23.757-23.916c4.315-17.419,3.598-29.989,21.702-26.577
			c18.106,3.411,19.928,10.917,19.902,17.082C3061.387,788.432,3050.978,816.92,3043.564,815.679z"/>
		<path style="fill:#2C3A64;" d="M3062.99,772.378c-3.018-6.313-6.569-5.977-8.791-4.857c-13.189-12.204-26.127-2.233-26.127-2.233
			c-4.979,12.029-15.771,16.944-15.771,16.944s4.312,4.416,16.811,4.319c3.818-0.03,7.656-1.783,11.149-4.199
			c-6.737,6.786-14.637,10.918-14.637,10.918c15.646-2.995,26.138-21.108,27.212-23.032c1.326,1.957,3.861,6.124,4.074,9.643
			c0.291,4.781-1.354,14.065,1.384,14.417C3058.294,794.297,3067.517,781.847,3062.99,772.378z"/>
		<path style="fill:#FFB27D;" d="M3072.943,945.113l-2.354,8.593c0,0-3.6-0.633-9.142-1.741c-0.032-0.011-0.074-0.021-0.105-0.032
			c-0.189-0.031-0.38-0.073-0.581-0.116c-3.483-0.707-7.675-1.594-12.182-2.628c-14.441-3.305-32.122-8.129-40.355-13.343
			c-15.17-9.617-36.662-63.549-37.676-86.055c-0.053-1.193-0.074-2.333-0.053-3.41c0.158-19.392,9.807-22.052,9.807-22.052
			c3.885-1.604,8.393,5.119,13.025,15.538c9.744,21.852,20.11,59.949,26.697,71.361c2.776,4.803,18.421,14.535,31.986,22.336
			c4.75,2.724,9.235,5.227,12.836,7.2C3069.714,943.414,3072.943,945.113,3072.943,945.113z"/>
		<path style="fill:#739CF3;" d="M2993.332,839.865c-12.895-3.555-22.842,6.513-22.842,6.513
			c0.162-19.392,9.815-22.046,9.815-22.046C2984.189,822.724,2988.689,829.448,2993.332,839.865z"/>
		<path style="fill:#739CF3;" d="M3054.709,842.131c0,0,6.76,11.79,7.771,14.824c0,0-8.766-0.338-12.305,6.405
			C3050.175,863.36,3050.479,843.824,3054.709,842.131z"/>
		<g>
			<path style="fill:#B84C42;" d="M3109.959,970.131c22.227,0,40.246-18.02,40.246-40.246h-80.492
				C3069.713,952.111,3087.731,970.131,3109.959,970.131z"/>
			<path style="fill:#D66C67;" d="M3115.592,965.242c-2.242,0.442-4.562,0.67-6.932,0.67c-19.839,0-35.922-16.078-35.922-35.918
				h13.864C3086.603,947.463,3099.07,962.016,3115.592,965.242z"/>
			<path style="fill:#D8DFEB;" d="M3096.719,925.286c0,0-10.015-15.021-14.453-13.998c-4.438,1.024,7.853,7.739,12.291,13.315
				L3096.719,925.286z"/>
			<path style="fill:#F0D170;" d="M3147.52,929.885h-75.139c2.083-1.837,6.597-4.729,13.98-4.257c0,0,7.627-0.796,11.725-3.868
				c4.096-3.073,16.387-4.326,23.099,0.908c6.716,5.236,14.226,3.871,18.323,4.554
				C3142.976,927.799,3146.203,928.294,3147.52,929.885z"/>
		</g>
		<path style="fill:#FFB27D;" d="M3100.676,953.453c-4.297,1.772-10.367,8.086-19.973,4.296c-8.107-3.198-16.753-5.226-19.255-5.784
			c-0.032-0.011-0.074-0.021-0.105-0.032c-0.306-0.064-0.507-0.106-0.581-0.116c-0.021-0.01-0.031-0.01-0.031-0.01l3.789-11.127
			c0,0,0.116,0.031,0.328,0.085c2.217,0.495,15.169,3.324,21.165,1.942c6.576-1.52,17.692,6.449,17.692,6.449
			S3104.972,951.68,3100.676,953.453z"/>
		<path style="fill:#739CF3;" d="M3100.676,953.453c-4.297,1.772-10.367,8.086-19.973,4.296c-8.107-3.198-16.753-5.226-19.255-5.784
			c-0.032-0.011-0.074-0.021-0.105-0.032c-0.189-0.031-0.38-0.073-0.581-0.116c-3.483-0.707-7.675-1.594-12.182-2.628
			c3.928-6.134,3.79-12.626,3.432-15.624c4.75,2.724,9.235,5.227,12.836,7.2c2.217,0.495,15.169,3.324,21.165,1.942
			c6.576-1.52,17.692,6.449,17.692,6.449S3104.972,951.68,3100.676,953.453z"/>
	</g>
	<path style="fill:#9FC1F4;" d="M2814.732,960.705c-5.659,0-10.282,4.972-10.282,11.041v257.299c0,6.08,4.623,11.041,10.282,11.041
		h379.57c18.958-16.299,37.231-35.785,54.438-57.795c6.862-8.751,13.545-17.914,20.026-27.426c1.393-2.026,2.765-4.074,4.127-6.133
		c10.799-16.288,21.049-33.559,30.635-51.631c2.786-5.257,5.521-10.588,8.19-15.972c7.042-14.197,13.672-28.817,19.836-43.797
		c0.063-0.127,0.116-0.265,0.158-0.401c4.423-10.725,8.604-21.641,12.52-32.693c5.077-14.292,9.723-28.828,13.893-43.533H2814.732z"
		/>
	<g>
		<path style="fill:#163560;" d="M2454.719,756.849c0,0,1.854-3.798,11.123-2.757s11.883,9.367,12.313,14.919
			c0.343,4.456,3.846,46.934,10.807,68.44c1.612,4.984-2.609,9.915-7.79,9.136l-20.977-3.159L2454.719,756.849z"/>
		<path style="fill:#C65447;" d="M2452.042,757.515c0,0,9.888-3.336,15.091,1.607c5.204,4.944,2.256,11.484,2.256,11.484
			L2452.042,757.515z"/>
		<path style="fill:#163560;" d="M2420.817,776.989c0,0,0.185-21.799,35.27-19.289c5.963,0.427,11.372,3.84,14.096,9.162
			c3.946,7.713,5.668,21.29-7.085,43.061L2420.817,776.989z"/>
		<path style="fill:#E49963;" d="M2465.234,840.998l-7.905,30.902l-22.842,1.115l-11.368-17.037
			c10.629-8.055,12.131-22.181,11.977-30.559c0-0.082-0.005-0.164-0.005-0.247c-0.092-3.944-0.541-6.558-0.541-6.558l16.206-4.935
			l12.344-3.757c-1.135,9.417-1.058,16.212-0.545,21.002C2463.36,838.415,2465.234,840.998,2465.234,840.998z"/>
		<path style="fill:#E49963;" d="M2488.292,1000.815l-82.884-0.109c0,0,10.313-55.57,4.588-73.784s0.279-44.824,0.279-44.824
			c8.326-19.774,10.447-38.288,14.152-39.256c2.035-0.535,3.676-1.631,5.668-2.032c32.562-6.505,59.028,5.34,59.028,5.34
			c7.309,18.355-8.34,32.14-9.099,73.581C2479.279,960.467,2488.292,1000.815,2488.292,1000.815z"/>
		<path style="fill:#F4BE61;" d="M2491.545,847.466c-3.963-7.343-25.731-7.464-25.731-7.464
			c-2.057,2.483-13.165,10.451-26.955,10.363c-13.787-0.084-7.466-9.828-7.466-9.828c-0.478,0.067-1.005,0.177-1.487,0.332
			c-2.93,0.938-5.024,2.978-6.429,4.89c0.09-1.809,0.139-2.874,0.139-2.874s-20.252,5.524-49.314,54.852
			c-0.86,1.461-3.314,1.224-9.02,0.117c-7.264-1.416-22.091-1.231-44.461-4.516c0,0-0.77,0.557-0.979,3.004
			c-0.461,5.399-1.003,6.997-1.003,6.997s14.73,6.944,30.398,11.903c5.542,1.76,11.335,3.402,16.865,4.639
			c5.148,1.151,10.07,1.951,14.344,2.152c0,0,11.558-4.443,25.083-16.104c-1.107,7.859-1.664,13.489-1.613,14.118
			c0.574,7.314-0.272,18.612-0.272,18.612s58.724,16.007,76.021,7.783c2.854-1.358,4.579-3.372,4.73-6.225
			c1.692-31.993,9.195-57.961,9.928-75.895C2494.607,857.508,2493.912,851.852,2491.545,847.466z"/>
		<path style="fill:#F2A83D;" d="M2466.619,882.446c10.508-3.266,21.025,5.017,20.313,15.996
			c-0.701,10.806-1.567,23.42-2.538,41.776c-0.151,2.852-1.877,4.867-4.73,6.225l-16.814-34.883L2466.619,882.446L2466.619,882.446z
			"/>
		<path style="fill:#EE9849;" d="M2492.772,999.127l-7.978-58.228c-0.114-0.849-0.479-1.629-1.004-2.291
			c-10.049-12.655-11.096-52.207-11.116-67.303c-0.005-3.235-2.545-5.844-5.682-5.882c0.224-0.683,6.29-19.255,10.968-24.316
			c0,0-1.563-0.241-2.08-0.324c-1.164-0.185-3.22-0.381-3.22-0.381s-8.65,12.218-12.467,25.055c0,0-0.082,0.026-0.243,0.048
			c-17.949,2.206-33.24,1.116-42.36-0.05h1.343c0,0,6.229-18.903,10.971-24.586c-1.993,0.4-4.342,1.353-6.289,2.016
			c-2.951,4.242-8.433,12.457-11.273,21.919c-2.166,0.153-3.986,1.905-4.186,4.227l-2.342,27.351l-3.211,37.468
			c-1.154,8.296-0.868,51.641-0.738,65.968c0.025,2.553,2.045,4.604,4.527,4.604h81.899
			C2491.04,1004.42,2493.158,1001.926,2492.772,999.127z"/>
		<path style="fill:#D68D5D;" d="M2462.555,830.925c-9.813-5.249-25.006-5.501-27.459-5.505c-0.223,0-0.338,0-0.338,0
			s0.115-0.087,0.333-0.247c1.622-1.197,8.909-6.563,15.665-11.493l12.344-3.757C2461.965,819.34,2462.042,826.135,2462.555,830.925
			z"/>
		<path style="fill:#E49963;" d="M2428.997,825.874c0,0,34.822,1.591,35.479-20.109c0.657-21.7,5.594-36.11-16.611-38.044
			s-26.777,6.216-28.759,13.406C2417.125,788.317,2419.956,824.9,2428.997,825.874z"/>
		<path style="fill:#163560;" d="M2432.787,776.296c0,0-15.512,9.315-13.854,21.334c0,0-7.136-4.335-5.748-15.61
			c1.387-11.275,12.662-18.387,22.203-18.387s16.653,1.214,16.653,1.214L2432.787,776.296z"/>
		<path style="fill:#163560;" d="M2429.904,772.523c-6.18,3.273,19.362,6.027,20.923,16.435
			c1.562,10.408,13.741,14.392,13.741,14.392S2480.013,745.982,2429.904,772.523z"/>
		<path style="fill:#FFFFFF;" d="M2424.823,814.065c0,0,0.253,2.205,5.628,2.504c0,0,4.514,0.253,4.655-2.121
			C2435.106,814.447,2430.959,812.257,2424.823,814.065z"/>
		<path style="fill:#F4BE61;" d="M2378.613,906.114c0,0,23.826,11.969,44.482,16.921c5.944,1.424,11.672,2.434,16.557,2.664
			c0,0,22.215-6.832,39.168-30.581c32.747-45.872,7.465-50.818,7.465-50.818s-21.875,13.648-52.775,57.102
			c-1.08,1.52-3.795,1.177-10.824-0.243c-7.507-1.517-22.449-1.337-43.078-4.365c0,0-0.347,0.767-0.557,3.213
			C2378.586,905.406,2378.613,906.114,2378.613,906.114z"/>
		<path style="fill:#A86337;" d="M2365.281,897.854c-7.189-1.401-22.479-1.511-44.484-4.697c-1.713-0.543-3.655-1.261-5.463-2.164
			c-4.715-2.357-17.289-3.93-19.961-1.415c-2.672,2.515,2.829,12.732,14.303,13.046c4.021,0.11,7.035,0.413,9.258,0.761
			c1.212,0.567,15.324,7.117,30.304,11.858c5.542,1.76,11.335,3.402,16.865,4.639
			C2368.322,910.006,2366.789,902.31,2365.281,897.854z"/>
		<g>
			<g>
				<polygon style="fill:#C65447;" points="2370.56,868.606 2370.289,874.785 2369.725,887.704 2369.466,893.652 2353.071,893.652 
					2352.699,887.704 2351.894,874.785 2351.509,868.606 				"/>
				<polygon style="fill:#DCE3F1;" points="2370.872,864.431 2351.451,864.431 2350.65,868.606 2371.419,868.606 				"/>
				<polygon style="fill:#E57970;" points="2370.289,874.785 2369.725,887.704 2352.699,887.704 2351.894,874.785 				"/>
			</g>
			<g>
				<polygon style="fill:#C65447;" points="2340.816,868.606 2340.546,874.785 2339.98,887.704 2339.723,893.652 2323.328,893.652 
					2322.955,887.704 2322.15,874.785 2321.767,868.606 				"/>
				<polygon style="fill:#DCE3F1;" points="2341.129,864.431 2321.707,864.431 2320.907,868.606 2341.676,868.606 				"/>
				<polygon style="fill:#E57970;" points="2340.546,874.785 2339.98,887.704 2322.955,887.704 2322.15,874.785 				"/>
			</g>
			<path style="fill:#1C468A;" d="M2384.738,897.981h-77.905c-1.195,0-2.165-0.969-2.165-2.164l0,0c0-1.195,0.97-2.164,2.165-2.164
				h77.905c1.195,0,2.165,0.969,2.165,2.164l0,0C2386.903,897.012,2385.934,897.981,2384.738,897.981z"/>
		</g>
		<path style="fill:#B77446;" d="M2423.096,923.035c-4.532-8.969-2.761-16.808-0.41-21.876c-7.507-1.517-22.555-2.175-43.182-5.203
			c0,0-0.004,0.022-0.006,0.033c-2.223-0.587-5.505-1.597-8.45-3.069c-5.034-2.518-18.458-4.195-21.311-1.51
			c-2.853,2.685,3.021,13.591,15.27,13.927c6.786,0.186,10.89,0.886,13.204,1.475
			C2380.159,907.709,2403.323,918.295,2423.096,923.035z"/>
		<path style="fill:#EE9849;" d="M2437.105,741.979c0,0-11.44,5.454-19.912,30.569l12.711-0.025L2437.105,741.979z"/>
		<path style="fill:#F4BE61;" d="M2429.904,772.523c0,0,35.87,0.557,48.25-3.513c0,0-2.335-21.753-11.341-29.142l-29.708,2.111
			C2437.105,741.979,2428.126,763.481,2429.904,772.523z"/>
	</g>
	<path style="fill:#9FC1F4;" d="M2746.787,960.705h-696.624c-6.3,0-11.454,5.154-11.454,11.453v256.48
		c0,6.299,5.154,11.452,11.454,11.452h696.624c6.301,0,11.454-5.153,11.454-11.452v-256.48
		C2758.241,965.859,2753.088,960.705,2746.787,960.705z"/>
	<path style="fill:#2E3552;" d="M3295.353,1244.98H183.885c-1.66,0-3.018-1.357-3.018-3.018l0,0c0-1.659,1.357-3.018,3.018-3.018
		h3111.468c1.659,0,3.017,1.358,3.017,3.018l0,0C3298.369,1243.623,3297.012,1244.98,3295.353,1244.98z"/>
	<path style="opacity:0.6;fill:#D2E4FF;" d="M2548.039,406.334c-10.662-3.864-21.355-7.991-32.091-12.33
		c-0.021-0.011-0.042-0.022-0.063-0.022c-521.183-196.726-527.77-22.516-809.589-34.931
		c-163.147-7.188-322.747-187.045-538.475-58.259c-0.896,0.538-1.794,1.076-2.691,1.625v84.292
		c0,10.799,11.264,19.624,25.029,19.624h793.091v820.055c0,6.906,5.226,12.558,11.612,12.558c3.188,0,6.102-1.416,8.202-3.688
		c2.102-2.283,3.409-5.411,3.409-8.87V406.334H2548.039z"/>
	<g>
		<path style="opacity:0.6;fill:#D2E4FF;" d="M2734.545,490.832h-652.182c-4.662,0-8.477,3.815-8.477,8.477v147.589
			c0,4.662,3.814,8.477,8.477,8.477h652.182c4.661,0,8.476-3.814,8.476-8.477V499.309
			C2743.021,494.647,2739.206,490.832,2734.545,490.832z"/>
		<g>
			<path style="opacity:0.4;fill:#9FC1F4;" d="M2273.176,524.735h-144.799c-4.499,0-8.182,3.683-8.182,8.182
				c0,4.5,3.683,8.182,8.182,8.182h144.799c4.5,0,8.182-3.682,8.182-8.182C2281.357,528.418,2277.676,524.735,2273.176,524.735z"/>
			<path style="opacity:0.4;fill:#9FC1F4;" d="M2273.176,564.917h-144.799c-4.499,0-8.182,3.682-8.182,8.182
				c0,4.499,3.683,8.182,8.182,8.182h144.799c4.5,0,8.182-3.683,8.182-8.182C2281.357,568.599,2277.676,564.917,2273.176,564.917z"
				/>
			<path style="opacity:0.4;fill:#9FC1F4;" d="M2273.176,605.099h-144.799c-4.499,0-8.182,3.682-8.182,8.182
				c0,4.499,3.683,8.181,8.182,8.181h144.799c4.5,0,8.182-3.682,8.182-8.181C2281.357,608.78,2277.676,605.099,2273.176,605.099z"/>
			<path style="opacity:0.4;fill:#9FC1F4;" d="M2490.609,524.735h-144.799c-4.5,0-8.182,3.683-8.182,8.182
				c0,4.5,3.682,8.182,8.182,8.182h144.799c4.499,0,8.181-3.682,8.181-8.182C2498.79,528.418,2495.108,524.735,2490.609,524.735z"/>
			<path style="opacity:0.4;fill:#9FC1F4;" d="M2490.609,564.917h-144.799c-4.5,0-8.182,3.682-8.182,8.182
				c0,4.499,3.682,8.182,8.182,8.182h144.799c4.499,0,8.181-3.683,8.181-8.182C2498.79,568.599,2495.108,564.917,2490.609,564.917z"
				/>
			<path style="opacity:0.4;fill:#9FC1F4;" d="M2490.609,605.099h-144.799c-4.5,0-8.182,3.682-8.182,8.182
				c0,4.499,3.682,8.181,8.182,8.181h144.799c4.499,0,8.181-3.682,8.181-8.181C2498.79,608.78,2495.108,605.099,2490.609,605.099z"
				/>
			<path style="opacity:0.4;fill:#9FC1F4;" d="M2697.121,524.735h-154.824c-6.967,0-12.668,5.701-12.668,12.668v71.391
				c0,6.967,5.701,12.667,12.668,12.667h154.824c6.967,0,12.668-5.7,12.668-12.667v-71.391
				C2709.789,530.437,2704.088,524.735,2697.121,524.735z"/>
		</g>
	</g>
	<g>
		<path style="opacity:0.6;fill:#D2E4FF;" d="M1907.361,490.832H1255.18c-4.662,0-8.476,3.815-8.476,8.477v147.589
			c0,4.662,3.813,8.477,8.476,8.477h652.182c4.662,0,8.476-3.814,8.476-8.477V499.309
			C1915.837,494.647,1912.023,490.832,1907.361,490.832z"/>
		<g>
			<path style="opacity:0.4;fill:#9FC1F4;" d="M1445.992,524.735h-144.798c-4.5,0-8.182,3.683-8.182,8.182
				c0,4.5,3.682,8.182,8.182,8.182h144.798c4.5,0,8.182-3.682,8.182-8.182C1454.174,528.418,1450.492,524.735,1445.992,524.735z"/>
			<path style="opacity:0.4;fill:#9FC1F4;" d="M1445.992,564.917h-144.798c-4.5,0-8.182,3.682-8.182,8.182
				c0,4.499,3.682,8.182,8.182,8.182h144.798c4.5,0,8.182-3.683,8.182-8.182C1454.174,568.599,1450.492,564.917,1445.992,564.917z"
				/>
			<path style="opacity:0.4;fill:#9FC1F4;" d="M1445.992,605.099h-144.798c-4.5,0-8.182,3.682-8.182,8.182
				c0,4.499,3.682,8.181,8.182,8.181h144.798c4.5,0,8.182-3.682,8.182-8.181C1454.174,608.78,1450.492,605.099,1445.992,605.099z"/>
			<path style="opacity:0.4;fill:#9FC1F4;" d="M1663.426,524.735h-144.8c-4.499,0-8.181,3.683-8.181,8.182
				c0,4.5,3.682,8.182,8.181,8.182h144.8c4.5,0,8.181-3.682,8.181-8.182C1671.606,528.418,1667.926,524.735,1663.426,524.735z"/>
			<path style="opacity:0.4;fill:#9FC1F4;" d="M1663.426,564.917h-144.8c-4.499,0-8.181,3.682-8.181,8.182
				c0,4.499,3.682,8.182,8.181,8.182h144.8c4.5,0,8.181-3.683,8.181-8.182C1671.606,568.599,1667.926,564.917,1663.426,564.917z"/>
			<path style="opacity:0.4;fill:#9FC1F4;" d="M1663.426,605.099h-144.8c-4.499,0-8.181,3.682-8.181,8.182
				c0,4.499,3.682,8.181,8.181,8.181h144.8c4.5,0,8.181-3.682,8.181-8.181C1671.606,608.78,1667.926,605.099,1663.426,605.099z"/>
			<path style="opacity:0.4;fill:#9FC1F4;" d="M1869.938,524.735h-154.824c-6.967,0-12.668,5.701-12.668,12.668v71.391
				c0,6.967,5.701,12.667,12.668,12.667h154.824c6.968,0,12.668-5.7,12.668-12.667v-71.391
				C1882.605,530.437,1876.905,524.735,1869.938,524.735z"/>
		</g>
	</g>
	<path style="opacity:0.6;fill:#D2E4FF;" d="M1160.792,499.313V646.9c0,4.655-3.822,8.477-8.478,8.477H500.13
		c-4.666,0-8.478-3.821-8.478-8.477v-30.646c116.361-20.605,238.012-1.594,409.952-125.419h250.71
		C1156.97,490.836,1160.792,494.647,1160.792,499.313z"/>
	<g>
		<path style="opacity:0.6;fill:#D2E4FF;" d="M3363.962,655.366h-552.273c-3.976,0-7.238-3.81-7.238-8.466V499.303
			c0-4.656,3.263-8.477,7.238-8.477h452.59c15.405,12.899,29.099,27.234,41.179,42.784
			C3332.834,568.857,3351.918,610.312,3363.962,655.366z"/>
		<g>
			<path style="opacity:0.4;fill:#9FC1F4;" d="M2967.879,524.735h-122.506c-4.158,0-7.561,3.403-7.561,7.56v1.243
				c0,4.157,3.402,7.559,7.561,7.559h122.506c4.158,0,7.56-3.402,7.56-7.559v-1.243
				C2975.438,528.139,2972.037,524.735,2967.879,524.735z"/>
			<path style="opacity:0.4;fill:#9FC1F4;" d="M2967.879,564.917h-122.506c-4.158,0-7.561,3.402-7.561,7.56v1.242
				c0,4.158,3.402,7.561,7.561,7.561h122.506c4.158,0,7.56-3.402,7.56-7.561v-1.242
				C2975.438,568.319,2972.037,564.917,2967.879,564.917z"/>
			<path style="opacity:0.4;fill:#9FC1F4;" d="M2967.879,605.099h-122.506c-4.158,0-7.561,3.402-7.561,7.561v1.242
				c0,4.158,3.402,7.559,7.561,7.559h122.506c4.158,0,7.56-3.401,7.56-7.559v-1.242
				C2975.438,608.501,2972.037,605.099,2967.879,605.099z"/>
			<path style="opacity:0.4;fill:#9FC1F4;" d="M3153.559,524.735h-122.506c-4.158,0-7.56,3.403-7.56,7.56v1.243
				c0,4.157,3.401,7.559,7.56,7.559h122.506c4.158,0,7.561-3.402,7.561-7.559v-1.243
				C3161.119,528.139,3157.717,524.735,3153.559,524.735z"/>
			<path style="opacity:0.4;fill:#9FC1F4;" d="M3153.559,564.917h-122.506c-4.158,0-7.56,3.402-7.56,7.56v1.242
				c0,4.158,3.401,7.561,7.56,7.561h122.506c4.158,0,7.561-3.402,7.561-7.561v-1.242
				C3161.119,568.319,3157.717,564.917,3153.559,564.917z"/>
			<path style="opacity:0.4;fill:#9FC1F4;" d="M3153.559,605.099h-122.506c-4.158,0-7.56,3.402-7.56,7.561v1.242
				c0,4.158,3.401,7.559,7.56,7.559h122.506c4.158,0,7.561-3.401,7.561-7.559v-1.242
				C3161.119,608.501,3157.717,605.099,3153.559,605.099z"/>
			<path style="opacity:0.4;fill:#9FC1F4;" d="M3249.59,524.735h-42.876c-3.925,0-7.135,3.211-7.135,7.135v82.457
				c0,3.923,3.21,7.134,7.135,7.134h42.876c3.924,0,7.135-3.211,7.135-7.134V531.87
				C3256.725,527.946,3253.514,524.735,3249.59,524.735z"/>
		</g>
	</g>
	<g>
		<polygon style="fill:#9FC1F4;" points="2226.131,913.385 2283.477,913.385 2292.65,950.381 2235.961,950.381 		"/>
		<polygon style="fill:#9FC1F4;" points="2241.561,925.351 2266.791,925.351 2276.459,961.176 2249.916,961.176 		"/>
		<polygon style="fill:#8FB0E2;" points="2266.791,925.351 2268.498,925.351 2279.129,961.176 2276.24,961.176 		"/>
		<polygon style="fill:#8FB0E2;" points="2283.477,913.385 2284.473,913.385 2293.758,950.381 2292.65,950.381 		"/>
	</g>
	<g>
		<polygon style="fill:#9FC1F4;" points="2817.966,890.223 2903.105,890.223 2916.728,945.148 2832.561,945.148 		"/>
		<polygon style="fill:#9FC1F4;" points="2840.873,907.986 2878.334,907.986 2892.687,961.176 2853.279,961.176 		"/>
		<polygon style="fill:#8FB0E2;" points="2878.334,907.986 2880.868,907.986 2896.65,961.176 2892.362,961.176 		"/>
		<polygon style="fill:#8FB0E2;" points="2903.105,890.223 2904.585,890.223 2918.369,945.148 2916.728,945.148 		"/>
	</g>
	<g>
		<path style="fill:#B77446;" d="M2154.488,1233.448c0.432,5.338,8.029,4.871,16.573,3.815s6.225,1.595,18.199,1.673
			c11.974,0.078,16.072-3.909,16.639-5.625c0.506-1.521-5.271-2.757-11.451-4.214c-0.777-0.18-1.558-0.371-2.337-0.561
			c-6.97-1.718-12.992-5.487-17.6-11.392c-5.194-6.656-9.941-36.958-9.941-36.958l-18.712,3.491c0,0,10.892,25.974,12.009,34.491
			c0.502,3.822-2.217,6.373-2.854,9.718C2154.673,1229.707,2154.334,1231.568,2154.488,1233.448z"/>
		<path style="fill:#365DA4;" d="M2171,1237.732c3.396-0.833,6.286,1.126,18.261,1.204c11.974,0.078,16.072-3.909,16.639-5.625
			c0.506-1.521-5.271-2.757-11.451-4.214l-0.073,0.114c0,0-7.678,4.194-17.546,3.276c-8.041-0.746-16.267-4.04-21.815-4.601
			c-0.341,1.819-0.68,3.681-0.525,5.561C2154.92,1238.786,2160.855,1240.223,2171,1237.732z"/>
		<g>
			<path style="fill:#365DA4;" d="M2171.219,1202.009c0,0-4.901,3.243-9.51,4.081c-6.912,1.257-10.121-0.139-10.121-0.139
				s-33.244-83.473-31.348-111.679c0.047-0.679,0.071-1.399,0.08-2.161c0.055-4.894-0.649-11.416-1.865-18.923
				c-0.447-2.753-0.963-5.635-1.537-8.617c-1.332-6.954-2.982-14.457-4.797-22.106c-0.795-3.368-1.629-6.766-2.475-10.159
				c-8.357-33.374-18.571-66.264-18.571-66.264s59.993-19.597,63.387-1.282c1.303,7.029,5.639,35.156,3.687,78.162
				c-1.575,34.619-0.557,61.622,2.434,92.962C2163.213,1163.406,2167.713,1187.079,2171.219,1202.009z"/>
		</g>
		<path style="fill:#285493;" d="M2120.32,1092.111c0.055-4.894-0.649-11.416-1.865-18.923c-0.447-2.753-0.963-5.635-1.537-8.617
			c-1.332-6.954-2.982-14.457-4.797-22.106c-0.795-3.368-1.629-6.766-2.475-10.159c1.185-10.184,2.141-17.171,2.141-17.171
			S2136.695,1048.967,2120.32,1092.111z"/>
		<path style="fill:#B77446;" d="M2078.804,1233.448c0.432,5.338,7.968,5.34,16.512,4.284s6.286,1.126,18.261,1.204
			s16.072-3.909,16.639-5.625c0.506-1.521-5.271-2.757-11.451-4.214c-0.777-0.18-1.557-0.371-2.337-0.561
			c-6.97-1.718-11.614-6.89-17.599-11.392c-5.67-4.265-1.703-24.948-1.703-24.948l-17.595-6.283c0,0,2.653,20.805,2.653,32.256
			c0,3.855-2.217,6.373-2.854,9.718C2078.988,1229.707,2078.649,1231.568,2078.804,1233.448z"/>
		<path style="fill:#365DA4;" d="M2095.315,1237.732c1.997-0.463,6.286,1.126,18.261,1.204s16.072-3.909,16.639-5.625
			c0.506-1.521-5.271-2.757-11.451-4.214l-0.072,0.114c0,0-7.679,4.194-17.546,3.276c-8.042-0.746-16.268-4.04-21.816-4.601
			c-0.341,1.819-0.68,3.681-0.525,5.561C2079.235,1238.786,2084.338,1240.281,2095.315,1237.732z"/>
		<path style="fill:#365DA4;" d="M2127.215,959.51c0,0-19.519,97.278-22.816,150.223c-3.297,52.945-7.414,96.777-7.414,96.777
			s-4.258,1.536-9.146,1.257c-5.16-0.294-9.251-1.885-9.251-1.885s-19.346-79.658-12.938-111.544
			c6.407-31.886,1.069-61.296-2.006-87.744c-4.411-37.922,12.559-55.547,24.404-67.563
			C2100.039,926.869,2127.215,959.51,2127.215,959.51z"/>
		<path style="fill:#163560;" d="M2141.047,781.338c1.939-15.837-3.007-41.18-34.617-37.131
			c-31.61,4.05-41.571,35.115-35.196,48.928c6.375,13.813-9.177,17.144-14.06,31.998c-4.195,12.762-5.656,28.604-12.443,35.716
			c-21.884,22.925,21.008,58.179,46.865,50.744c47.098-13.54,53.164-15.561,51.492-52.567c-0.857-18.959-15.608-26.306-6.242-31.791
			C2159.471,813.982,2136.659,817.176,2141.047,781.338z"/>
		<path style="fill:#A86337;" d="M2134.1,822.302c-0.48,0-4.267-1.164-10.624-1.767c-3.102-9.342-1.421-19.124-1.421-19.124
			l-23.518-7.162c-1.134,25.007-3.379,28.128-3.851,28.511c-4.867,1.158-10.074,2.773-15.575,5.014c0,0,15.016,85.905,8.565,102.3
			c-6.45,16.396-8.901,30.946-8.901,30.946l69.971,0.868c0,0-0.979-56.274,2.246-76.191S2134.1,822.302,2134.1,822.302z"/>
		<path style="fill:#B77446;" d="M2128.194,803.007c0,0-28.155,5.655-31.407-11.934c-3.251-17.588-9.074-28.704,8.765-33.058
			c17.839-4.354,22.582,1.71,25.096,7.317C2133.16,770.94,2135.435,801.083,2128.194,803.007z"/>
		<path style="fill:#80BDCC;" d="M2250.311,880.106c-0.21-2.447-0.979-3.004-0.979-3.004c-22.37,3.284-37.197,3.1-44.461,4.516
			c-5.706,1.106-8.038,1.265-9.019-0.117c-30.904-43.454-52.776-57.102-52.776-57.102s-2.332-1.387-11.457-2.644
			c0,0-1.312,16.523-9.803,17.926c-14.688,2.421-26.521-11.03-29.978-16.446c0,0-16.865,4.256-21.816,9.899
			c-3.557,4.055-3.092,13.756-2.037,19.855c0.336,1.936,0.729,3.511,1.072,4.424c1.044,2.762,4.994,23.019,6.795,31.084
			c0.043,0.205,0.084,0.395,0.122,0.569c0.126,0.541,0.235,1.014,0.335,1.408c0.005,0.012,0.005,0.021,0.009,0.033
			c0.104,0.432,0.192,0.767,0.264,0.984c0.042,0.13,0.083,0.264,0.126,0.394c0,0.009,0.004,0.017,0.008,0.025
			c2.602,8.295,4.169,16.748,3.247,27.117c-0.109,1.219-0.39,2.689-0.805,4.344c-2.35,12.048-12.115,35.8-14.143,46.705
			c1.169,2.463,3.816,4.411,7.038,5.965c4.201,2.028,9.367,3.381,13.48,4.323c3.184,0.733,8.081,1.555,13.729,2.186
			c2.995,0.336,6.203,0.62,9.472,0.809c0.46,0.029,0.917,0.055,1.378,0.076c21.08,1.047,44.682,0.527,47.756-9.493
			c1.475-4.81-4.402-33.719-5.186-42.31c-1.369-15.092,0.863-35.757,1.871-51.759c17.299,19.063,35.152,25.924,35.152,25.924
			c4.273-0.201,9.195-1.001,14.344-2.153c5.53-1.236,11.324-2.879,16.865-4.638c15.668-4.96,30.398-11.903,30.398-11.903
			S2250.771,885.505,2250.311,880.106z"/>
		<path style="fill:#163560;" d="M2114.435,753.625c0,0,0.494,5.966-8.767,16.089c-9.26,10.122-7.052,28.169-7.052,28.169
			s-15.606-29.335-7.28-38.701C2099.662,749.816,2114.435,753.625,2114.435,753.625z"/>
		<path style="fill:#163560;" d="M2103.114,745.862c0,0,13.997-4.685,27.888,9.004c5.982,5.896,5.079,17.488,1.874,24.215
			c0,0-4.922-14.413-13.881-17.558C2110.036,758.38,2103.114,745.862,2103.114,745.862z"/>
		<path style="fill:#FFFFFF;" d="M2119.423,794.354c0,0,0.753,2.088,6.054,1.14c0,0,4.45-0.794,4.04-3.138
			C2129.517,792.356,2124.978,791.18,2119.423,794.354z"/>
		<path style="fill:#5F9AA8;" d="M2125.075,951.133c-3.993,13.544-6.313,24.69-16.342,32.227c-3.269-0.188-6.477-0.473-9.472-0.809
			c-5.647-0.632-10.545-1.453-13.729-2.186c-4.113-0.942-9.279-2.295-13.48-4.323c-3.222-1.554-5.869-3.502-7.038-5.965
			c2.027-10.904,11.793-34.657,14.143-46.705c0.23-1.174,0.39-2.232,0.466-3.158c0.871-10.792-0.528-19.656-2.908-28.303
			c-0.004-0.008-0.008-0.017-0.008-0.025c-0.131-0.461-0.26-0.917-0.39-1.378c-0.004-0.013-0.004-0.021-0.009-0.034
			c-0.084-0.297-0.196-0.778-0.335-1.407c-0.038-0.175-0.079-0.364-0.122-0.569c-1.608-7.642-5.818-31.62-6.891-34.749
			c-0.34-0.988-0.721-2.686-1.051-4.775l8.424-8.107c0,0,48.335,20.64,58.983,49.11
			C2145.967,918.444,2130.81,931.703,2125.075,951.133z"/>
		<path style="fill:#5F9AA8;" d="M2220.914,899.007c-10.699,3.394-22.34,6.367-31.209,6.791c0,0-18.093-6.946-35.498-26.3
			c-0.733-3.289-1.441-8.806,2.542-7.214c5.589,2.232,26.254,28.767,34.075,29.324
			C2196.421,902.006,2212.331,900.117,2220.914,899.007z"/>
		<path style="fill:#80BDCC;" d="M2182.741,891.449c0,0-23.826,11.969-44.483,16.92c-5.944,1.425-11.671,2.435-16.556,2.665
			c0,0-22.215-6.833-39.168-30.581c-32.747-45.872-7.466-50.818-7.466-50.818s21.877,13.647,52.775,57.102
			c1.081,1.52,3.796,1.178,10.825-0.242c7.507-1.517,22.45-1.337,43.077-4.365c0,0,0.348,0.767,0.557,3.213
			C2182.768,890.741,2182.741,891.449,2182.741,891.449z"/>
		<path style="fill:#A86337;" d="M2274.779,873.341c-2.673-2.515-15.246-0.942-19.962,1.415c-1.808,0.902-3.751,1.621-5.464,2.163
			c-22.005,3.188-37.293,3.297-44.483,4.698c-1.508,4.457-3.041,12.152-0.821,22.027c5.53-1.236,11.324-2.879,16.865-4.638
			c14.98-4.742,29.094-11.293,30.305-11.86c2.223-0.347,5.236-0.649,9.257-0.76C2271.95,886.072,2277.45,875.856,2274.779,873.341z"
			/>
		<path style="fill:#B77446;" d="M2211.617,876.744c-2.854-2.685-16.276-1.006-21.311,1.511c-2.945,1.473-6.229,2.482-8.451,3.069
			c-0.001-0.011-0.005-0.033-0.005-0.033c-20.627,3.028-35.675,3.686-43.182,5.203c2.35,5.068,4.122,12.906-0.411,21.875
			c19.773-4.739,42.938-15.326,44.885-16.224c2.314-0.588,6.42-1.288,13.205-1.474
			C2208.597,890.336,2214.469,879.43,2211.617,876.744z"/>
	</g>
	<path style="opacity:0.6;fill:#D2E4FF;" d="M3383.143,785.366c0.011,2.776,0.011,5.563-0.011,8.36
		c-0.422,48.263-7.294,97.54-19.265,145.443H3169.98c-5.848,0-10.63-5.7-10.63-12.667V743.922c0-6.967,4.782-12.667,10.63-12.667
		h209.89c1.921,16.457,2.978,33.146,3.23,50.005C3383.121,782.632,3383.132,783.994,3383.143,785.366z"/>
	<g>
		<path style="fill:#C7DEF9;" d="M3346.76,790.172h-94.481l0.644-12.739h-1.724c-0.497-5.763-10.957-3.968-11.214,0h-2.046
			l0.819,12.739h-9.311l0.645-12.739h-1.725c-0.496-5.763-10.957-3.968-11.213,0h-2.047l0.819,12.739h-9.311l0.645-12.739h-1.725
			c-0.496-5.763-10.957-3.968-11.213,0h-2.046l0.818,12.739h-5.583c-1.939,0-3.527,1.587-3.527,3.527v1.543
			c0,1.94,1.588,3.527,3.527,3.527h159.247c1.939,0,3.527-1.587,3.527-3.527v-1.543
			C3350.287,791.759,3348.699,790.172,3346.76,790.172z"/>
		<path style="fill:#C7DEF9;" d="M3346.76,863.36h-159.247c-1.939,0-3.527,1.587-3.527,3.527v1.544c0,1.94,1.588,3.526,3.527,3.526
			h159.247c1.939,0,3.527-1.587,3.527-3.526v-1.544C3350.287,864.947,3348.699,863.36,3346.76,863.36z"/>
		<path style="fill:#C7DEF9;" d="M3245.578,842.39c-0.947-6.824-7.105-5.844-12.555-10.418c-5.449-4.574-15.636,3.87-23.689,6.686
			c-5.313,1.856-7.738,7.997-8.775,11.964h-8.281l3.316,12.739h54.723l2.605-12.739h-6.979
			C3246.051,848.55,3246.038,845.696,3245.578,842.39z"/>
		<path style="fill:#C7DEF9;" d="M3320.438,842.39c-0.947-6.824-7.106-5.844-12.555-10.418c-5.449-4.574-15.636,3.87-23.69,6.686
			c-5.312,1.856-7.738,7.997-8.774,11.964h-8.282l3.317,12.739h54.723l2.605-12.739h-6.979
			C3320.91,848.55,3320.897,845.696,3320.438,842.39z"/>
		<path style="fill:#C7DEF9;" d="M3325.176,790.113l2.605-12.739h-6.979c0.107-2.07,0.095-4.925-0.365-8.231
			c-0.947-6.824-7.106-5.844-12.555-10.418c-5.449-4.574-15.636,3.871-23.69,6.686c-5.312,1.857-7.738,7.997-8.774,11.964h-8.282
			l3.317,12.739H3325.176z"/>
		<path style="fill:#C7DEF9;" d="M3346.76,915.893h-94.481l0.644-12.739h-1.724c-0.497-5.763-10.957-3.967-11.214,0h-2.046
			l0.819,12.739h-9.311l0.645-12.739h-1.725c-0.496-5.763-10.957-3.967-11.213,0h-2.047l0.819,12.739h-9.311l0.645-12.739h-1.725
			c-0.496-5.763-10.957-3.967-11.213,0h-2.046l0.818,12.739h-5.583c-1.939,0-3.527,1.588-3.527,3.527v1.544
			c0,1.939,1.588,3.526,3.527,3.526h159.247c1.939,0,3.527-1.587,3.527-3.526v-1.544
			C3350.287,917.481,3348.699,915.893,3346.76,915.893z"/>
		<path style="fill:#C7DEF9;" d="M3320.438,894.864c-0.947-6.824-7.106-5.844-12.555-10.418c-5.449-4.575-15.636,3.87-23.69,6.685
			c-5.312,1.857-7.738,7.996-8.774,11.964h-8.282l3.317,12.739h54.723l2.605-12.739h-6.979
			C3320.91,901.024,3320.897,898.171,3320.438,894.864z"/>
	</g>
	<g>
		<g>
			<g>
				<path style="fill:#EE9849;" d="M494.428,1041.472c-0.018,0-0.035,0-0.054,0c-2.04-0.027-3.671-1.514-3.642-3.322
					c2.075-128.788-47.727-227.81-48.23-228.794c-0.842-1.649-0.682-5.329,4.684-5.797c4.692-0.409,7.604,0.613,8.444,2.262
					c0.128,0.25,11.237,23.815,23.576,64.772c11.377,37.766,20.01,99.601,18.913,167.649
					C498.092,1040.035,496.443,1041.472,494.428,1041.472z"/>
			</g>
			<g>
				<path style="fill:#EE9849;" d="M605.49,1041.472c-0.017,0-0.035,0-0.053,0c-2.041-0.027-3.672-1.514-3.642-3.322
					c2.074-128.788-47.727-227.81-48.231-228.794c-0.842-1.649-0.682-5.329,4.683-5.797c4.693-0.409,7.604,0.613,8.445,2.262
					c0.129,0.25,11.237,23.815,23.576,64.772c11.378,37.766,20.011,99.601,18.914,167.649
					C609.155,1040.035,607.506,1041.472,605.49,1041.472z"/>
			</g>
			<g>
				<path style="fill:#EE9849;" d="M461.542,848.903c-1.767,0-3.33-1.129-3.638-2.724c-0.344-1.783,1.008-3.476,3.019-3.781
					c3.2-0.484,78.732-11.76,112.543-2.352c1.946,0.54,3.029,2.379,2.418,4.105c-0.61,1.727-2.685,2.689-4.632,2.143
					c-32.111-8.935-108.318,2.445-109.084,2.561C461.958,848.888,461.749,848.903,461.542,848.903z"/>
			</g>
			<g>
				<path style="fill:#EE9849;" d="M470.176,870.593c-1.768,0-3.33-1.128-3.638-2.724c-0.344-1.783,1.008-3.477,3.019-3.781
					c3.2-0.483,78.733-11.764,112.542-2.352c1.947,0.541,3.03,2.379,2.419,4.105c-0.612,1.726-2.686,2.69-4.632,2.143
					c-32.125-8.94-108.318,2.445-109.084,2.561C470.592,870.577,470.382,870.593,470.176,870.593z"/>
			</g>
		</g>
		<path style="fill:#EE9849;" d="M489.992,1041.475h227.609c0,0-5.301-21.991-137.117-18.716
			C487.2,1025.076,489.992,1041.475,489.992,1041.475z"/>
		<g>
			<path style="fill:#E58638;" d="M471.466,1238.945c26.391-117.464,19.605-189.545,19.571-190.453
				c-0.066-1.809,3.725-3.45,5.764-3.509c2.064-0.032,11.174-0.534,12.227,1.014c1.381,2.027,6.695,90.836-32.637,192.948H471.466z"
				/>
		</g>
		<g>
			<path style="fill:#E58638;" d="M664.69,1238.945c-26.391-117.464-19.604-189.545-19.571-190.453
				c0.066-1.809-3.725-3.45-5.763-3.509c-2.066-0.032-11.175-0.534-12.229,1.014c-1.381,2.027-6.695,90.836,32.637,192.948H664.69z"
				/>
		</g>
		<g>
			<path style="fill:#CE6D25;" d="M726.099,1238.945c-26.391-117.464-19.604-189.545-19.571-190.453
				c0.067-1.809-3.725-3.45-5.765-3.509c-2.065-0.032-11.173-0.534-12.227,1.014c-1.38,2.027-6.695,90.836,32.637,192.948H726.099z"
				/>
		</g>
		<g>
			<path style="fill:#CE6D25;" d="M538.285,1238.945c26.391-117.464,19.605-189.545,19.571-190.453
				c-0.067-1.809,3.725-3.45,5.765-3.509c2.064-0.032,11.173-0.534,12.227,1.014c1.381,2.027,6.695,90.836-32.636,192.948H538.285z"
				/>
		</g>
		<path style="fill:#E58638;" d="M718.891,1048.492H488.974c-1.931,0-3.51-1.579-3.51-3.509l0,0c0-1.931,1.579-3.509,3.51-3.509
			h229.917c1.93,0,3.508,1.578,3.508,3.509l0,0C722.398,1046.913,720.82,1048.492,718.891,1048.492z"/>
	</g>
	<g>
		<g>
			<g>
				<path style="fill:#EE9849;" d="M1488.187,1071.082c-0.016,0-0.03,0-0.046,0c-1.734-0.022-3.12-1.286-3.096-2.823
					c1.765-109.477-40.569-193.65-40.998-194.488c-0.715-1.401-0.58-4.528,3.982-4.927c3.988-0.348,6.463,0.521,7.178,1.923
					c0.109,0.212,9.552,20.243,20.041,55.06c9.671,32.103,17.01,84.665,16.078,142.511
					C1491.301,1069.861,1489.9,1071.082,1488.187,1071.082z"/>
			</g>
			<g>
				<path style="fill:#EE9849;" d="M1582.596,1071.082c-0.016,0-0.031,0-0.046,0c-1.735-0.022-3.12-1.286-3.095-2.823
					c1.764-109.477-40.571-193.65-40.999-194.488c-0.716-1.401-0.579-4.528,3.981-4.927c3.99-0.348,6.463,0.521,7.18,1.923
					c0.108,0.212,9.551,20.243,20.04,55.06c9.671,32.103,17.01,84.665,16.077,142.511
					C1585.71,1069.861,1584.31,1071.082,1582.596,1071.082z"/>
			</g>
			<g>
				<path style="fill:#EE9849;" d="M1460.232,907.389c-1.503,0-2.831-0.959-3.093-2.314c-0.292-1.516,0.856-2.955,2.566-3.214
					c2.72-0.412,66.927-9.997,95.667-2c1.654,0.46,2.575,2.022,2.056,3.489c-0.52,1.468-2.282,2.287-3.938,1.822
					c-27.296-7.595-92.076,2.078-92.728,2.177C1460.585,907.376,1460.408,907.389,1460.232,907.389z"/>
			</g>
			<g>
				<path style="fill:#EE9849;" d="M1467.57,925.827c-1.502,0-2.83-0.959-3.092-2.316c-0.292-1.516,0.857-2.954,2.566-3.214
					c2.721-0.411,66.927-9.999,95.666-1.999c1.655,0.46,2.576,2.022,2.057,3.49c-0.52,1.466-2.283,2.286-3.938,1.821
					c-27.308-7.6-92.076,2.078-92.727,2.177C1467.925,925.813,1467.746,925.827,1467.57,925.827z"/>
			</g>
		</g>
		<path style="fill:#EE9849;" d="M1484.416,1071.084h193.48c0,0-4.506-18.692-116.559-15.908
			C1482.043,1057.146,1484.416,1071.084,1484.416,1071.084z"/>
		<g>
			<path style="fill:#E58638;" d="M1468.668,1238.945c22.434-99.851,16.664-161.123,16.636-161.895
				c-0.056-1.538,3.167-2.934,4.9-2.983c1.755-0.027,9.497-0.454,10.394,0.861c1.174,1.724,5.691,77.217-27.743,164.017H1468.668z"
				/>
		</g>
		<g>
			<path style="fill:#E58638;" d="M1632.918,1238.945c-22.434-99.851-16.666-161.123-16.637-161.895
				c0.057-1.538-3.166-2.934-4.899-2.983c-1.755-0.027-9.499-0.454-10.395,0.861c-1.174,1.724-5.69,77.217,27.743,164.017H1632.918z
				"/>
		</g>
		<g>
			<path style="fill:#CE6D25;" d="M1685.118,1238.945c-22.433-99.851-16.665-161.123-16.636-161.895
				c0.057-1.538-3.166-2.934-4.9-2.983c-1.755-0.027-9.498-0.454-10.394,0.861c-1.174,1.724-5.692,77.217,27.742,164.017H1685.118z"
				/>
		</g>
		<g>
			<path style="fill:#CE6D25;" d="M1525.468,1238.945c22.434-99.851,16.665-161.123,16.636-161.895
				c-0.056-1.538,3.167-2.934,4.9-2.983c1.755-0.027,9.498-0.454,10.394,0.861c1.175,1.724,5.692,77.217-27.742,164.017H1525.468z"
				/>
		</g>
		<path style="fill:#E58638;" d="M1678.991,1077.051H1483.55c-1.641,0-2.983-1.343-2.983-2.983l0,0c0-1.641,1.343-2.983,2.983-2.983
			h195.441c1.641,0,2.983,1.343,2.983,2.983l0,0C1681.975,1075.708,1680.632,1077.051,1678.991,1077.051z"/>
	</g>
	<g>
		<g>
			<g>
				<path style="fill:#EE9849;" d="M1386.181,1042.369c0.019,0,0.035,0,0.054,0c2.04-0.026,3.671-1.513,3.641-3.321
					c-2.074-128.788,47.728-227.81,48.231-228.795c0.842-1.648,0.682-5.328-4.685-5.796c-4.692-0.409-7.604,0.613-8.445,2.261
					c-0.127,0.251-11.236,23.815-23.575,64.773c-11.378,37.766-20.011,99.601-18.914,167.649
					C1382.516,1040.935,1384.164,1042.369,1386.181,1042.369z"/>
			</g>
			<g>
				<path style="fill:#EE9849;" d="M1275.117,1042.369c0.019,0,0.036,0,0.054,0c2.041-0.026,3.672-1.513,3.642-3.321
					c-2.074-128.788,47.727-227.81,48.23-228.795c0.842-1.648,0.682-5.328-4.684-5.796c-4.692-0.409-7.604,0.613-8.445,2.261
					c-0.128,0.251-11.236,23.815-23.575,64.773c-11.378,37.766-20.011,99.601-18.914,167.649
					C1271.453,1040.935,1273.102,1042.369,1275.117,1042.369z"/>
			</g>
			<g>
				<path style="fill:#EE9849;" d="M1419.066,849.801c1.768,0,3.33-1.128,3.637-2.724c0.344-1.782-1.008-3.475-3.019-3.78
					c-3.199-0.484-78.731-11.76-112.542-2.352c-1.946,0.541-3.029,2.379-2.418,4.104c0.61,1.727,2.685,2.69,4.632,2.144
					c32.11-8.935,108.317,2.445,109.083,2.56C1418.65,849.786,1418.859,849.801,1419.066,849.801z"/>
			</g>
			<g>
				<path style="fill:#EE9849;" d="M1410.434,871.491c1.766,0,3.329-1.128,3.637-2.725c0.344-1.782-1.008-3.475-3.02-3.78
					c-3.199-0.483-78.731-11.764-112.541-2.352c-1.947,0.541-3.03,2.38-2.419,4.105c0.612,1.726,2.685,2.69,4.632,2.143
					c32.125-8.94,108.318,2.444,109.083,2.561C1410.016,871.476,1410.227,871.491,1410.434,871.491z"/>
			</g>
		</g>
		<path style="fill:#EE9849;" d="M1390.616,1042.372h-227.61c0,0,5.301-21.989,137.118-18.715
			C1393.408,1025.975,1390.616,1042.372,1390.616,1042.372z"/>
		<g>
			<path style="fill:#E58638;" d="M1409.143,1239.845c-26.391-117.465-19.604-189.546-19.571-190.454
				c0.066-1.809-3.725-3.451-5.765-3.51c-2.064-0.031-11.173-0.533-12.227,1.014c-1.381,2.027-6.695,90.838,32.637,192.95H1409.143z
				"/>
		</g>
		<g>
			<path style="fill:#E58638;" d="M1215.919,1239.845c26.391-117.465,19.604-189.546,19.571-190.454
				c-0.066-1.809,3.725-3.451,5.763-3.51c2.065-0.031,11.175-0.533,12.229,1.014c1.381,2.027,6.695,90.838-32.637,192.95H1215.919z"
				/>
		</g>
		<g>
			<path style="fill:#CE6D25;" d="M1154.51,1239.845c26.391-117.465,19.604-189.546,19.571-190.454
				c-0.067-1.809,3.725-3.451,5.765-3.51c2.064-0.031,11.173-0.533,12.227,1.014c1.381,2.027,6.696,90.838-32.636,192.95H1154.51z"
				/>
		</g>
		<g>
			<path style="fill:#CE6D25;" d="M1342.322,1239.845c-26.39-117.465-19.604-189.546-19.57-190.454
				c0.066-1.809-3.725-3.451-5.765-3.51c-2.064-0.031-11.173-0.533-12.228,1.014c-1.38,2.027-6.695,90.838,32.637,192.95H1342.322z"
				/>
		</g>
		<path style="fill:#E58638;" d="M1161.718,1049.391h229.917c1.93,0,3.509-1.579,3.509-3.51l0,0c0-1.93-1.579-3.509-3.509-3.509
			h-229.917c-1.93,0-3.508,1.579-3.508,3.509l0,0C1158.21,1047.812,1159.788,1049.391,1161.718,1049.391z"/>
	</g>
	<g>
		<path style="fill:#E49963;" d="M776.185,878.531c0,0,13.304-8.284,19.078-7.028c5.773,1.255,21.588,5.772,22.09,12.3
			c0.502,6.527-22.592,16.818-39.662,11.045C760.621,889.074,776.185,878.531,776.185,878.531z"/>
		<path style="fill:#D38957;" d="M705.636,1225.789c0.009,2.922,1.446,4.933,3.895,6.281c0.007,0.007,0.022,0.015,0.037,0.015
			c4.526,2.493,11.752,0.58,20.397,0.203c1.107-0.045,2.82,2.087,3.709,2.087c0.233,0,0.466,0,0.692,0.007
			c0.181,0,0.362,0.008,0.534,0.008c8.556,0.211,7.651,2.771,23.91,4.164c18.534,1.582,25.363-4.089,26.456-6.672
			c0.918-2.191-7.034-4.677-15.921-7.516c-0.428-0.136-0.858-0.278-1.295-0.414c-1.182-0.377-2.371-0.769-3.555-1.152
			c-10.58-3.517-20.995-7.688-23.593-18.397c-2.757-11.356,5.527-43.053,5.527-43.053l-29.37-3.171c0,0-2.832,33.135-4.677,43.46
			c-0.994,5.513-3.495,9.896-4.955,14.617c-0.106,0.331-0.204,0.662-0.294,0.994
			C706.382,1220.021,705.629,1222.859,705.636,1225.789z"/>
		<g>
			<path style="fill:#2F5791;" d="M785.267,1231.879c-0.582,1.377-1.81,5.417-9.585,7.064h-29.478
				c-0.093-0.043-0.185-0.086-0.271-0.121c-9.713-4.316-17.473-4.813-23.593-4.906c-3.267-0.057-6.057,0.007-8.435-0.348h-0.007
				c-1.428-0.206-2.699-0.568-3.828-1.193c-0.007,0-0.007,0-0.007,0c-0.17-0.092-0.333-0.184-0.496-0.291
				c-0.015,0-0.029-0.007-0.036-0.014c-0.15-0.078-0.291-0.163-0.433-0.256h-0.007l-0.008-0.008
				c-0.269-0.162-0.518-0.34-0.759-0.524c-0.129-0.093-0.242-0.186-0.355-0.284c-0.113-0.1-0.228-0.199-0.334-0.306
				c-0.078-0.078-0.156-0.155-0.234-0.234c-0.135-0.142-0.263-0.298-0.391-0.454c-0.007-0.008-0.015-0.021-0.021-0.028
				c-0.07-0.092-0.142-0.185-0.205-0.284c-0.071-0.105-0.143-0.206-0.206-0.319c-0.008-0.007-0.015-0.021-0.022-0.028
				c-0.007-0.014-0.015-0.028-0.015-0.035c-0.057-0.093-0.112-0.178-0.155-0.277c-0.008,0-0.008-0.008-0.008-0.008
				c-0.035-0.063-0.063-0.127-0.093-0.191c-0.049-0.092-0.091-0.191-0.128-0.284c-0.057-0.134-0.113-0.276-0.155-0.419
				c-0.042-0.113-0.078-0.227-0.106-0.34c-0.043-0.149-0.079-0.298-0.107-0.455c-0.028-0.12-0.05-0.248-0.063-0.376
				c-0.015-0.085-0.029-0.17-0.036-0.256c-0.015-0.12-0.028-0.248-0.036-0.376c-0.014-0.178-0.021-0.355-0.021-0.54v-0.042
				c0-0.156,0-0.313,0.008-0.462c0-0.155,0.014-0.305,0.021-0.462c0.007-0.155,0.014-0.318,0.028-0.482
				c0.007-0.156,0.021-0.312,0.043-0.476c0.021-0.234,0.05-0.462,0.077-0.688c0.007-0.043,0.015-0.092,0.021-0.135
				c0.015-0.143,0.035-0.291,0.065-0.433c0.028-0.214,0.071-0.434,0.106-0.646c0.063-0.377,0.142-0.746,0.22-1.115
				c0.036-0.155,0.071-0.305,0.106-0.462c0.078-0.354,0.164-0.702,0.249-1.05c0.043-0.178,0.092-0.355,0.135-0.526
				c0.092-0.348,0.185-0.695,0.276-1.036c0.05-0.171,0.093-0.348,0.142-0.519c0.092-0.334,0.191-0.667,0.298-0.993
				c8.833,2.052,21.115,8.207,33.483,10.529c0.185,0.035,0.377,0.07,0.562,0.099c6.631,1.186,12.744,0.867,17.593,0.121
				c5.255-0.816,9.004-2.145,10.281-2.642C778.231,1227.207,786.183,1229.691,785.267,1231.879z"/>
			<polygon style="fill:#2F5791;" points="722.34,1238.943 722.34,1236.77 722.34,1235.095 722.34,1233.916 722.34,1233.043 
				721.801,1232.957 708.594,1230.877 709.084,1231.807 709.092,1231.814 709.099,1231.814 709.418,1232.418 710.391,1234.243 
				710.398,1234.243 712.91,1238.943 			"/>
		</g>
		<path style="fill:#B74B42;" d="M553.889,943.32l95.077-9.062c0,0,145.518,0.657,159.072,19.866c0,0,25.981,18.01-3.389,92.448
			c-29.368,74.438-63.859,148.832-63.859,148.832s-8.786,2.401-20.835,1.468c-4.759-0.369-11.171-2.001-11.171-2.001
			s6.631-111.08,21.315-154.302c14.684-43.223,19.201-34.818-6.778-32.417c-25.979,2.401-109.566,21.611-147.972,16.809
			C536.944,1020.16,553.889,943.32,553.889,943.32z"/>
		<path style="fill:#E49963;" d="M687.312,1225.789c0.007,2.922,1.446,4.933,3.894,6.281c0.008,0.007,0.023,0.015,0.037,0.015
			c4.525,2.493,11.752,0.58,20.397,0.203c1.107-0.045,2.82,2.087,3.709,2.087c0.233,0,0.467,0,0.692,0.007
			c0.182,0,0.361,0.008,0.535,0.008c8.555,0.211,7.651,2.771,23.909,4.164c18.534,1.582,25.364-4.089,26.456-6.672
			c0.92-2.191-7.033-4.677-15.92-7.516c-0.43-0.136-0.857-0.278-1.295-0.414c-1.183-0.377-2.373-0.769-3.555-1.152
			c-10.581-3.517-20.996-7.688-23.595-18.397c-2.755-11.356,5.528-43.053,5.528-43.053l-29.37-3.171c0,0-2.831,33.135-4.677,43.46
			c-0.993,5.513-3.493,9.896-4.955,14.617c-0.106,0.331-0.203,0.662-0.293,0.994
			C688.058,1220.021,687.304,1222.859,687.312,1225.789z"/>
		<path style="fill:#C65447;" d="M540.598,950.073l89.165-7.531c0,0,145.519,0.637,159.073,19.241c0,0,21.988,13.774-7.38,85.866
			c-29.368,72.092-59.116,151.427-59.116,151.427s-6.589,0.904-14.56,0.258c-10.025-0.813-13.366-4.07-13.366-4.07
			s2.072-98.648,16.756-140.508c14.685-41.859,20.332-37.599-5.648-35.272c-25.979,2.325-99.029,20.543-149.373,10.903
			C518.129,1023.107,540.598,950.073,540.598,950.073z"/>
		<g>
			<path style="fill:#365DA4;" d="M767.013,1231.53c0,0.114-0.021,0.234-0.07,0.349c-0.54,1.284-1.64,4.855-8.023,6.681
				c-0.49,0.143-1.008,0.27-1.561,0.384h-29.479c-1.924-0.867-3.771-1.584-5.538-2.174c-4.43-1.477-8.399-2.187-11.941-2.526h-0.008
				c-2.3-0.228-4.423-0.299-6.376-0.327c-5.523-0.092-9.705,0.143-12.772-1.832c-0.014,0-0.029-0.007-0.036-0.014
				c-0.148-0.078-0.291-0.163-0.433-0.256h-0.008l-0.006-0.008c-0.272-0.17-0.526-0.34-0.761-0.524
				c-0.12-0.093-0.241-0.186-0.355-0.284c-0.121-0.1-0.227-0.199-0.334-0.306c-0.078-0.078-0.156-0.155-0.234-0.234
				c-0.071-0.078-0.148-0.17-0.227-0.256c-0.079-0.092-0.149-0.185-0.213-0.276c-0.043-0.057-0.086-0.106-0.121-0.163
				c-0.078-0.1-0.143-0.198-0.206-0.299c-0.057-0.092-0.113-0.185-0.163-0.283c-0.086-0.157-0.17-0.313-0.242-0.476
				c-0.007-0.007-0.007-0.021-0.014-0.028c-0.05-0.107-0.092-0.213-0.128-0.32c-0.028-0.078-0.063-0.163-0.085-0.241
				c-0.008-0.015-0.008-0.021-0.015-0.036c-0.007-0.014-0.007-0.027-0.015-0.042c-0.007-0.014-0.007-0.021-0.007-0.035
				c-0.035-0.1-0.063-0.206-0.092-0.305c-0.035-0.114-0.063-0.234-0.085-0.363c-0.028-0.12-0.051-0.248-0.064-0.376
				c-0.014-0.078-0.028-0.163-0.035-0.241c0-0.008,0-0.008,0-0.015c-0.015-0.12-0.028-0.248-0.035-0.376
				c-0.015-0.178-0.021-0.355-0.021-0.54c-0.008-2.925,0.745-5.765,1.505-8.534c0.085-0.334,0.185-0.667,0.292-0.993
				c4.792,1.114,10.606,3.436,16.897,5.701c5.296,1.902,10.934,3.77,16.586,4.828c7.184,1.362,13.795,0.951,18.886,0.099
				c4.87-0.816,8.335-2.045,9.549-2.521c2.869,0.916,5.639,1.797,8.044,2.642c0.462,0.163,0.91,0.326,1.343,0.483
				c0.412,0.155,0.816,0.305,1.199,0.454c0.385,0.148,0.753,0.298,1.102,0.447c0.177,0.071,0.348,0.148,0.519,0.22
				c0.163,0.071,0.325,0.142,0.489,0.22c0.313,0.143,0.61,0.292,0.881,0.434c0.141,0.071,0.269,0.143,0.396,0.213
				c0.256,0.143,0.49,0.284,0.703,0.426c0.163,0.107,0.32,0.221,0.455,0.326c0.1,0.086,0.191,0.164,0.27,0.242
				c0.05,0.043,0.092,0.085,0.135,0.135c0.185,0.185,0.313,0.377,0.384,0.568c0.022,0.05,0.035,0.099,0.049,0.148
				c0,0,0,0.007,0,0.015C767.006,1231.402,767.013,1231.467,767.013,1231.53z"/>
			<polygon style="fill:#365DA4;" points="704.015,1233.043 704.015,1238.943 694.586,1238.943 690.773,1231.814 690.766,1231.814 
				690.76,1231.807 690.269,1230.877 703.476,1232.958 			"/>
		</g>
		<path style="fill:#EE9849;" d="M782.681,895.739c-0.143,0.828-0.376,1.626-0.716,2.372c-3.765,8.283-82.084,18.826-91.874,13.555
			c-4.376-2.356-10.739-41.848-16.433-84.795c-7.041-53.093-13.065-111.472-13.065-111.472s32.51,10.257,36.274,27.578
			c3.766,17.321,4.52,124.258,14.31,129.529c9.789,5.272,51.209,0.753,65.517,3.012C776.694,875.519,784.18,887.365,782.681,895.739
			z"/>
		<path style="fill:#163560;" d="M662.724,592.338c-6.086-4.889-14.919-4.279-20.608-3.942c1.465-1.513,4.346-2.064,4.346-2.064
			c-3.527-0.523-11.4,2.975-11.4,2.975s-29.824-15.268-43.631,23.891c0,0,2.379-2.958,5.65-6.316
			c-7.985,22.526,0.08,56.609,25.227,62.671C638.653,673.493,725.102,642.441,662.724,592.338z"/>
		<path style="fill:#E49963;" d="M662.924,724.023c0.163,0.074-15.766,8.345-27.747,5.067c-11.272-3.073-18.635-17.687-18.479-17.72
			c4.773-0.948,6.148-7.507,6.048-35.691l2.157,0.425l36.281,7.185c0,0-0.826,11.418-0.851,22.174
			C660.309,714.494,660.856,723.06,662.924,724.023z"/>
		<path style="fill:#D68D5D;" d="M661.184,683.289c0,0-0.826,11.418-0.851,22.174c-20.302-0.573-31.033-19.093-35.431-29.358
			L661.184,683.289z"/>
		<path style="fill:#163560;" d="M621.156,672.155c0,0-10.64-16.811-13.193-31.186c-1.823-10.263,3.404-48.302,41.63-42.824
			c0,0,11.103,1.095,21.539,8.144c8.3,5.604,20.276,17.707,6.884,50.9l-3.479,11.214L621.156,672.155z"/>
		<path style="fill:#E49963;" d="M667.963,693.474c0,0-48.033,0.793-48.067-29.129c-0.032-29.92-6.255-49.97,24.413-51.74
			c30.667-1.771,36.639,9.64,39.078,19.624C685.826,642.213,680.457,692.497,667.963,693.474z"/>
		<path style="fill:#163560;" d="M666.185,611.871c0,0-13.152,35.104-33.336,40.294c-20.184,5.19-28.938-0.218-28.938-0.218
			s15.482-12.299,18.694-33.768C622.606,618.18,656.265,595.164,666.185,611.871z"/>
		<path style="fill:#E58638;" d="M679.712,759.72c-0.841-3.409,6.351-5.972,8.111-2.937c3.301,5.691,3.953,12.861,5.273,18.577
			c3.766,16.315,0,38.657,0,38.657L679.712,759.72z"/>
		<path style="fill:#163560;" d="M662.926,614.722c0,0,9.821,7.837,12.217,15.456c2.395,7.619,3.472,23.304,8.043,22.771
			c0,0,9.908-23.859-1.227-37.356C670.151,601.28,662.926,614.722,662.926,614.722z"/>
		<path style="fill:#FFFFFF;" d="M657.285,675.336c0,0,0.894,3.801,10.352,3.215c0,0,7.939-0.491,7.696-4.668
			C675.333,673.883,667.635,670.91,657.285,675.336z"/>
		<path style="fill:#E58638;" d="M782.681,895.739c-0.143,0.828-0.376,1.626-0.716,2.372c-3.765,8.283-82.084,18.826-91.874,13.555
			c-4.376-2.356-12.058-51.459-6.534-95.39c5.918,25.124,7.724,76.645,21.588,79.071
			C720.869,898.104,762.137,892.848,782.681,895.739z"/>
		<path style="fill:#EE9849;" d="M696.032,816.025c-19.468,93.849-3.178,108.255-13.292,117.481c-0.053,0.045-8.977,3.9-9.036,3.953
			c-10.543,9.143-10.807-1.936-43.942,12.426c-15.784,6.846-36.02,15.913-53.693,21.274c-6.658,2.011-12.946,3.509-18.504,4.157
			c-10.648,1.25-18.594-0.602-21.185-7.795c-7.53-20.897,28.618-76.398,19.581-114.271c-0.076-0.325-0.151-0.656-0.219-0.979
			c-0.655-3.313-0.776-7.116-0.438-11.289c1.688-21.131,15.032-51.841,28.858-78.064c15.265-28.925,31.109-52.392,32.533-51.548
			c40.259,23.895,43.896,4.028,43.896,4.028S702.674,784.021,696.032,816.025z"/>
		<path style="fill:#E58638;" d="M676.904,936.142C676.852,936.187,676.964,936.089,676.904,936.142
			c-10.543,9.143-14.007-0.618-47.143,13.743c-15.784,6.846-36.02,15.913-53.693,21.274c-9.031,1.574-15.755,2.96-18.504,4.157
			c-10.648,1.25-18.594-0.602-21.185-7.795c-7.53-20.897,28.618-76.398,19.581-114.271c-0.076-0.325-0.151-0.656-0.219-0.979
			c-0.776-3.742-0.881-7.478-0.438-11.289c1.905-16.056,13.714-33.474,27.088-58.845c8.947,9.451,76.137-1.507,60.246,91.875
			C637.768,902.638,672.725,913.926,676.904,936.142z"/>
		<g>
			<path style="fill:#C45446;" d="M790.732,894.037l-0.002-0.003c2.899,3.289,7.137,5.375,11.839,5.375
				c8.683,0,15.787-7.104,15.787-15.788v-6.146c0-0.668-0.047-1.326-0.129-1.974h-31.318c-0.082,0.647,0.251,9.068,0.697,11.69
				C788.327,891.428,790.732,894.037,790.732,894.037z"/>
			<path style="fill:#E37970;" d="M815.664,875.498h-4.244c0.084,0.648,0.128,1.309,0.128,1.976v6.148
				c0,7.962-5.976,14.597-13.662,15.636c0.692,0.103,1.404,0.154,2.122,0.154c8.681,0,15.785-7.109,15.785-15.79v-6.148
				C815.793,876.807,815.747,876.146,815.664,875.498z"/>
			
				<rect x="796.136" y="898.033" transform="matrix(-1 -1.224647e-16 1.224647e-16 -1 1605.1591 1797.9961)" style="fill:#C45446;" width="12.888" height="1.93"/>
		</g>
		<path style="fill:#E49963;" d="M673.641,940.911c0,0,14.811-3.515,21.588-0.753c6.778,2.761,20.334,9.79,19.078,13.555
			c-1.255,3.766-17.321,5.773-24.098,2.008c-6.778-3.765-11.799,1.005-20.083-1.757
			C661.843,951.203,673.641,940.911,673.641,940.911z"/>
		<path style="fill:#EE9849;" d="M616.697,711.371c0,0-54.629,0.731-64.419,27.089c-9.79,26.356-6.778,118.985,7.53,146.849
			s95.641,65.518,104.678,67.023c9.037,1.507,14.685-12.425,14.309-13.932c-0.377-1.506-85.475-70.412-85.098-77.566
			C594.074,853.68,616.697,711.371,616.697,711.371z"/>
	</g>
	<g>
		<path style="fill:#ED975D;" d="M1029.14,820.761c0,0-13.956-16.91-16.959-18.91c-3.003-1.998-16.185-5.503-16.939-4.797
			c-0.754,0.705-0.787,1.728,0.845,3.17c1.634,1.442,7.867,5.079,6.978,5.489c-0.889,0.41-19.695-8.952-22.406-5.804
			c-2.712,3.148,1.535,16.148,8.782,22.379c7.246,6.231,28.877,8.889,30.237,9.759
			C1031.214,839.424,1029.14,820.761,1029.14,820.761z"/>
		<path style="fill:#E49963;" d="M1159.938,1226.315c-0.007,2.83-1.445,4.778-3.893,6.084c-0.008,0.007-0.023,0.015-0.038,0.015
			c-4.525,2.414-12.471,2.656-21.116,2.291c-1.106-0.044-2.101-0.073-2.989-0.073c-0.233,0-0.468,0-0.693,0.008
			c-0.181,0-0.361,0.007-0.534,0.007c-8.556,0.204-7.651,2.685-23.91,4.034c-18.533,1.532-25.364-3.961-26.456-6.463
			c-0.919-2.123,7.034-4.53,15.92-7.28c0.43-0.132,0.858-0.271,1.296-0.401c1.183-0.365,2.372-0.744,3.555-1.116
			c10.58-3.407,20.995-7.448,23.594-17.822c2.756-11-5.527-41.705-5.527-41.705l29.37-3.071c0,0,2.831,32.098,4.676,42.1
			c0.994,5.34,3.494,9.586,4.956,14.159c0.104,0.321,0.202,0.642,0.293,0.963
			C1159.193,1220.728,1159.946,1223.479,1159.938,1226.315z"/>
		<path style="fill:#C65447;" d="M1159.938,1226.315c-0.007,2.83-1.445,4.778-3.893,6.084c-0.008,0.007-0.023,0.015-0.038,0.015
			c-4.819,2.159-12.636,2.474-21.101,2.24c-1.107-0.029-2.102-0.037-3.005-0.022c-0.233,0-0.468,0-0.693,0.008
			c-0.181,0-0.361,0.007-0.534,0.007c-8.556,0.204-7.651,2.685-23.91,4.034c-18.533,1.532-25.364-3.961-26.456-6.463
			c-0.919-2.123,7.034-4.53,15.92-7.28c2.493,0.933,14.377,4.931,28.437,2.349c12.365-2.254,24.648-8.214,33.482-10.206
			c0.104,0.321,0.202,0.642,0.293,0.963C1159.193,1220.728,1159.946,1223.479,1159.938,1226.315z"/>
		<path style="fill:#E49963;" d="M969.361,1190.943c-1.633,8.157-13.259,6.797-26.248,3.623c-12.99-3.175-9.902,0.599-28.39-1.448
			c-18.487-2.046-24.089-8.939-24.652-11.688c-0.504-2.439,8.631-3.3,18.429-4.429c1.232-0.139,2.47-0.291,3.707-0.443
			c11.064-1.388,19.164-8.526,29.213-14.389c9.518-5.553,23.721-28.178,23.721-28.178l25.353,2.009c0,0-13.304,20.207-18.45,28.992
			c-3.026,5.169-2.865,12.002-2.488,17.278C969.752,1185.14,969.94,1188.071,969.361,1190.943z"/>
		<path style="fill:#C65447;" d="M943.113,1194.566c-12.99-3.175-9.902,0.599-28.39-1.448c-18.487-2.046-24.089-8.939-24.652-11.688
			c-0.504-2.439,8.631-3.3,18.429-4.429l0.092,0.188c0,0,11.087,7.86,26.476,8.229c12.542,0.305,25.827-3.289,34.488-3.148
			c0.196,2.868,0.384,5.8-0.194,8.672C967.729,1199.101,956.102,1197.74,943.113,1194.566z"/>
		<path style="fill:#365DA4;" d="M1066.521,1028.826l54.642,147.052c0,0,8.395,0.813,16.442-1.506
			c7.405-2.135,15.893-7.739,15.893-7.739s-13.556-141.194-38.405-170.564C1090.242,966.701,1066.521,1028.826,1066.521,1028.826z"
			/>
		<path style="fill:#466AA5;" d="M1282.643,969.337c0,0-157.008-53.089-192.023-41.793
			c-35.017,11.295-140.152,220.47-140.152,220.47s2.37,3.156,8.849,5.586c6.024,2.259,20.606,2.114,20.606,2.114
			s94.883-81.329,106.179-105.049c11.296-23.721,15.813-46.312,27.109-44.053s145.713,55.348,176.211,23.721
			c30.497-31.628,22.521-72.721,22.521-72.721L1282.643,969.337z"/>
		<path style="fill:#B74B42;" d="M1186.695,722.36c-2.507-5.177-5.311-14.371-6.683-30.762c0.211,1.626,3.036,22.3,10.986,34.001
			c32.652,21.438,95.239,93.021,94,106.586c0,0,22.046-37.391,22.425-37.614c0,0,40.666-51.712-7.53-81.333
			c-24.496-15.054-24.371-34.375-23.349-51.159c1.032-16.786-6.681-89.037-55.75-70.129c0,0-7.874-3.499-11.401-2.975
			c0,0,2.882,0.551,4.346,2.064c-5.688-0.337-13.821,0.084-20.608,3.942C1175.143,605.203,1159.045,696.912,1186.695,722.36z"/>
		<path style="fill:#E49963;" d="M1192.931,726.667c-0.163,0.073,15.767,8.345,27.748,5.067
			c11.271-3.073,18.635-17.686,18.479-17.72c-4.773-0.948-6.148-7.507-6.049-35.691l-2.156,0.424l-36.281,7.185
			c0,0,0.825,11.419,0.851,22.174C1195.547,717.137,1194.999,725.702,1192.931,726.667z"/>
		<path style="fill:#D68D5D;" d="M1194.672,685.932c0,0,0.825,11.419,0.851,22.174c20.301-0.572,31.033-19.092,35.431-29.358
			L1194.672,685.932z"/>
		<path style="fill:#B74B42;" d="M1234.699,674.798c0,0,10.64-16.811,13.193-31.185c1.822-10.263-3.404-48.303-41.631-42.824
			c0,0-11.102,1.094-21.538,8.142c-8.3,5.606-20.277,17.707-6.885,50.901l3.479,11.214L1234.699,674.798z"/>
		<path style="fill:#E49963;" d="M1187.893,696.117c0,0,48.033,0.792,48.066-29.129s6.256-49.969-24.412-51.74
			c-30.667-1.771-36.639,9.64-39.079,19.624C1170.028,644.856,1175.398,695.14,1187.893,696.117z"/>
		<path style="fill:#B74B42;" d="M1189.67,614.515c0,0,13.152,35.104,33.335,40.293c20.184,5.19,28.938-0.218,28.938-0.218
			s-15.481-12.298-18.694-33.767C1233.249,620.823,1199.591,597.808,1189.67,614.515z"/>
		<path style="fill:#B74B42;" d="M1192.929,617.364c0,0-9.821,7.837-12.216,15.456c-2.395,7.62-3.472,23.305-8.043,22.771
			c0,0-9.909-23.859,1.227-37.356C1185.704,603.924,1192.929,617.364,1192.929,617.364z"/>
		<path style="fill:#699DEE;" d="M1299.894,855.894c4.737-19.866-11.38-58.416-28.203-90.331
			c-15.265-28.926-31.109-52.392-32.532-51.548c-40.26,23.896-43.896,4.029-43.896,4.029s-36.569,4.857-46.925,22.683
			c-14.323,24.648-29.919,98.615-45.245,97.522c-7.033-0.505-77.822-27.11-77.822-27.11s-11.793,11.048-9.534,24.603
			c0,0,34.951,23.406,64.509,38.34c15.634,7.899,29.762,13.427,36.403,11.86c13.465-3.17,34.498-34.385,45.862-52.761
			c0.025-0.042,0.05-0.081,0.076-0.122c14.505,82.106-5.218,100.804,4.767,109.462c10.543,9.142,25.604-4.354,58.739,10.008
			c21.734,9.429,51.895,23.059,72.197,25.432c10.648,1.25,18.594-0.603,21.185-7.795
			C1327.004,949.268,1290.856,893.766,1299.894,855.894z"/>
		<path style="fill:#FFFFFF;" d="M1198.57,677.979c0,0-0.896,3.801-10.352,3.214c0,0-7.939-0.49-7.697-4.667
			C1180.521,676.526,1188.221,673.554,1198.57,677.979z"/>
		<path style="fill:#3B76CA;" d="M1319.474,970.165c-2.591,7.192-10.536,9.045-21.185,7.795
			c-14.053-6.122-74.758-29.642-74.08-45.576c1.01-23.595,11.673-24.347,4.143-53.468c-6.048-23.384,50.044-66.861,58.99-76.313
			c16.824,31.916,17.289,33.424,12.552,53.29C1290.856,893.766,1327.004,949.268,1319.474,970.165z"/>
		<path style="fill:#3B76CA;" d="M1162.51,833.181c-11.364,18.376-32.397,49.591-45.862,52.761
			c-6.642,1.566-20.77-3.961-36.403-11.86c11.408,2.943,22.494,2.861,33.264,1.821c11.672-1.129,15.061-15.438,33.511-36.9
			C1158.985,825.085,1161.923,828.587,1162.51,833.181z"/>
		<g>
			<path style="fill:#C45446;" d="M1201.584,876.608c-1.48-0.914-4.362-0.558-6.45-0.119v-3.023c0-0.669-0.047-1.326-0.129-1.974
				h-31.319c-0.081,0.647-0.128,1.305-0.128,1.974v6.146c0,8.684,7.104,15.788,15.788,15.788c4.703,0,8.939-2.086,11.838-5.375
				l-0.002,0.003c0,0,7.451-1.834,9.79-4.612C1203.312,882.639,1204.07,878.144,1201.584,876.608z M1199.931,882.291
				c-0.791,2.044-4.344,3.144-6.097,3.57c0.701-1.612,1.139-3.362,1.261-5.195c1.081-1.481,2.789-2.348,4.041-2.12
				C1200.255,878.748,1200.932,879.705,1199.931,882.291z"/>
			<path style="fill:#E37970;" d="M1166.122,873.465v6.148c0,8.68,7.103,15.79,15.784,15.79c0.718,0,1.43-0.051,2.121-0.153
				c-7.687-1.039-13.662-7.675-13.662-15.637v-6.148c0-0.667,0.046-1.327,0.129-1.975h-4.244
				C1166.167,872.138,1166.122,872.798,1166.122,873.465z"/>
			<rect x="1172.891" y="894.023" style="fill:#C45446;" width="12.888" height="1.93"/>
		</g>
		<path style="fill:#E49963;" d="M1218.75,878.351c0,0-10.167-7.907-19.769-6.024c-9.602,1.882-14.31,8.472-13.932,11.483
			c0.376,3.013,5.459,11.485,12.802,12.238c7.343,0.753,28.24-4.519,28.24-4.519L1218.75,878.351z"/>
		<path style="fill:#699DEE;" d="M1239.158,714.015c0,0,39.149,2.412,52.702,21.315c19.078,26.608,52.213,135.24,43.177,160.091
			c0,0-37.157,3.914-63.707,3.914c-13.853-0.001-55.404-4.416-55.404-4.416s-2.887-13.492,1.129-20.02
			c4.017-6.526,69.283-17.069,72.296-20.081c3.012-3.013-37.654-58.74-37.654-67.777
			C1251.696,778.003,1239.158,714.015,1239.158,714.015z"/>
	</g>
	<path style="fill:#2B478B;" d="M1220.967,905.404H688.391c-5.682,0-10.328,4.648-10.328,10.328v13.475
		c0,5.681,4.646,10.327,10.328,10.327h257.334v260.937c-45.279,1.812-83.83,17.347-99.553,38.475h216.313
		c-15.606-21.208-53.571-36.646-98.853-38.472V939.534h257.335c5.68,0,10.328-4.646,10.328-10.327v-13.475
		C1231.295,910.053,1226.646,905.404,1220.967,905.404z"/>
	<path style="fill:#2B478B;" d="M2002.074,947.381h-355.887c-4.354,0-7.915,3.561-7.915,7.914v14.006
		c0,4.354,3.562,7.914,7.915,7.914h170.115v228.096c-39.512,1.566-72.668,14.984-86.411,33.453l188.478,0.182
		c-13.643-18.539-46.83-32.034-86.411-33.63V977.215h170.116c4.354,0,7.915-3.56,7.915-7.914v-14.006
		C2009.989,950.942,2006.428,947.381,2002.074,947.381z"/>
	<g>
		<path style="fill:#6BB7BF;" d="M453.945,848.323c-13.648,3.42-101.17,2.28-98.9,13.65c2.28,11.369,61.395,29.557,94.352,19.317
			c0,0-36.378,89.803-84.123,85.264c-47.735-4.55-62.514-34.097-92.082-36.378c-29.547-2.269-51.145,5.68-36.366,13.639
			c14.769,7.96,64.794,2.618,88.662,22.896c23.878,20.3,43.196,32.81-1.13,41.898c-27.014,5.542-67.105,5.605-97.909-2.914
			c-6.503-34.402-9.701-70.399-7.326-106.343c0.37-5.595,0.866-11.189,1.521-16.774c5.7-49.35,22.59-98.131,56.508-142.087
			c19.023-6.133,37.433-10.408,49.477-9.247c0,0-55.705,94.352-37.506,92.082c18.178-2.28,80.702-97.772,80.702-97.772
			s92.072-17.037,106.851,37.518C491.463,817.637,467.585,844.924,453.945,848.323z"/>
		<g>
			<path style="fill:#599DAD;" d="M434.343,780.215c-116.952,47.344-180.85,87.574-215.221,119.138
				c0.37-5.595,0.866-11.189,1.521-16.774C297.059,825.532,427.555,782.432,434.343,780.215z"/>
		</g>
	</g>
	<g>
		<path style="fill:#599DAD;" d="M243.728,1073.614c-3.947-12.446-7.61-25.313-10.861-38.509c0.527-0.57,0.823-0.887,0.823-0.887
			s39.259,14.166,48.579,25.693C282.27,1059.912,248.427,1068.305,243.728,1073.614z"/>
		<path style="fill:#599DAD;" d="M316.789,1114.076c-11.961,20.438-27.13,21.303-32.144,18.241
			c-4.033-2.471-21.145-20.015-29.157-24.775c-2.512-6.671-4.972-13.522-7.357-20.532c-0.359-1.055-0.718-2.121-1.076-3.197
			c-0.845-2.523-1.679-5.067-2.502-7.633c8.519,3.652,52.095-5.024,52.095-5.024S328.76,1093.66,316.789,1114.076z"/>
		<g>
			<path style="fill:#599DAD;" d="M299.191,1106.434c-19.846-8.604-36.715-14.905-51.061-19.424
				c-0.359-1.055-0.718-2.121-1.076-3.197C273.856,1093.438,297.006,1105.305,299.191,1106.434z"/>
		</g>
	</g>
	<g>
		<path style="fill:#A53934;" d="M1757.883,1194.272c0,0,21.176,21.153,26.426,26.341c5.25,5.188,24.951,2.902,30.369,18.194
			h-53.686c0,0-13.298-9.705-33.984-9.233c0,0-3.94-14.621,0-20.28s5.388-15.021,5.388-15.021H1757.883z"/>
		<path style="fill:#A53934;" d="M1727.008,1229.574l2.709,9.233h18.962v-7.818
			C1748.679,1230.989,1738.09,1227.688,1727.008,1229.574z"/>
		<path style="fill:#233862;" d="M1725.256,1037.945c0,0-0.986,100.337,7.14,156.327h25.487l17.979-105.722L1725.256,1037.945z"/>
		<path style="fill:#365DA4;" d="M1833.334,1194.272h-25.488c0,0-0.008-0.008-0.016-0.015c-1.219-1.264-79.346-82.25-91.544-133.123
			c0,0-7.299-0.657-16.083-0.273c-2.556,0.118-5.245,0.317-7.92,0.649c-11.82,1.479-166.715,7.145-174.843-0.981
			c-8.126-8.127-4.868-54.923-4.868-54.923l15.227-8.067l16.091-8.525c0,0,178.64,2.808,197.258,16.845
			C1759.765,1019.896,1803.412,1113.359,1833.334,1194.272z"/>
		<path style="fill:#B64C41;" d="M1833.334,1194.272c0,0,21.176,21.219,26.426,26.423c5.251,5.204,24.951,2.91,30.369,18.251
			h-53.685c0,0-13.299-9.734-33.984-9.262c0,0-3.94-14.667,0-20.344c3.939-5.677,5.388-15.068,5.388-15.068H1833.334z"/>
		<path style="fill:#B64C41;" d="M1802.46,1229.574l2.708,9.233h18.963v-7.818
			C1824.131,1230.989,1813.541,1227.688,1802.46,1229.574z"/>
		<path style="fill:#2D427C;" d="M1700.203,1060.861c-2.556,0.118-5.245,0.317-7.92,0.649c-11.82,1.479-166.715,7.145-174.843-0.981
			c-8.126-8.127-4.868-54.923-4.868-54.923l15.227-8.067l25.592,10.853C1553.391,1008.393,1549.601,1056.694,1700.203,1060.861z"/>
		<path style="fill:#EA8E50;" d="M1702.158,929.112c-3.329-9.96-12.518-10.372-12.518-10.372s-8.82-0.644-15.171,1.219
			c-6.351,1.863-16.91-1.822-16.91-1.822s-38.716-13.459-47.768-19.092c-19.42-12.086-54.536-90.431-66.493-80.88
			c0,0-15.452,14.582-6.968,39.661c8.484,25.08,42.028,59.6,62.385,65.174c15.04,4.118,54.34,6.31,59.556,6.588
			c6.489,0.837,15.297,4.59,17.651,4.773c2.606,0.204,8.413-3.66,12.434-3.092C1703.013,933.338,1702.158,929.112,1702.158,929.112z
			"/>
		<path style="fill:#FFB07B;" d="M1550.229,819.076c-16.039,0.23-33.822-1.439-49.019-3.45c2.8-4.684,6.14-18.174,7.085-36.798
			v-0.067l5.652,0.304l26.744,1.426c0,0-0.03,0.391-0.082,1.07c-0.251,3.606-1.049,15.412-0.916,22.061
			c0.052,2.557,1.382,8.075,1.788,8.342C1544.399,814.474,1547.332,816.802,1550.229,819.076z"/>
		<path style="fill:#2C3A64;" d="M1502.712,706.113c-0.399-1.538-5.302-17.975-30.937-13.209c0,0,12.842-1.281,16.223,3.74
			c0,0-10.025-4.907-16.479-1.184c-6.453,3.724-7.834,16.781-6.988,20.787c0.846,4.007,7.556,16.04,12.202,16.159
			c1.759,0.046,3.655-0.49,5.333-1.175c-0.766,2.088-1.467,4.361-2.064,6.858c-5.533,23.09,9.45,41.136,17.546,36.98
			c5.192-2.665,8.837,6.396,8.837,6.396l43.941-55.223C1550.326,726.242,1521.637,689.901,1502.712,706.113z"/>
		<path style="fill:#EA8E50;" d="M1539.689,803.618c-16.209-1.921-26.559-16.157-31.398-24.794
			c-0.059-0.104-0.118-0.207-0.178-0.311l5.83,0.547l26.662,2.497C1540.354,785.163,1539.557,796.969,1539.689,803.618z"/>
		<path style="fill:#FFB07B;" d="M1541.985,791.178c0,0-37.929-0.352-37.345-23.97c0.584-23.615-3.918-39.566,20.322-40.339
			c24.24-0.773,28.721,8.354,30.443,16.284C1557.129,751.083,1551.866,790.661,1541.985,791.178z"/>
		<path style="fill:#2C3A64;" d="M1554.617,729.994c-5.676-7.255-10.146-5.81-12.682-3.739
			c-20.428-11.927-34.215,4.572-34.215,4.572c-2.974,16.879-15.443,26.271-15.443,26.271s6.801,4.446,22.836,0.761
			c4.898-1.125,9.332-4.472,13.133-8.571c-6.725,10.641-15.701,18.2-15.701,18.2c19.256-8.306,27.58-34.574,28.413-37.352
			c2.261,2.138,6.706,6.77,7.983,11.231c1.734,6.063,2.266,18.464,5.884,18.136C1554.825,759.502,1563.131,740.873,1554.617,729.994
			z"/>
		<path style="fill:#A53934;" d="M1579.344,862.857c0,0,24.381,31.513,29.922,32.006c5.541,0.494,2.955,21.468,0,26.865
			c-2.956,5.396-21.932,16.951-34.053,4.524C1563.092,913.827,1579.344,862.857,1579.344,862.857z"/>
		<path style="fill:#B64C41;" d="M1609.266,993.616c-18.1,2.586-49.691,4.803-55.875,14.776c-6.184,9.974-45.523,2.955-48.753-3.325
			c-3.235-6.279,6.737-57.323,1.566-65.974c-3.887-6.494-17.324-42.267-24.284-62.85c-2.305-6.804-3.894-11.953-4.203-13.83
			c-1.228-7.543-5.875-34.642,12.788-42.591c0,0,9.05-3.886,9.789-7.085c0.177-0.754,0.199-1.936,0.214-3.266v-0.008
			c0.037-4.321-0.081-10.239,4.13-8.547c5.504,2.216,11.326,7.631,20.73,7.137c9.405-0.488,17.531-4.678,18.759-1.966
			c1.232,2.704-2.188,6.324,0,8.104c2.186,1.78,29.677,18.448,38.172,42.791c0,0,6.9,17.568,6.9,32.277
			c0,1.138-0.014,2.29-0.044,3.458c-0.192,8.784-0.989,18.122-0.11,26.198c0.044,0.434,0.096,0.863,0.154,1.292
			c1.375,10.247,2.875,19.94,4.411,27.432c1.515,7.396,3.065,12.641,4.573,14.154
			C1605.571,969.236,1627.365,991.03,1609.266,993.616z"/>
		<path style="fill:#FFB07B;" d="M1706.232,929.711c-0.482-1.481-1.786-3.694-3.018-5.91c-1.231-2.217-10.589-11.821-14.283-12.806
			c-3.693-0.985-21.781,4.065-21.781,4.065s-71.152,0.938-82.499-6.035c-14.776-9.082-50.669-46.684-75.641-65.868
			c-11.903-9.147-21.329-14.11-24.817-9.814c0,0-9.508,9.125,2.462,31.673c0.661,1.262,1.397,2.566,2.21,3.913
			c15.279,25.412,73.973,74.373,97.555,75.982c23.582,1.61,83.392-18.422,83.392-18.422s6.228-1.701,9.429,0.762
			c3.201,2.463,15.564,2.005,17.326,3.691C1699.859,934.098,1707.032,932.174,1706.232,929.711z"/>
		<path style="fill:#A53934;" d="M1553.391,1008.393c-6.184,9.974-45.523,2.955-48.753-3.325
			c-3.235-6.279,6.737-57.323,1.566-65.974c-3.887-6.494-17.324-42.267-24.284-62.85c1.146-2.319,2.8-3.383,5.075-2.756
			c15.914,4.374,91.322,62.311,106.615,74.153c1.515,7.396,3.065,12.641,4.573,14.154
			C1598.184,961.796,1551.078,980.688,1553.391,1008.393z"/>
		<path style="fill:#A53934;" d="M1589.045,918.918c-23.132-9.834-80.536-65.49-81.363-66.288
			c0.66,0.231,19.175-8.033,64.028,32.794c5.193,4.727,12.511,14.291,14.196,18.437
			C1587.937,908.852,1588.624,915.057,1589.045,918.918z"/>
		<path style="fill:#B64C41;" d="M1489.212,831.777c0,0,11.328,1.645,22.41,10.264c11.082,8.619,66.437,62.691,75.698,64.961
			c9.262,2.268,29.199,1.199,28.959,7.029c-0.242,5.829-4.674,34.396-10.585,39.567c-5.91,5.172-37.186,7.634-50.73-0.985
			c-13.544-8.619-80.774-89.641-76.588-107.125C1482.563,828.004,1489.212,831.777,1489.212,831.777z"/>
		<path style="fill:#A53934;" d="M1515.254,819.823c-5.91-1.471-24.749,0-24.749,0s9.05-3.886,9.789-7.085
			c0.177-0.754,0.199-1.936,0.214-3.266c0.953,3.886,3.85,5.725,11.606,6.095C1519.871,815.938,1521.164,821.293,1515.254,819.823z"
			/>
		<path style="fill:#2D427C;" d="M1807.846,1194.272c0,0-0.008-0.008-0.016-0.015c-1.219-1.264-79.346-82.25-91.544-133.123
			c0,0,19.187-5.334,30.764,9.93C1758.627,1086.335,1807.846,1194.272,1807.846,1194.272z"/>
	</g>
	<g>
		<g>
			<path style="fill:#E49963;" d="M2664.937,805.787c0.434-1.293,0.696-2.715,0.745-4.284c0.555-18.338,4.727-30.516-14.039-32.15
				c-18.766-1.633-22.629,5.254-24.303,11.33c-1.675,6.076,0.718,36.993,8.357,37.815c0,0,2.455,0.111,5.956-0.17
				c0.163,2.015,0.448,5.503,0.764,9.348c0.608,7.343,1.329,15.948,1.538,17.924l20.76-1.02l10.967-13.657
				C2675.682,830.923,2668.035,821.667,2664.937,805.787z"/>
			<path style="fill:#163560;" d="M2705.319,1042.242c-4.079,6.917-8.795,13.4-13.657,19.539
				c-15.025,18.969-31.383,34.609-34.231,49.393c-0.565,2.946-1.466,6.12-2.642,9.463c-1.189,3.386-2.66,6.947-4.358,10.629
				c-6.376,13.85-15.911,29.369-25.432,43.477c-16.458,24.387-31.935,44.735-31.935,44.735l-28.381-1.209
				c1.137-2.845,13.515-36.517,30.074-77.666c6.725-16.705,13.875-34.474,20.773-51.608c0.919-2.289,1.838-4.567,2.748-6.826
				c2.108-5.245,4.185-10.406,6.211-15.434c15.549-38.638,27.934-69.405,27.934-69.405s62.145-23.542,68.599-8.287
				C2726.344,1001.619,2722.01,1013.941,2705.319,1042.242z"/>
			<path style="fill:#163560;" d="M2592.178,1215.146c0,0-1.451,23.42-5.982,23.756c-0.603,0.044-22.981,0.044-22.981,0.044
				l-28.566-0.165c0,0,0.187-6.883,8.537-8.339c8.351-1.455,22.327-7.323,27.385-18.359
				C2575.891,1200.472,2592.178,1215.146,2592.178,1215.146z"/>
			<path style="fill:#163560;" d="M2657.896,1147.411c0,0,19.741,12.686,17.826,16.805c-0.256,0.548-11.165,20.088-11.165,20.088
				l-14.071,24.861c0,0-5.918-3.519-3.117-11.52c2.799-8,4.489-23.063-2.682-32.86
				C2637.145,1154.479,2657.896,1147.411,2657.896,1147.411z"/>
			<path style="fill:#E58638;" d="M2639.265,825.85c0.456-0.165,28.06-6.773,30.962-5.645s4.354,6.935,4.354,6.935l-44.99,7.74
				C2629.59,834.88,2633.46,827.946,2639.265,825.85z"/>
			<path style="fill:#163560;" d="M2630.143,779.07c0,0,7.271,20.291,11.329,18.263c4.058-2.03,7.778-3.721,8.792,2.704
				c1.015,6.426-3.043,15.219,10.484,12.852c13.527-2.367,23.594-41.499,18.262-47.008
				C2663.623,749.986,2609.006,760.301,2630.143,779.07z"/>
			<path style="fill:#EE9849;" d="M2722.474,989.525c-7.425,8.775-70.606,6.487-89.12-0.919c-1.394-0.557-2.496-1.142-3.256-1.751
				c-10.885-8.709,13.681-16.358-13.787-82.726c-0.015-0.034-0.029-0.063-0.039-0.097c-17.266-49.131,5.462-63.394,13.439-70.645
				c0,0,38.576-11.723,59.625-5.201C2716.668,836.654,2730.456,980.092,2722.474,989.525z"/>
			<path style="fill:#E58638;" d="M2656.037,956.953c-1.248,9.036-8.519,31.329-22.684,31.653c-1.394-0.557-2.496-1.142-3.256-1.751
				c-10.885-8.709,13.681-16.358-13.787-82.726c-0.015-0.034-0.029-0.063-0.039-0.097c4.591-3.154,12.031-6.729,16.865-1.263
				C2640.557,911.154,2657.324,947.597,2656.037,956.953z"/>
			<path style="fill:#1C468A;" d="M2630.1,986.852c0,0-76.916,47.891-85.623,80.544c-8.708,32.652,103.763,102.313,103.763,102.313
				s12.336-10.885,14.513-18.866c0,0-50.838-60.908-61.866-74.562c-6.772-8.385,100.142-29.027,113.203-49.345
				c13.061-20.316,8.385-37.411,8.385-37.411L2630.1,986.852z"/>
			<path style="fill:#E49963;" d="M2527.558,946.677c0,0-11.792-5.054-15.657-2.657c-3.863,2.398-10.505,11.175-11.304,13.279
				c-0.799,2.105-1.091,5.164,2.642,4.51c3.731-0.654,3.946-0.631,3.946-0.631s6.271-4.967,7.766-5.046
				c1.495-0.077,7.853,2.859,10.895-0.621C2528.887,952.031,2527.558,946.677,2527.558,946.677z"/>
			<path style="fill:#EE9849;" d="M2629.59,834.88c0,0-11.477,6.149-19.639,26.121c-8.443,20.663-19.648,66.979-22.733,68.993
				c-3.085,2.015-49.412,9.319-63.206,14.686c0,0-5.418,9.709-0.295,13.722c5.124,4.013,67.168,1.806,70.927,0.831
				c31.321-8.111,47.779-69.91,51.517-79.406C2649.897,870.33,2629.59,834.88,2629.59,834.88z"/>
		</g>
		<g>
			<path style="fill:#163560;" d="M2708.245,1215.757v-32.721h33.414c1.302,0,2.366-1.065,2.366-2.367v-8.902
				c0-1.302-1.064-2.367-2.366-2.367h-33.414v-105.448c0-3.46-2.832-6.291-6.292-6.291h-6.75c-3.46,0-6.292,2.831-6.292,6.291
				v105.448h-33.414c-1.302,0-2.366,1.065-2.366,2.367v8.902c0,1.302,1.064,2.367,2.366,2.367h33.414v32.721
				c-24.678,1.866-45.774,11.71-51.32,23.188h120.65C2752.695,1227.467,2732.923,1217.623,2708.245,1215.757z"/>
			<path style="fill:#EE9849;" d="M2778.4,1048.548h-159.645c-3.193,0-5.805,2.612-5.805,5.805v31.93
				c0,3.192,2.611,5.805,5.805,5.805H2778.4c3.193,0,5.805-2.612,5.805-5.805v-31.93
				C2784.205,1051.16,2781.594,1048.548,2778.4,1048.548z"/>
		</g>
	</g>
	<g>
		<polygon style="fill:#C45446;" points="935.483,866.75 935.065,876.304 934.193,896.274 933.793,905.472 908.447,905.472 
			907.872,896.274 906.629,876.304 906.033,866.75 		"/>
		<polygon style="fill:#DDE3F2;" points="935.967,860.296 905.943,860.296 904.706,866.75 936.812,866.75 		"/>
		<polygon style="fill:#E37970;" points="935.065,876.304 934.193,896.274 907.872,896.274 906.629,876.304 		"/>
	</g>
	<g>
		<path style="fill:#E37970;" d="M981.701,869.485l-0.175,3.928l-0.129,2.89l-0.8,18.396l-0.071,1.574l-0.399,9.198h-25.349
			l-0.574-9.198l-0.097-1.574l-1.148-18.396l-0.181-2.89l-0.322-5.218l0.071-0.161c0,0,5.907-1.071,9.455,1.187
			c3.548,2.257,7.418-2.154,10.643-0.864c3.226,1.29,3.444,2.902,6.024,1.832C979.417,869.865,980.521,869.64,981.701,869.485z"/>
		<polygon style="opacity:0.2;fill:#E37970;" points="981.816,866.75 981.701,869.485 981.526,873.413 981.398,876.303 
			980.598,894.698 980.526,896.273 980.127,905.471 954.778,905.471 954.204,896.273 954.107,894.698 952.959,876.303 
			952.778,873.413 952.456,868.195 952.365,866.75 		"/>
		<path style="opacity:0.2;fill:#E37970;" d="M981.969,866.746c0.004-0.15,0.012-0.3,0.012-0.451
			c0-8.147-6.606-14.753-14.753-14.753c-8.147,0-14.753,6.606-14.753,14.753c0,0.151,0.007,0.301,0.012,0.451H981.969z"/>
		<g>
			<path style="fill:#C45446;" d="M964.672,903.135l-1.289-0.16c0.079-0.809,4.205-55.385,4.848-59.023
				c0.706-4.003,4.588-5.188,4.752-5.236l0.07-0.017l20.641-3.655l0.225,1.269l-20.601,3.648c-0.349,0.112-3.274,1.138-3.817,4.215
				C968.867,847.764,964.691,902.938,964.672,903.135z"/>
		</g>
		<polygon style="fill:#C45446;" points="981.526,873.413 981.398,876.303 980.598,894.698 954.107,894.698 952.959,876.303 
			952.778,873.413 		"/>
	</g>
	<g>
		<path style="fill:#DDE3F2;" d="M862.22,892.376c0.081-0.241,0-4.535,7.238-6.087c7.237-1.552,5.066-5.171,5.066-5.171
			s10.534,5.146,8.444,11.258C880.877,898.488,862.22,892.376,862.22,892.376z"/>
		<polygon style="fill:#E37970;" points="883.135,905.472 861.883,905.472 858.246,890.098 886.303,890.098 		"/>
	</g>
	<g>
		<polygon style="fill:#365DA4;" points="1882.851,902.205 1852.826,902.205 1851.59,908.659 1852.917,908.659 1853.512,918.213 
			1854.756,938.184 1855.332,947.381 1880.678,947.381 1881.076,938.184 1881.949,918.213 1882.367,908.659 1883.695,908.659 		"/>
		<path style="fill:#365DA4;" d="M1821.408,923.027c0,0,2.172,3.618-5.066,5.171c-3.879,0.832-5.646,2.448-6.473,3.809h-4.74
			l3.639,15.374h21.251l3.169-15.374h-3.105C1829.429,926.947,1821.408,923.027,1821.408,923.027z"/>
	</g>
	<path style="fill:#A53934;" d="M1764.401,877.354c-1.202-0.438-2.544,0.188-2.98,1.391l-23.273,63.986h-68.007
		c-1.279,0-2.326,1.046-2.326,2.325c0,1.278,1.047,2.325,2.326,2.325h69.717c0.012,0,0.021-0.004,0.032-0.004c0,0,0.005,0,0.007,0
		c1.174-0.021,2.131-0.921,2.26-2.065l23.636-64.979C1766.229,879.132,1765.604,877.791,1764.401,877.354z"/>
	<g>
		<path style="fill:#466AA5;" d="M3134.082,1100.097c0,0-40.735-22.812-21.726-53.771c0,0,15.208-19.01,31.503-23.898
			c0,0-8.691,46.168,0,47.254c8.689,1.086,5.974-52.142,5.974-52.142s42.909-20.64,59.746-19.01c0,0-26.614,45.08-17.924,43.994
			c8.69-1.087,38.563-46.71,38.563-46.71s43.994-8.147,51.056,17.924c7.061,26.07-4.346,39.106-10.863,40.735
			s-48.34,1.087-47.253,6.518c1.086,5.432,29.33,14.122,45.08,9.233c0,0-17.38,42.909-40.192,40.735
			c-22.812-2.172-29.872-16.294-43.994-17.38c-14.122-1.087-24.441,2.716-17.381,6.518s30.959,1.246,42.365,10.942
			c11.406,9.697,20.64,15.672-0.544,20.017c-21.182,4.345-59.202,1.63-66.807-14.665
			C3134.082,1100.097,3134.082,1100.097,3134.082,1100.097z"/>
		<path style="fill:#325384;" d="M3261.178,1021.884c0,0-114.061,36.935-127.096,78.213c0,0,0.543,18.467-10.863,39.649v0.007
			c-0.083,0.127-9.994,15.256-10.62,36.566h6.555c0.119-9.708,1.139-20.883,4.468-29.332c0-0.009,0-0.009,0.009-0.017
			c0.031-0.079,0.066-0.155,0.098-0.234c0.31-0.698,0.751-1.685,1.299-2.878c0.01-0.021,0.021-0.039,0.028-0.058
			c1.33-2.596,2.229-4.522,2.795-5.916l0.001-0.002c0,0,0.008,0,0.008-0.008c0.007-0.015,0.011-0.027,0.017-0.042
			c4.066-8.334,9.911-19.167,13.811-21.442C3141.686,1116.391,3116.158,1080.544,3261.178,1021.884z"/>
	</g>
	<g>
		<path style="fill:#466AA5;" d="M3093.711,1135.412c0,0,30.903-17.307,16.481-40.793c0,0-11.537-14.421-23.897-18.129
			c0,0,6.592,35.023,0,35.848c-6.594,0.823-4.533-39.557-4.533-39.557s-32.551-15.657-45.324-14.421c0,0,20.19,34.199,13.598,33.375
			c-6.594-0.824-29.255-35.435-29.255-35.435s-33.375-6.181-38.731,13.597c-5.357,19.778,3.296,29.667,8.24,30.902
			c4.944,1.236,36.672,0.825,35.848,4.944c-0.824,4.121-22.25,10.714-34.199,7.006c0,0,13.186,32.551,30.49,30.902
			c17.307-1.647,22.662-12.361,33.375-13.186c10.714-0.823,18.542,2.061,13.186,4.945c-5.356,2.884-23.486,0.945-32.139,8.301
			c-8.652,7.356-15.657,11.889,0.412,15.185c16.069,3.297,44.912,1.236,50.681-11.124
			C3093.711,1135.412,3093.711,1135.412,3093.711,1135.412z"/>
		<path style="fill:#325384;" d="M3103.272,1176.319h3.647c-2.275-6.737-4.963-10.819-4.969-10.83
			c-8.652-16.069-8.24-30.077-8.24-30.077c-9.889-31.315-96.417-59.334-96.417-59.334c110.014,44.5,90.648,71.694,90.648,71.694
			c2.956,1.726,7.386,9.931,10.469,16.251c0.007,0.017,0.013,0.03,0.019,0.047c0.008,0,0.008,0.008,0.008,0.008
			c0.438,1.075,1.14,2.564,2.167,4.588c0.005,0.016,0.013,0.028,0.021,0.041c0.386,0.845,0.705,1.553,0.93,2.061
			C3102.246,1172.486,3102.811,1174.355,3103.272,1176.319z"/>
	</g>
	<g>
		<path style="fill:#77A4E5;" d="M3112.936,1235.559c36.771,0,66.579-29.809,66.579-66.578h-133.156
			C3046.358,1205.75,3076.166,1235.559,3112.936,1235.559z"/>
		<path style="fill:#7CACE5;" d="M3129.319,1235.049c-2.708,0.339-5.47,0.51-8.272,0.51c-36.769,0-66.574-29.81-66.574-66.579h16.54
			C3071.013,1202.95,3096.452,1230.976,3129.319,1235.049z"/>
		<path style="fill:#77A4E5;" d="M3180.096,1238.945h-134.994l0,0c0-4.535,3.678-8.213,8.213-8.213h118.567
			C3176.418,1230.732,3180.096,1234.41,3180.096,1238.945L3180.096,1238.945z"/>
		<rect x="3044.169" y="1168.979" style="fill:#466AA5;" width="136.859" height="2.043"/>
	</g>
</g>
</svg>
